<?xml version="1.0" standalone="no"?>
<!DOCTYPE svg PUBLIC "-//W3C//DTD SVG 1.1//EN" "http://www.w3.org/Graphics/SVG/1.1/DTD/svg11.dtd">
<svg class="icon" style="width: 1em; height: 1em;vertical-align: middle;fill: currentColor;overflow: hidden;" viewBox="0 0 1024 1024" version="1.1" xmlns="http://www.w3.org/2000/svg"><path d="M835.5 203v594.1c-1.2 7.7-1.9 15.3-4.6 22.8-16.3 44.6-47.8 71-94.5 79.4-5.5 1-11.1 1.3-16.8 1.3H423.5c-8.5 0-8.5 0-8.6 8.3v44.4c0 2.3 0.7 5.5-1.7 6.4-2.5 1-3.9-1.9-5.4-3.7-13.7-16.5-27.2-33.3-40.8-50-6.3-7.7-19.4-8-25.9-0.5-14 16.2-27.7 32.5-41.6 48.7-1.8 2.1-3.4 5.6-6.4 4.4-2.6-1.1-1.6-4.7-1.6-7.3-0.1-15.4-0.1-30.9 0-46.3 0-4.2-1.4-5.9-5.6-6.9-44-9.9-73.5-36.3-88.8-78.7-3.5-9.8-4.8-20-4.8-30.3 0-193-0.1-386.1 0.1-579.1 0-32 13.3-58.5 35.9-80.6C252.1 106 281.1 95 314.5 95h192.2c2 0 4.1-0.1 6.1 0.1 7.1 0.5 10.6 3.9 11.4 11.1-1.3 6.8-4.5 9.8-11.2 10.3-2.3 0.2-4.7 0.1-7 0.1H312.8c-11.9 0-11.9 0-11.9 11.8v59.4c0 1.9 0.1 3.7-0.1 5.6-0.6 6.3-5.1 10.9-10.8 10.8-5.7 0-10.1-4.6-10.7-11-0.2-1.9-0.1-3.7-0.1-5.6V131v-4.2c0-3.4-1.6-4.1-4.5-2.8-10.7 4.8-20.8 10.7-29.4 18.8-21.7 20.5-32.3 45.7-32.3 75.5v492.6c0 1-0.4 2.2 0.4 3.4 5.9-8.2 12.6-15.4 20.2-21.8 11.4-9.5 24.1-16.5 38.2-21.2 7.3-2.4 7.3-2.4 7.3-10.1v-305c0-2.6-0.2-5.3 0.2-7.9 0.8-5.6 5.1-9.2 10.7-9.1 5.6 0 9.8 3.6 10.6 9.2 0.4 2.6 0.2 5.3 0.2 7.9v299.4c0 9.8 0 9.8 9.6 9.8h341.5c9 0 9 0 9-9V125.1c0-8.6 0-8.6-8.8-8.6-12.5 0-24.9 0.1-37.4-0.1-7.5-0.1-10.8-2.9-12.5-10 0.7-7.8 4.4-11.3 12.4-11.5 13.2-0.2 26.5 0 39.7-0.1 6 0 6.1 0 6.8-6.1 1.1-9.5 6.2-16.4 13.9-21.7 3-2.1 6.6-1.6 9.8-2.7h14c14.3 2.7 22.5 11.6 23.6 26.3 0.3 4.2 2.8 4.8 5.8 5 11.8 0.8 23 3.9 33.8 8.6 37 16 60.5 43.7 71.2 82.5 1.4 5.5 1.2 11 2.3 16.3z" fill="#030000" /><path d="M835.5 203c-1.5-6.5-2.8-13.2-4.6-19.6-13-46.7-53.9-81.2-102.1-86.2-6.9-0.7-6.9-0.7-7.5-7.7-0.9-11.1-9.1-20.9-20-23.9-0.8-0.2-1.9 0.2-2.4-1 44.4 0 88.7 0 133.1-0.1 2.9 0 3.6 0.7 3.6 3.6-0.2 44.9-0.1 89.9-0.1 134.9z" fill="#FEFEFE" /><path d="M523.1 105.7h80.2c1.6 7.2 4.3 9.4 11.6 9.4 14.5 0 29 0.1 43.5-0.1 3.4 0 4 1 4 4.2-0.1 181.2-0.1 362.3 0 543.5 0 4.2-1.6 4.3-4.9 4.3-115.4-0.1-230.7-0.1-346.1-0.1-3.9 0-9.1 1.5-11.3-0.5-2.6-2.3-0.8-7.6-0.8-11.6V353.1c0-1.6 0.1-3.1-0.1-4.7-0.5-4.8-4.4-8.2-9.2-8.3-4.8-0.1-8.7 3.3-9.4 8.1-0.2 1.7-0.1 3.4-0.1 5.1 0 103.8 0 207.7 0.1 311.5 0 4.2-1.2 5.7-5.2 6.9-26.7 7.9-47.6 23.8-63.5 46.7-1.4-0.9-0.7-2.3-0.7-3.3 0-166.4-0.1-332.7 0-499.1 0-42.7 26.8-80.7 66.3-94.9 0.7-0.3 1.4-0.4 2.9-0.9v71.7c0 4.4 1.3 8 5.4 10 6.4 3.1 13.2-1.6 13.3-9.3 0.1-16.7 0-33.4 0-50 0-8 0.1-15.9-0.1-23.9 0-2.2 0.4-3.1 2.7-3.2 4-0.1 8.1-0.6 12.1-0.6h197.4c7.6 0.2 10.4-2.1 11.9-9.2z" fill="#68CAFE" /><path d="M816.8 569.1V780.9c0 49.7-32.9 89.2-81.7 98.2-5.5 1-11.1 1.3-16.8 1.3-99.9 0-199.9-0.1-299.8 0.1-4.2 0-5.1-1.1-5-5.1 0.2-22.6 0.2-45.2 0-67.8 0-3.8 0.8-4.9 4.8-4.9 44.6 0.2 89.2 0.1 133.8 0.1 1.6 0 3.1 0.1 4.7-0.1 4.7-0.5 8.3-4.5 8.4-9.1 0.1-4.8-3.6-8.9-8.6-9.4-1.2-0.1-2.5-0.1-3.7-0.1H288.6c-1.6 0-3.1-0.1-4.7 0.1-4.6 0.8-8 5.1-7.8 9.7 0.2 4.6 3.9 8.3 8.7 8.8 2.6 0.3 6.2-1.2 7.5 0.7 1.3 2 0.6 5.4 0.6 8.2 0 21-0.1 42.1 0.1 63.1 0 4.1-1.5 4.2-4.6 3.5-40.1-8.5-71.5-42.8-76.1-83.5-6.2-54.5 31.9-102.5 86.4-108.7 3.7-0.4 7.5-0.4 11.2-0.4 117.3 0 234.5 0 351.8-0.1 3.3 0 5.7 0.7 8 3.4 8.9 9.8 20.4 11 32.2 7.7 11.2-3.1 17.6-11.4 19.2-23 0.3-2.6 1.8-3.3 3.5-4.3 17.8-9.8 34.9-20.7 49.3-35.1 18-18 30.6-39.6 40.9-62.6 0.4-0.8 0.8-1.7 1.2-2.5h0.8z" fill="#EC8B1C" /><path d="M781.4 594.4c-10.1 17.4-23.9 31.4-40.3 42.8-6.2 4.3-12.5 8.6-19.7 12.3v-4.6-525c0-2.3-1.3-6.1 3.7-4 20.3 7.7 33.9 22.7 44.4 40.9 9.5 16.4 13.3 34.4 13.3 53.3-0.1 124.7-0.1 249.5 0 374.2-0.1 3.4-0.2 6.9-1.4 10.1z" fill="#69CAFE" /><path d="M781.4 594.4c-0.1-2.3-0.2-4.7-0.2-7 0-125.8-0.1-251.6 0.1-377.4 0-31-10.8-57-33.4-78.2-6.9-6.4-14.9-11.1-22.9-15.9 22.8 1.5 42.4 10.6 59 26 21.6 20 32.6 44.9 32.6 74.3 0.2 95.4 0.1 190.8 0 286.1 0 9.6-3.7 18.6-6.4 27.6-6.3 21.1-14.7 41.3-26 60.3-0.8 1.5-1.9 2.8-2.8 4.2z" fill="#1C8EF0" /><path d="M702.6 381.2v286.7c0 8.2-2.9 11.4-10.6 11.4-7.7 0-10.8-3-10.8-10.8V94.2c0-7.8 3.1-10.9 10.6-10.9 7.8 0 10.8 3.1 10.8 11.2v286.7z" fill="#69CAFE" /><path d="M394.4 907.7c-12.5-15.3-24.6-30.1-36.5-45.1-2.7-3.5-4-3.4-6.9 0-12.7 15.3-25.7 30.4-38.7 45.6-1.4-1.1-0.7-2.4-0.7-3.5 0-32.2 0-64.5-0.1-96.7 0-3.5 0.8-4.4 4.3-4.3 25.1 0.2 50.2 0.1 75.2 0.1 2.4 0 3.9 0 3.9 3.3-0.1 33-0.1 66.1-0.1 99.1 0 0.1-0.1 0.4-0.4 1.5z" fill="#FEDD5D" /><path d="M343.4 433.1V527c0 4-1 7.4-4.7 9.5-3.3 1.9-6.5 1.8-9.7-0.2-2.8-1.7-4-4.2-4.3-7.3-0.1-1.2 0-2.5 0-3.7V340.2v-1.9c0.1-6.1 4-10.7 9.3-10.8 5.2-0.1 9.4 4.5 9.4 10.6v95zM324.6 221.8v-36.9c0-6.6 3.5-10.6 9.1-10.8 5.8-0.1 9.6 4.1 9.6 10.8v74.8c0 6.8-3.7 10.8-9.6 10.7-5.6-0.1-9-4.1-9.1-10.8v-37.8z" fill="#FEFEFE" /><path d="M299.4 276.9v26.6c0 6.5-4 10.9-9.6 10.8-5.4-0.1-9.1-4.4-9.1-10.8v-53.7c0-6.5 3.6-10.5 9.3-10.4 5.7 0 9.3 4 9.3 10.5 0.1 9 0.1 18 0.1 27zM646.8 784h32.7c6.6 0 11 3.9 10.9 9.5-0.1 5.5-4.4 9.2-10.8 9.2h-66.4c-6.8 0-10.9-3.7-10.8-9.5 0.1-5.6 4.1-9.2 10.7-9.2h33.7zM731.3 802.7c-5.6 0-11.2 0.1-16.8 0-5.8-0.1-10.1-4.2-10-9.4 0.1-5.3 4.3-9.2 10.2-9.2 11.3-0.1 22.7-0.1 34 0 5.9 0 10 4.1 10 9.4-0.1 5.4-4.2 9.2-10.2 9.2-5.7 0.1-11.4 0-17.2 0z" fill="#030000" /></svg>