<?xml version="1.0" standalone="no"?>
<!DOCTYPE svg PUBLIC "-//W3C//DTD SVG 1.1//EN" "http://www.w3.org/Graphics/SVG/1.1/DTD/svg11.dtd">
<svg class="icon" style="width: 1em; height: 1em;vertical-align: middle;fill: currentColor;overflow: hidden;" viewBox="0 0 1024 1024" version="1.1" xmlns="http://www.w3.org/2000/svg"><path d="M283.4 106H802v630H283.4z" fill="#FEFEFE" /><path d="M66.1 337.7c2.1-3.6 1.7-7.9 2.7-11.8 7.6-31.2 35.2-53.7 67.3-54.3 19.8-0.4 39.7-0.2 59.5 0 3 0 4.4-0.5 5-3.9 1.7-8.7 9.3-14.6 18.2-14.8 9.1-0.1 17.3 5.8 18.8 14.6 0.7 3.8 2.2 4 5.2 4 12-0.1 24-0.1 36 0 1.6 0 3.2-0.4 4.7 0.5v32.6c0 6.3-0.3 6.6-6.8 6.7-10.2 0.1-20.5 0-30.7 0-6.2 0-6.6 0.3-6.6 6.4 0 73.4 0 146.8-0.1 220.2 0 4.3 1.5 7.1 5.2 9.3 11.2 6.8 22.3 13.8 33.4 20.9 2.1 1.3 3.9 2.7 5.3 4.7 14.7 9.3 29.3 18.7 44 28 57.4 36.1 114.9 72.2 172.4 108.4 2.1 1.3 4.1 2.7 6.2 4-0.2 3.3-3.4 4.4-4.9 6.8-4 6.4-4.7 12.9-0.9 19.5 3.8 6.5 9.8 9.4 17.4 8.8 2.6-0.2 5-1.2 7.2-2.5 4.1-2.4 8.3-4.9 12.3-7.5 2.2-1.4 4.4-2.6 7.2-2.2 9 4.2 17.1 10 25.5 15.3 63.6 39.9 127.1 79.9 190.7 119.8 16.7 10.5 33.4 20.8 49.9 31.5 3.4 2.2 6.8 3.1 10.8 3 22.1-0.1 44.2-0.5 66.3 0.1 14.7 0.5 31.2-10.7 32-30.8 0.1-2.1 0-4.2 0-6.2V514.9c0-2.9-0.4-5.8 0.5-8.6 3.8-3.7 8.8-5.6 13.1-8.6 7.6-5.2 16.3-8.8 22.4-16 1.1-1.2 3.1-2.7 3.2 0.9 0 129.5 0.3 258.8 0.3 388.3 0 1.7 0.2 11.2 0.2 14.1-1.2 11.5-5.1 22-12 31.2-13.9 18.5-31.6 30.3-55.8 29.8h-95.6c-9.5-0.1-14.8-3.5-18.2-12.2-1.2-3-2.1-6.2-5.1-7.5-21.6-14-44.1-26.7-65.9-40.4-32.6-20.6-65.3-41.1-98-61.6-33.5-21-66.9-42-100.4-63.1-35.2-22.1-70.4-44.3-105.7-66.4-40.3-25.3-80.5-50.5-120.7-75.8-38.2-24-76.4-48-114.6-72.1-18.8-11.9-37.7-23.6-56.5-35.5-3.2-2.1-3.8-1-4.4 2.2-2.2 11.5-8.7 17.2-20.2 18.2-11.1-0.7-17.2-6-19.9-17.5v-1c0.9-1.6 0.5-3.4 0.5-5.2v-68.4c0.2-12.2 7.5-19.5 20.1-19.9 11.6 1.3 19.3 9.2 20 20.8 0.3 4.9 0.2 9.9 0.1 14.9-0.1 3.6 1.2 5.9 4.3 7.9 27.2 17.1 54.5 34.2 81.7 51.3 1.3 0.8 2.7 2.5 4.2 1.8 1.9-0.9 1-3.1 1-4.8V317.8c0-6.3-0.2-6.6-6.4-6.6-17.3 0-34.6 0.1-51.8 0-22.3-0.2-34 17.6-33.2 33.2 0.6 12 0.2 24 0.1 36-0.2 13-7 20.8-19.9 22.9-10.3 0-21.1-7.4-20.3-19.6v-40.3c0-1.6 0.4-3.2-0.5-4.7 0.2-0.4 0.2-0.7 0.2-1z" fill="" /><path d="M958.2 480.7c-9.3 11.1-22.7 16.2-34.2 24.1-1 0.7-2 0.9-3.1 0.8-0.6-0.5-0.8-1.2-0.8-2 0.7-2.6 3-3.6 5-4.8 7.1-4.5 14.5-8.7 21.5-13.3 6.1-4 9.2-9.7 8.8-16.9-0.4-7.3-4.8-12-11-15-4.4-2.1-8.9-2-13.4-0.1-2.3 1-4.5 2.4-6.8 3.5-1.5 0.8-3.2 2-4.4-0.5-0.8-2.5-0.5-5.1-0.5-7.6v-104c0-8.8-2.5-16.6-8.5-23.3-6.4-7.1-14.7-10-23.9-10.3-6.4-0.2-12.8-0.1-19.2 0-9.8 0.1-19.6 0-29.4 0-2 0-4.1-0.2-6 0.8-2.2 1.9-1.4 4.5-1.4 6.8V510.5c0 3-1.2 5.3-3.7 6.8-10.4 6.6-20.9 13.1-31.5 19.4-1.2 0.7-2.5 1.6-4 0.6V150.8c0-17.8-9.3-30.5-25.3-34.5-3-0.7-6-0.8-9.1-0.8-161.3 0-322.7 0.1-484-0.2-19.4 0-35.7 14-35.2 35.2 0.3 10.7 0.1 21.4 0 32.2-0.1 11.8-8 20.3-18.9 20.4-10.8 0.1-19.4-8.5-19.4-20.1 0.1-15.7-1.7-31.5 1.1-47 5.8-31.9 29.3-54 61.5-58.6 0.8-0.1 2 0.3 2.3-1h2.9c1.7 0.9 3.5 0.5 5.2 0.5H757c1.7 0 3.5 0.5 5.2-0.5h1.9c4.7 1 9.5 0.7 14.1 1.9 28.8 7.5 50.9 34.3 52.6 63.9 2.1 36 0.4 71.9 0.9 107.9 0.1 4.8 0 9.6 0 14.4 0.1 5 0.5 5.4 5.6 5.4 16.3 0.1 32.6-0.2 48.9 0.1 31.2 0.6 53.9 14.9 67.7 43 3.3 6.6 4 13.7 5 20.8v6.7c-0.9 1.6-0.5 3.4-0.5 5.2v129.9c0.3 1.7 0.8 3.5-0.2 5.1z" fill="" /><path d="M762.4 76.4c-1.1 1.9-2.9 0.9-4.3 0.9h-486c-1.4 0-3.2 1-4.3-0.9h494.6z" fill="#989898" /><path d="M920.8 457.7c5.5-2.6 10.2-6.7 17-6.9 6.9-0.2 16.7 7.2 18.4 13.8 2.2 8.7-1.6 17.7-9 22.2-8 4.9-16 9.9-24 14.8-1 0.6-2 1.1-2.4 2.2-9.6 7.3-20.2 12.9-30.3 19.2-42.8 26.5-85.7 53-128.5 79.4-32.5 20.1-65 40.1-97.6 60.2-38.5 23.8-77 47.5-115.5 71.4-1.8 1.1-3.7 1.9-5.4 3.1-6.7 1.1-11.7 5.7-17 9.3-8.8 6-21.4 3-26.7-4.7-5.9-8.4-4.1-21 5.2-27.3 0.4-0.3 0.6-0.7 0.9-1.1 1.5 0 2.6-1 3.8-1.8C602.9 654.1 696 596.6 789 539.2c0.9-0.6 1.8-1.3 2.7-1.9 11.7-7.1 23.3-14.4 35.1-21.3 3.1-1.8 2.8-4.3 2.8-7V315.7c0-2-0.8-4.2 1-5.9 2 2.5 1.4 5.5 1.4 8.3v185.8c0 1.9-0.9 4.5 0.7 5.5 1.9 1.2 3.7-1.2 5.4-2.2 12.5-7.7 25.1-15.5 37.6-23.2 13.7-7.8 26.9-16.5 40.4-24.6 1.4-0.8 2.7-2.3 4.7-1.7z" fill="#030000" /><path d="M538.1 239.6c54.6 0 109.1 0.2 163.7-0.2 9.2-0.1 17.8 6.5 19.6 15.5 1.6 8.5-3.3 18.2-11.6 21.2-3.1 1.2-6.4 1.9-9.8 1.9H376.5c-11 0-18.6-4.8-21.4-13.5-4-12.4 4.9-24.9 17.9-24.9 55 0 110 0.1 165.1 0zM537.8 347.2c54.7 0 109.4 0.1 164.1-0.1 11 0 19.5 7.5 19.7 19 0.2 9.5-6.3 18.3-18.6 19.4-1 0.1-1.9 0-2.9 0H375.7c-10.8 0-18.2-5-20.9-14.1-3.5-11.9 5.5-24.3 17.9-24.3 55.1 0.1 110.1 0.1 165.1 0.1zM538.1 454.8h163.7c9.9 0 17.5 6.3 19.3 15.3 2.5 12.8-7.2 22.5-18.2 23.1-1 0.1-1.9 0-2.9 0H374.9c-12.3 0-20.8-7.8-20.9-18.9-0.1-11.2 8-19.4 19.2-19.4h120.5c15-0.1 29.7-0.1 44.4-0.1z" fill="#D0D0D0" /><path d="M283.4 572.9c-14.4-8.9-28.7-17.9-43.1-26.7-2.6-1.6-1.9-3.8-1.9-5.9V353.7c0-12.6 0.3-25.3-0.1-37.9-0.2-5.3 1.6-6.2 6.4-6.1 11.7 0.3 23.3 0 35 0.2 3.2 0.1 4-0.9 4-4-0.1-11.3 0.1-22.7 0.1-34 0.9 12.7 0.5 25.5 0.2 38.2-0.1 2.2-0.4 4.4-0.4 6.7-0.2 85.4-0.2 170.7-0.2 256.1z" fill="#69CAFE" /><path d="M86 584.6c0.1-17.9 0.1-35.8 0.2-53.7 12.7-1.5 17-6.6 19.6-23.2 1.8-0.1 2.9 1.2 4.2 2 219.6 137.9 439.1 275.8 658.7 413.8 1.3 0.8 2.6 1.9 3.8 2.8-2.1 0.1-4.1 0.2-6.2 0.2h-152c-2.1 0-4.1 0.3-6.2 0.5-1.8-1-1.8-2.9-2.3-4.6-1.9-7-6.6-11.1-13.5-12.9-3-0.8-6-0.9-9-0.9-96 0-192 0-288.1-0.1-11.4 0-19.9 3.9-24 15.1-1.1 1.4-2.6 1.6-4.3 1.6h-25.7c-1.6 0-3.2-0.1-4.1-1.8-3.5-11.5-9.6-16.1-21.8-16.1-25 0-49.9-0.5-74.8 0.2-20.7 0.6-35.6-15.5-35.5-35.4 0.4-87.8 0.2-175.6 0.2-263.4 0.1-15.3-4.3-20.8-19.2-24.1z" fill="#FEDD5D" /><path d="M543.6 737.1c-0.1-2.2 1.9-2.4 3.1-3.2C670.1 657.7 793.5 581.6 917 505.4c1.2-0.7 2.2-1.9 3.8-1.6 0 0.6 0.1 1.3 0.1 1.9-0.1 2.1-0.2 4.2-0.2 6.2v360.4c0 17.5-9.4 30.2-25 34.3-3.1 0.8-6.3 0.8-9.5 0.8-21.3 0-42.6-0.1-63.8 0.1-5.1 0-9.2-1.1-13.7-4-18.2-11.9-36.7-23.3-55.1-34.8-68.7-43.2-137.5-86.4-206.2-129.6-1.2-0.7-2.5-1.3-3.8-2z" fill="#EC8B1C" /><path d="M86.2 421v-19c13.8-2.5 19.1-8.9 19.1-23 0-11.5-0.1-23 0-34.6 0.1-20.9 13.7-34.6 34.5-34.6 18.6-0.1 37.1 0.1 55.7-0.1 3.1 0 4.4 0.5 4.4 4.1-0.1 67.8-0.1 135.7-0.1 203.5 0 0.8-0.1 1.6-0.1 2.4-1.6 0.7-2.4-0.6-3.4-1.2-29.2-18.3-58.4-36.7-87.7-55-2.5-1.6-3.5-3.3-3.3-6.1 0.2-4.8 0.1-9.6 0.1-14.4-0.1-13.1-6.4-20.3-19.2-22zM877.6 484.3c-15.6 9.7-31.1 19.4-46.7 29.1-1.3-1.6-0.8-3.1-0.8-4.5V314.5c0-1.6 0.3-3.2 0.4-4.7 12.5 0.1 25 0.2 37.5 0.2 2.8 1 4.3 3.3 5.5 5.8 3.4 7 5.6 14.2 5.6 22.1v139c0 2.6 0.2 5.2-1.5 7.4z" fill="#69CAFE" /><path d="M877.6 484.3V339c0-10.8-3.2-20.4-9.6-29 7.2 0 14.4-0.4 21.5 0 18 0.9 31.1 15.1 31.1 33.6 0.1 35.9 0 71.9 0 107.8 0 2.1 0 4.2 0.1 6.2-14.3 9-28.7 17.8-43.1 26.7z" fill="#1C8EF0" /><path d="M270.4 928.5c0-1.6 0-3.9 0.3-5.6 2.9-11.2 9.3-15.4 21.5-15.4h293.7c8 0 14.8 2.1 19.4 9.2 2.1 3.2 2.7 6.8 3 10.4-1.4 10.9-6.5 16.6-16.6 18.7-2.1-0.1-4.1-0.2-6.2-0.2-98 0-196.1 0.2-294.2 0.2-1.4 0-2.8-0.1-4.2 0-9.8-1.9-15.3-7.6-16.7-17.3z" fill="" /><path d="M146.9 763.1v99.4c0 1.6 0.1 3.2-0.1 4.8-0.5 3.5-2.4 5.9-6.1 6.4-3.9 0.5-6.9-0.8-8.4-4.7-0.7-1.8-0.7-3.7-0.7-5.7V663.1c0-1.7 0.1-3.5 0.6-5.2 1.2-4.3 4.4-5.8 8.5-5.2 3.8 0.5 6 2.9 6.2 6.8 0.2 3.4 0.1 6.7 0.1 10.1-0.1 31.1-0.1 62.3-0.1 93.5zM146.9 590.1c0 8.5 0.1 16.9 0 25.4 0 5.2-2.7 8.2-7.2 8.4-4.7 0.1-8.1-2.9-8.1-8.1-0.2-17.1-0.1-34.2 0-51.3 0-5.1 3.6-8.6 7.9-8.6 4.4 0 7.4 3.5 7.4 8.8 0.1 8.5 0 16.9 0 25.4z" fill="#FEFEFE" /><path d="M66.1 601.7c3-12.7 8.5-17.3 21.4-18.1 12.1 2 18.6 9.2 19.4 21.4 0.2 2.4 0.1 4.8 0.1 7.2v261.9c0 14.8 8.6 26.4 22.4 30.5 3 0.9 6 1 9 1h73.4c3.2 0 6.4 0.1 9.5 0.8 8.9 2 14.9 7 16.9 16.2 0.2 1.4 0.1 2.9 0.2 4.3-0.5 11.9-7.5 18.9-18.9 19.1-26.4 0-81.9 0.5-84.2 0.5h-3.8c-11.2-1-21.8-3.9-31.5-10-17-10.6-27.3-25.9-32.4-45-1-3.7-1.5-289.4-1.5-289.8z" fill="" /></svg>