<?xml version="1.0" standalone="no"?>
<!DOCTYPE svg PUBLIC "-//W3C//DTD SVG 1.1//EN" "http://www.w3.org/Graphics/SVG/1.1/DTD/svg11.dtd">
<svg class="icon" style="width: 1em; height: 1em;vertical-align: middle;fill: currentColor;overflow: hidden;" viewBox="0 0 1024 1024" version="1.1" xmlns="http://www.w3.org/2000/svg"><path d="M546.7 62c3.7 2 7.9 1.3 11.9 1.7 117.7 11.9 214 63.8 288.6 155.3 46.4 56.9 74.7 122.3 86.7 194.8 2 12.1 3.3 24.4 4.2 36.7 0.1 1-0.6 2.4 1 2.9v4c-0.6 0.7-0.6 1.3 0 2v7c-0.8 2.3-0.8 4.7 0 7v12c-2.6 4.5-4.8 9.2-9.7 12.1-13.3 7.9-28.5-0.6-30.5-17.1-1.2-1.6-1.1-3.4-1.2-5.2-0.9-40.9-7.6-80.7-21.1-119.3-14.7-41.9-36-80.1-64.2-114.2-22.6-27.3-48.2-51.3-77.5-71.5-34.6-23.8-72-41.5-112.4-52.8-26.2-7.3-52.9-11.6-80.1-13.2-39.6-2.4-78.8 0.1-117.3 9.7-24 6-46.7 15.5-68.4 27.4-11 6.1-20.9 4.9-28.5-3.6-1.2-1.4-2.5-2.7-2.3-4.8-4.1-13.6-0.8-21.4 11.8-28.3 42.8-23.4 88.5-36.9 137.1-40.8 4.3-0.3 8.8 0.4 12.9-1.8h3c0.7 0.7 1.5 0.5 2.4 0.5 1.2-0.2 2.5 0.4 3.6-0.5h5c2.3 0.8 4.7 0.8 7 0h20c2.3 0.8 4.7 0.8 7 0h4c1.3 0.8 2.7 0.8 4 0h3zM507.7 962.6c-6.8-1.6-13.7-3-20.5-4.9-58.4-16.4-96.8-72.7-90.6-133.1 6.5-63.5 23.3-124.1 52.1-181.2 8.7-17.3 19.2-33.5 33.7-46.6 8.5-7.7 18.3-13.2 29.6-15.6 14.5-3 27.7 0.6 39.8 8.6 11.6 7.6 20.5 17.9 28.4 29.1 4 5.7 7.6 11.7 11.1 17.7 7.6 13.2 5.5 22.4-6.7 31.3-5.7 4.5-15.1 3.9-21.6-1.4-2.7-2.2-4.9-4.9-6.7-8-4.7-8.4-9.8-16.6-16-24.1-3.5-4.3-7.5-8-12.3-10.9-4.1-2.4-8.1-2.9-12.2-0.3-8.9 5.2-14.8 13.3-20.4 21.6-11.9 17.7-20.3 37-27.7 56.9-14 37.5-23.7 76.2-29.3 115.9-3.4 23.9-0.6 46.6 13.5 66.8 18.2 25.8 43.6 37.7 75 36.7 7.7-0.2 15.1-2.1 22.4-4.7 31.4-11.7 49.8-34.3 55.7-67.1 3.2-17.9-0.7-35.5-3.6-52.9-3.5-20.5-8.4-40.7-14.5-60.6-1.7-5.6-3.4-11.1-1.4-17.1 2.2-6.7 8.1-12.4 14.1-13 13.3-2.8 22.2 2.6 26.1 15.7 9.1 30.4 16 61.3 20.3 92.8 8.3 59.9-20.7 114.5-74 137.8-11.8 5.2-24 8.7-36.9 9.6-0.7 0.1-1.3 0.1-1.5 0.9-8.5 0.1-17.2 0.1-25.9 0.1zM102.4 452.4c2-3.6 1.5-7.6 1.9-11.4 5.3-57.2 21.9-111 49.4-161.4 5.4-9.9 15.3-12.5 27.6-7.9 7.1 2 12.3 11.5 11.1 20-0.7 4.4-2.6 8.2-4.6 12-15.1 28.2-26.3 57.8-33.7 88.8-5.1 21.6-8.4 43.4-9.4 65.6-0.3 6-1 11.9-0.9 17.9 0 1.5-0.2 3-1.2 4.2-1.3 11.3-7.7 18.5-17.6 19.8-9.4 1.3-17.2-3.7-21.6-13.8-0.2-0.4-0.6-0.7-0.9-1v-7c0.8-2.7 0.8-5.3 0-8v-6c0.8-0.8 0.4-1.9 0.5-2.9v-1.8c-0.1-0.8 0.2-1.6-0.5-2.3-0.1-1.5-0.1-3.1-0.1-4.8z" fill="#030000" /><path d="M102.4 470.4c1.6 2.7 1.5 5.3 0 8v-8z" fill="#191616" /><path d="M508.7 62c-2.3 1.5-4.7 1.7-7 0h7z" fill="#2B2828" /><path d="M535.7 62c-2.3 1.7-4.7 1.4-7 0h7z" fill="#2E2B2B" /><path d="M939.1 473.4c-1.5-2.3-1.7-4.7 0-7v7z" fill="#252222" /><path d="M496.8 62c-1.1 1.6-2.6 0.9-4 0.9-0.3-0.2-0.4-0.4-0.3-0.6 0.1-0.2 0.2-0.3 0.3-0.3h4z" fill="#858383" /><path d="M543.7 62c-1.3 1.7-2.7 1.4-4 0h4z" fill="#888686" /><path d="M103.2 461.4c0.1 1.1 0.5 2.3-0.9 3v-3c0.3-0.4 0.6-0.5 0.9 0z" fill="#615F5F" /><path d="M492.8 62v0.9c-0.8 0.1-1.7 0.4-2-0.9h2z" fill="#AAA9A9" /><path d="M102.4 457.4c1.2 0.2 1 1.1 0.8 2-0.3 0.5-0.5 0.5-0.8 0v-2z" fill="#939292" /><path d="M939.1 459.4c-1.3-0.7-1.5-1.3 0-2v2z" fill="#929191" /><path d="M102.4 459.4h0.8v2h-0.9c0.1-0.7 0.1-1.3 0.1-2z" fill="#7B7979" /><path d="M142.5 480.4c-0.2-48.1 8.7-94.5 26.3-139.2 5.4-13.6 11.6-26.8 18.5-39.7 6.6-12.5 4.8-21-6-29.7 6-9.6 12.3-19 19.1-28.1 1.6-0.6 2.9 0.4 4.3 0.9 9.7 3.6 16.2 2.3 23.2-5.8 9.1-10.6 18.8-20.6 28.6-30.5 10.3-10.4 21.5-19.8 32.9-28.8 8.8-7 10.6-14 6.9-24.6-0.4-1.1-1.1-2.1-0.5-3.3 10-6.4 19.9-13.1 30.4-18.7 8.8 12 17.6 14.1 30.6 7 43.1-23.6 89.3-35 138.3-37.3 59.4-2.8 117.1 4.8 171.6 28.7 118.7 52.2 193.6 141.6 223.8 268 6.4 26.6 9 53.7 8.7 81.1H780.7c-1.7-1.3-1.4-3.3-1.5-5.1-1.5-38.4-10.2-75-27.9-109.3-3.6-7-7.4-13.8-11.6-20.4-5.8-9.2-14.2-12.1-24.4-8.4-0.9 0.3-1.9 0.7-2.9 0.8-3.9-0.7-5.2-4.3-7.5-6.9-11.1-12.7-22.9-24.8-36.2-35.3-1.8-1.4-4-2.4-4.8-4.9-0.2-1.7 0.7-3.2 1.2-4.8 2.9-9 0.4-17-7.6-22.2-13.7-9-28.4-16.1-43.6-21.9-23.6-9-48-14.4-73.3-16.2-70.5-4.8-132.7 16-186.5 61.3-35.8 30.2-60.7 68.1-76 112.2-7.1 20.5-11.4 41.7-12.7 63.4-0.3 4.6-1 9.2-1 13.9 0 1.3-0.1 2.7-1.4 3.6-40.2 0.2-80.4 0.2-120.5 0.2z" fill="#EC8B1C" /><path d="M664.3 291.4c5.9 3.5 11 8 15.9 12.6 11.2 10.4 21.9 21.2 31.2 33.4-0.1 1.6-1.2 2.7-2.1 3.8-5.8 7.6-6.3 15.9-1.1 24.1 16.3 25.7 26.5 53.6 31.1 83.6 1.4 9.2 2.7 18.4 2.6 27.8 0 1.9 0.3 4.1-1.5 5.5h-437c-2.7-3.2-1.6-7-1.4-10.5 1.4-20.5 4.6-40.6 11.5-60 19.1-53.7 53.2-94.9 103.3-122.6 25.2-13.9 52.2-22.5 80.8-25.6 49-5.3 94.9 4.7 137.3 29.9 7.4 4.4 14.8 6.8 22.9 1.9 2.1-1.1 3.5-3.8 6.5-3.9z" fill="#FEDD5D" /><path d="M664.3 291.4c-9.6 9.8-17.7 10.8-29.8 3.6-41.9-25-87.2-35.1-135.7-30.1-97.9 10-177.5 85.8-192.9 183.3-1.8 11.3-3 22.7-2.7 34.3-1.4 12.5-9.4 20.2-20.6 19.9-11.4-0.2-18.8-8.5-19.6-21.9 0.7-36.8 7.7-72.4 23.7-105.7 39.6-81.9 104.2-131.9 193.9-147.4 61.9-10.7 120.3 1.4 174.5 33.5 13 7.6 15.7 16.9 9.2 30.5zM740.2 482.4c0.2-41.4-10.9-79.6-32.4-114.8-2.9-4.8-5.2-9.5-4.7-15.4 0.6-6.2 3.7-10.9 8.3-14.7 13-6.4 22.5-3.7 30 8.5 24.9 40.3 37.8 84.1 38.9 131.5 0 1 0.1 2 0.2 3-0.7 11.4-5.3 18.3-14.3 21-12.8 3.8-24.3-4.6-26-19.1z" fill="#030000" /><path d="M515.9 622.1c4.4-3.3 8.8-2 12.9 0.5 6.8 4.1 11.8 10.1 16.5 16.3 4.2 5.6 7.8 11.5 11.2 17.6 6.9 12.3 14.4 15.4 28 11.5 5.9 12.3 10.6 25 15.1 37.8-12.2 6-16 14.4-12.1 27.3 8.3 27.7 14.7 55.8 18.6 84.5 4.4 31.8-2.4 59.8-26.5 82.3-8.7 8.1-18.6 14.5-30.2 17.7-0.4-2.6 1.6-3.9 3.1-5.3 19.1-17.8 29.4-40 32.2-65.8 1.4-12.5-0.1-24.9-1.9-37.3-6.6-44.8-18.7-88.2-35.7-130.1-7.9-19.3-17.4-37.7-30.2-54.4-0.4-0.7-1-1.6-1-2.6z" fill="#1C8EF0" /><path d="M295.6 151.5c6.4 10.6 4.8 20.8-4.8 28.2-22.8 17.7-43.5 37.6-62 59.8-7.9 9.4-16.7 10.5-28.5 4.1-10.1-10.9-10.2-20.1-0.5-31.6 19.7-23.5 41.7-44.6 65.9-63.3 10.4-8 21.2-7.1 29.9 2.8z" fill="#030000" /><path d="M515.9 622.1c7.3 6.8 11.9 15.5 16.7 24 18.7 33.1 30.2 68.9 39.9 105.3 5.7 21.4 10 43.2 12.9 65.2 4.2 31.6-1.6 60.8-21.9 86.2-4.2 5.3-9.3 10-13.9 14.9-24.5 8.8-48.4 6.6-70.4-6.5-31.9-18.9-46.3-47.9-42.6-84.7 5.5-54.6 20.3-106.7 43.4-156.5 5.4-11.8 11.9-23 19.9-33.3 4.4-5.8 9.3-11.3 16-14.6z" fill="#69CAFE" /><path d="M536.1 307.6c-39.3 0.7-75.6 11.6-108.6 32.9-3.3 2.1-6.7 3.1-10.2 0.8-2.8-1.8-3.9-4.4-3.4-7.7 0.4-2.9 2.2-4.7 4.5-6.2 24.1-15.8 50.2-26.4 78.4-31.8 15.4-2.9 30.9-4.4 46.6-4 6.8 0.2 10.9 5 8.9 10.6-1.4 3.7-4.2 5.4-8.1 5.4h-8.1zM353.3 414.4c-7.2 0.1-11.4-6.1-8.3-11.5 8.9-15.7 20.2-29.6 33.1-42.1 3.3-3.2 7.7-2.8 10.7 0.2 3.1 3.2 3.1 7.9-0.4 11.6-7.3 7.9-14.5 15.9-20.8 24.8-2.9 4.1-5.7 8.2-8.3 12.4-1.7 2.8-3.9 4.4-6 4.6zM477 758.8c7 0 10.4 4.5 8.9 10.3-3.1 12.2-6.2 24.4-8.2 36.9-2.3 13.6-3.9 27.3-3.8 41.1 0 3.7-0.8 7-4.5 8.8-5.6 2.8-11.3-1.1-11.5-7.9-0.3-11 0.9-21.9 2.2-32.8 2-16.3 5.7-32.3 9.9-48.2 1.2-4.4 3-8.2 7-8.2zM518.7 684.8c0.2 1.9-0.7 3.6-1.5 5.2-4.8 9.4-9.4 19-13.5 28.8-2.4 5.8-6.6 7.9-11.3 5.9-4.4-1.8-5.8-6.3-3.4-11.9 4.4-10.6 9.2-21 14.5-31.1 1.9-3.7 5-5.4 9.1-4.4 3.8 0.9 5.8 3.6 6.1 7.5z" fill="#FEFEFE" /></svg>