<?xml version="1.0" standalone="no"?>
<!DOCTYPE svg PUBLIC "-//W3C//DTD SVG 1.1//EN" "http://www.w3.org/Graphics/SVG/1.1/DTD/svg11.dtd">
<svg class="icon" style="width: 1em; height: 1em;vertical-align: middle;fill: currentColor;overflow: hidden;" viewBox="0 0 1024 1024" version="1.1" xmlns="http://www.w3.org/2000/svg"><path d="M959.6 363.9c-2 2.4-2 5.6-3.3 8.2-5.1 10.5-13.4 17.4-23.4 22.7C887.4 418.9 842 443 796.6 467c-30.2 16-60.3 32-90.5 47.9-12.4 6.5-20.9 4.7-29.3-6.3-4.5-5.7-4.2-14.3 0.8-21 2-2.7 4.5-5.1 7.5-6.7 21.5-11.3 42.9-22.7 64.3-34.1 30.4-16.2 60.8-32.2 91.2-48.4 18.7-10 37.5-20 56.3-29.7 5.6-2.9 10.9-6.1 16.6-8.9 3.5-1.7 3.4-2.6 0-4.7-8.2-4.9-16.8-8.7-25.1-13.5-36.7-19.4-73.3-38.9-109.9-58.3-23.9-12.6-47.7-25.3-71.6-37.9-29.4-15.5-58.8-31.1-88.2-46.8-17.6-9.4-35.2-18.7-52.9-27.9-12.1-6.3-24-13.2-36.3-19.1-21.8-10.6-43.2-9.2-64.2 2.2-9.8 5.3-19.5 10.6-29.4 15.5-8.2 4.1-15.9 2.9-23-2.7-1.9-1.5-3.6-3.3-3.6-6-4.5-14.1-1.5-21.4 11.7-28.4 10.1-5.3 20-10.9 30.2-15.9 32.2-15.9 64.9-16.6 96.7 0.1 106.9 56.2 213.5 112.9 320.2 169.5 19.8 10.5 39.5 21.3 59.6 31.5 15.2 7.7 27.5 17.4 31.7 34.8v1c-0.8 2.9-0.8 5.8 0 8.7 0.2 0.8 0.2 1.4 0.2 2z" fill="#030000" /><path d="M809.6 697.5c12.4 1.6 18.7 8.7 18.7 21.4 0 30.5-0.2 61.1 0.1 91.6 0.1 15.5-5.3 28.5-15.7 39.6-14.6 15.6-33.2 25.1-52.6 33-32.4 13.3-66.3 21.1-100.6 27-37.9 6.5-76.1 10.1-114.5 11.7-0.9 0-2-0.4-2.3 1H534c-1.9-0.8-3.9-0.8-5.8 0h-1.9c-2-1.1-4.1-0.2-6.1-0.5h-6.4c-2.9 0.3-5.9-0.6-8.7 0.5h-14.5c-1.9-1-4-0.2-6-0.5h-10.2c-2.3 0.2-4.7-0.6-6.9 0.5h-11.6c-0.9-1.8-2.6-0.9-3.8-1-35.1-1.8-70.2-4.7-104.9-10.4-13-2.2-18.6-9.5-17.9-23.3-1.1-4 1.3-6.9 3.6-9.4 4.9-5.5 11.2-8.2 18.6-7 18.1 2.9 36.3 5.2 54.5 6.9 16.9 1.5 33.9 2.7 50.9 3.4 16.5 0.6 33.1 1 49.6 0.9 58.2-0.4 115.9-5.2 172.8-17.2 22-4.6 43.8-10.4 64.7-19 13.1-5 25.5-11.2 36.3-20.5 5.7-4.9 8.5-10.6 8.4-18.4-0.4-29.7-0.1-59.4-0.2-89.1 0-7.4 2.6-13.5 8.4-18.1 3.5-3.3 7.8-4.9 12.7-3.1z" fill="" /><path d="M959.6 362c-1.6-2.9-1.5-5.8 0-8.7v8.7z" fill="#363434" /><path d="M504.9 922.9c2.7-1.9 5.8-0.6 8.7-0.9 0.3 0.2 0.4 0.4 0.3 0.6-0.1 0.2-0.2 0.3-0.3 0.3h-8.7z" fill="#111111" /><path d="M467.2 922.9c2-2.1 4.5-0.5 6.7-0.8 0.4 0.2 0.5 0.3 0.4 0.5s-0.2 0.3-0.3 0.3h-6.8z" fill="#5D5D5D" /><path d="M513.6 922.9c0-0.3 0-0.6 0.1-0.9 2.3 0 4.5 0 6.8 0.1 0.3 0.2 0.3 0.4 0.2 0.6-0.1 0.2-0.2 0.3-0.3 0.3-2.3-0.1-4.6-0.1-6.8-0.1z" fill="#292929" /><path d="M474 922.9c0-0.3 0-0.6-0.1-0.8 1.9 0 3.9-0.1 5.8-0.1 0.3 0.2 0.4 0.4 0.3 0.6-0.1 0.2-0.2 0.3-0.3 0.3H474z" fill="#3B3B3B" /><path d="M484.6 921.9c1.9 0.3 4.1-0.8 5.8 1h-5.8c-0.3-0.2-0.4-0.4-0.3-0.6 0.1-0.3 0.2-0.4 0.3-0.4z" fill="#101010" /><path d="M520.3 922.9c0-0.3 0-0.6 0.1-0.9 1.9 0.2 4.1-1 5.7 0.9h-5.8z" fill="#4B4B4B" /><path d="M528.1 922.9c1.9-1.4 3.9-1.6 5.8 0h-5.8z" fill="#7C7C7C" /><path d="M484.6 921.9v1h-4.8v-0.9c1.6-0.1 3.2-0.1 4.8-0.1z" fill="#232323" /><path d="M409.3 160.8c9.3 11.2 16.8 12.7 29.9 5.7 9.6-5.1 19.2-10.3 28.9-15.3 21.1-10.8 42.4-11 63.3 0.1C649.3 213.7 767.1 276.2 885 338.7c1.4 0.8 2.8 1.6 4.2 2.3 1.2 2.4-0.5 4-1.8 5.5-3 3.5-6.8 5.9-10.8 8-22.4 11.9-44.9 23.8-67.3 35.7-30.2 16.1-60.5 32.1-90.7 48.2-17 9-34.1 18.1-51.1 27.1-31 16.4-61.9 32.8-92.9 49.2-19.2 10.2-38.3 20.4-57.6 30.4-11.9 6.1-23.2 13.2-35.6 18.2-3.6 1.4-7.1 3.1-11.2 2.4-10.7-4.2-20.4-10.2-30.5-15.5-13.1-6.9-26.1-13.9-39.2-20.8-36.8-19.5-73.5-39.1-110.3-58.5l-72-38.1c-29.4-15.6-58.8-31.1-88.2-46.8-14.2-7.6-28.3-15.2-42.7-22.5-2.8-1.4-6.9-2.4-7.1-5.8-0.2-3.7 4.2-4.3 6.9-5.8 16.8-9.1 33.8-18 50.7-26.9 8.7-4.6 12-12.1 10.3-21.8-0.2-1.3-1.4-2.7-0.1-4 26.7-14.2 53.4-28.4 80.1-42.5 1.7-0.1 2.4 1.3 3.4 2.4 6.6 7 14.7 8.3 23.2 3.9 25.8-13.4 51.4-27.2 77.1-40.7 16.2-8.5 32.3-17.2 48.5-25.7 10.5-5.5 13.3-11.6 11.3-23.2-0.2-1.1-0.5-2.2 0.2-3.3 5.8-3.2 11.7-6.2 17.5-9.3z" fill="#FEDD5D" /><path d="M744.3 847.7c-16.6 7.5-34.1 12.1-51.7 16.3-74 17.3-149.2 22-224.9 19.8-33.4-1-66.7-3.5-99.9-8.1-4.8-0.7-9.5-1.4-14.3-2.1-13.1-1.8-20 2.4-24.5 14.6-8.7-2-17.4-3.9-26.1-5.9-1.2-1.3-1-3-1.2-4.6-1.1-8.9-5.8-14.6-14.6-17.1-18.8-5.3-37.1-11.8-54.3-21.1-8-4.3-15.3-9.5-21.3-16.4-3-3.4-4.4-7.3-4.4-11.9V558.3c0-2.8 0.4-5.5 1.2-8.1 1.8-5.5 5.4-7.2 10.9-5.1 4.4 1.7 8.2 4.5 12.4 6.5 19.1 9.3 37.8 19.3 56.7 29 35.4 18.1 70.6 36.4 106 54.4 20.3 10.4 40.5 21.1 60.9 31.3 16.9 8.4 35.1 9.6 53.6 8.7 18.8-0.9 35-8.7 51.1-17.5 17.1-9.3 34.4-18.1 51.7-27 43.9-22.6 87.5-45.8 131.4-68.3 4.3-2.2 8.4-4.8 12.8-6.7 1.8-0.8 3.8-2.2 5.5 0.4 1 2.7 0.7 5.4 0.7 8.1v248.4c0.3 15-5.2 26.9-17.7 35.3z" fill="#69CAFE" /><path d="M760.6 554.9c-13.6 6.9-27.2 13.8-40.7 20.8-57.2 29.8-114.6 59.4-171.6 89.5-19.2 10.1-39.3 12.3-60.2 11-14.7-0.9-28.1-5.6-41.1-12.3C372.1 625 297 586.6 221.9 548c-1.1-0.6-2.3-1.2-3.4-1.7-4.5-1.8-7.5-0.5-8.8 4.2-0.8 2.9-1.1 6-1.1 9.1v252.3c0 4.4 1.7 7.7 4.4 10.9 7 8.1 16 13.4 25.3 18.1 15.3 7.9 31.6 13.3 48.1 18.2 12.6 3.7 17.2 10 16.7 23.3-5.3 13.7-13.7 17.7-28.1 13.6-21.5-6.2-42.4-13.7-61.9-24.8-12.1-6.9-23.2-15-31.8-26.2-7.5-9.8-11.2-20.7-11.2-33.1 0.1-83.8 0.1-167.6 0-251.5 0-8.6 1.1-17 4.1-25.1 7.4-19.6 26.1-30.7 47-28 5.8 0.8 11.1 2.5 16.4 5.2 76.6 39.5 153.2 78.7 229.7 118.3 13.1 6.8 26.5 7.9 40.7 7 8.6-0.6 16.5-3.4 24.1-7.4 75.3-39.4 150.6-78.9 226.3-117.7 21.5-11 43.7-7.2 58 9.7 8.2 9.7 11.7 21.5 12 33.9 0.5 22.4 0.3 44.7 0.1 67.1-0.1 10.6-7.5 17.7-19.2 19-5.7 2.2-10-0.8-13.8-4.2-4.8-4.2-6.9-9.8-6.9-16.3 0.1-19.7 0-39.4 0-59.2 0-3.7-0.3-7.4-1.4-10.9-1.1-3.7-3.5-5.1-7.3-4.3-3.7 0.8-6.9 2.4-10.1 4.3-3.1 1.3-5.7 3.5-9.2 3.1z" fill="" /><path d="M148 299.2c4.5 12.5 1.2 21-10.5 27.3-17 9-34 18-51.1 27.1-2.1 1.1-4.1 2.4-6.5 3.7 1.2 1.8 2.8 2.4 4.3 3.2 128.2 68 256.4 135.9 384.7 203.9 0.4 0.2 0.9 0.3 1.4 0.5 10.6 3.4 21.2 6.1 32.5 5.5 9.8-0.5 19-2.5 27.7-7.3 23.4-12.8 47.1-24.9 70.5-37.5 9.1-4.9 19.2-3.4 25.7 3.5 1.3 1.4 2.8 2.7 2.5 4.9 4.3 13.4 1.2 21.2-11.3 27.8-23.4 12.4-46.6 25.2-70.2 37-31.8 16-64.4 16.6-95.9 0C347.9 544.3 244.3 489 140.6 434c-1.5-0.8-3.1-1.5-5.2-2.6V644c0 3.1 0.5 5.3 3.3 7.3 14 10.3 19.3 28.1 13.8 44.2-5.6 16.3-21 26.9-38.6 26.5-16.5-0.3-31.5-11.7-36.4-27.5-5.2-16.6 0.8-34.3 15.3-44.1 3.3-2.2 4.1-4.5 4.1-8.2-0.1-75.6-0.1-151.2 0-226.8 0-3.6-1-5.4-4.2-7-9.7-4.9-19.4-10-28.9-15.3-12.8-7.2-22-17.3-23.5-32.6-1-10.5 2.7-19.6 9.5-27.4 4.6-5.3 10.2-9.2 16.4-12.5 17.9-9.4 35.7-18.9 53.6-28.3 11.6-6.2 20.5-4 28.2 6.9z" fill="#030000" /><path d="M629.3 533.9c-8.3-11-17-12.9-29.3-6.4-23.8 12.6-47.3 25.7-71.4 37.7-19.1 9.5-38.9 9.1-58.3-0.3 8.1-0.6 15.1-4.2 22-7.9 18.7-9.9 37.4-19.9 56.1-29.9 45.6-24.1 91.1-48.2 136.7-72.3 24.6-13 49.1-26.1 73.6-39.1 39-20.7 78.1-41.3 117.1-62.1 5.5-2.9 11.1-6 13.3-12.5 10.1 5.3 20.1 10.6 30.3 15.9-1.9 2.9-4.5 3.6-6.7 4.8-74.9 39.7-149.9 79.5-224.9 119.1-8.2 4.3-13.5 10.2-13.2 20 0.1 2.8 1.4 5.3 2 7.9-15.7 8.3-31.5 16.7-47.3 25.1z" fill="#EC8B1C" /><path d="M760.6 554.9c5.8-3.4 11.4-7.1 18-8.9 6.3-1.7 8.5-0.2 10 6.1 0.7 3 1.1 6 1.1 9.1-0.1 19.7 0 39.5 0 59.2 0 13.1 6.4 20.3 19.3 21.8v50.7c0 1.6-0.4 3.2 0.6 4.7-13.1 0.8-20 8.2-20 21.6 0 30.6-0.1 61.1 0.1 91.7 0 4.9-1.5 8.8-4.6 12.2-7.5 8.3-16.9 13.8-26.7 18.7-4.6 2.3-9.1 4.7-14.1 6 4.6-5.7 10.3-10.6 13.2-17.6 1.7-4 3.2-8.1 3.2-12.5 0-87.6 0-175.2-0.1-262.8z" fill="#1C8EF0" /><path d="M391.7 170c4.3 13.4 1.1 21.2-11.4 27.8l-123 65.1c-12.4 6.6-21 4.7-29.3-6.3-4.4-13.4-1.2-21.2 11.2-27.8 41.1-21.8 82.1-43.5 123.2-65.3 12.4-6.5 21.1-4.6 29.3 6.5z" fill="#030000" /><path d="M378.1 244.3c-0.4 3.6-2.1 6-5.3 7.7-23.1 12.3-46.2 24.6-69.3 37-36.6 19.5-73.1 39.1-109.7 58.6-5.5 2.9-9.2 2.3-11.8-1.8-2.7-4.3-1.2-8.8 4-11.5 13.3-7.2 26.6-14.3 40-21.4 45.8-24.5 91.6-49 137.3-73.4 3.5-1.9 7-4.3 11.2-1.5 2.2 1.5 3.3 3.8 3.6 6.3zM486.9 174.5c4.3 0 6.6 1.9 7.6 5.4 1.2 4-0.5 7-3.8 9-5 2.9-10.2 5.5-15.3 8.2-13.9 7.4-27.8 14.8-41.6 22.3-5.4 2.9-9.8 2.1-12.1-2.1-2.4-4.3-0.7-8.5 4.6-11.4 18.3-9.8 36.5-19.5 54.8-29.3 2.1-1.2 4-2.4 5.8-2.1zM235.5 733.6v-57.9c0-3.4 0.6-6.4 3.6-8.4 5.3-3.3 11.6 0.3 11.8 7 0.2 8 0.1 16.1 0.1 24.1v91.1c0 1.3 0.1 2.6 0 3.9-0.3 4.9-3.5 8-8 7.8-4.3-0.1-7.3-3.2-7.4-7.9-0.1-8.4 0-16.7 0-25.1-0.1-11.5-0.1-23.1-0.1-34.6zM251 616.3c0 4.3 0.1 8.7 0 13-0.2 4.9-3.5 8-7.9 7.8-4.3-0.1-7.3-3.2-7.4-7.9-0.1-8.7-0.2-17.3 0-26 0.1-4.6 3.4-7.6 7.7-7.6s7.5 3 7.7 7.6c0 4.4-0.1 8.7-0.1 13.1z" fill="#FEFEFE" /><path d="M114.9 706.7c-13.1 0-23.9-10.8-23.9-23.9-0.1-12.9 10.8-23.9 23.9-24 13.3-0.1 24.3 11 24.1 24.2-0.1 13.2-10.9 23.8-24.1 23.7z" fill="#69CAFE" /></svg>