<?xml version="1.0" standalone="no"?>
<!DOCTYPE svg PUBLIC "-//W3C//DTD SVG 1.1//EN" "http://www.w3.org/Graphics/SVG/1.1/DTD/svg11.dtd">
<svg class="icon" style="width: 1em; height: 1em;vertical-align: middle;fill: currentColor;overflow: hidden;" viewBox="0 0 1024 1024" version="1.1" xmlns="http://www.w3.org/2000/svg"><path d="M686.3 595.4c-0.8 9.9-6.1 16.1-14.9 20.5-10.7 5.3-21.3 10.6-32.4 14.9-2.4 0.9-4.4 2.1-6.1 4.2-28.1 35.8-48.5 75.3-56.1 120.6-9.6 57.3 0.9 111.2 29 161.9 1.5 2.6 3.3 3.2 6 3.2 24.1-0.1 48.1-0.1 72.2 0 9.6 0 17.2 6.1 19.6 15.1 2.3 8.6-1.3 17.5-8.9 22.2-3.7 2.3-7.7 3-12 3-21.5-0.1-43.1 0-64.6 0H260.8c-14.3 0-23.8-10.1-21.8-23.3 1.4-10 9.7-17 20.5-17.1 27.2-0.1 54.5 0 81.7 0 26.1 0 52.1-0.1 78.2 0.1 3.1 0 4.5-0.9 5.8-3.9 16.3-37.3 27.3-75.9 27.4-116.8 0.2-70.5-26.6-128.9-80.3-174.8-1.5-1.3-3.3-2.2-5.1-3.1-71.7-35.6-121.7-90.9-149.3-166.1-1.2-3.1-2.7-3.8-5.8-3.8-16.8 0.1-33.7 1.1-50.1-3.5-51-14.4-82-47.5-92.7-99.5-0.4-2 0.2-4.4-1.8-5.9v-4c0.6-0.7 0.6-1.3 0-2V150.6c2.6-2.2 5.7-1.6 8.7-1.6h116.5c5.9-0.1 6.3-0.4 6.3-6.3V72.6c0-3-0.6-6.1 1.6-8.7h77.7c11.2 2.7 16 8.5 17.2 20.9-2.2 13.9-10.3 20.8-24.5 20.9h-22.2c-6.2 0-6.4 0.3-6.4 6.6v243.3c0.1 60.8 18.8 115.2 57.7 162 42.8 51.5 97.7 82.4 164.5 89.8 40.3 4.4 80.9 4.7 121-3.7 17.3-3.6 34.1-9.3 50.2-16.7 7.3-3 14.1-6.9 21.2-10.3 12-5.9 26.7 2.4 29.2 14.3 0.6 1.2 1.4 2.9 0.1 4.4zM825.7 63.6c0 27.4 0.1 54.8-0.1 82.2 0 3.7 0.8 4.7 4.6 4.7 40.2-0.2 80.4 0 120.6-0.2 4.1 0 5.2 0.9 5.2 5.1-0.2 57.5-0.1 115-0.1 172.6-0.1 61.9-44.6 113.7-105.7 123-12 1.8-24.2 1.3-36.3 1.2-3 0-4.4 0.9-5.3 3.7-5.5 16.1-12.9 31.2-20.9 46.2-4.6 8.5-10.7 14-20.7 14.6-9.3 1.6-19.1-6.3-20.4-16.5-0.7-5.8 0.1-11.3 3.2-16.5 18.1-31.3 29.1-65 32.6-101 0.7-7.5 1.4-15 1.4-22.6-0.1-81.9-0.1-163.8-0.1-245.7 0-8.8 0-8.8-8.9-8.8-3.7 0-7.4-0.1-11.1 0-9.9 0.2-17.2-3.9-21.6-12.8-1.5-2.9-1.8-6.1-1.6-9.3 0.5-10.8 5.9-17.2 16.5-19.8 22.9-0.1 45.8-0.1 68.7-0.1z" fill="" /><path d="M324 63.6h330.1c11.5 2.2 17 8.9 17.5 21.5-2.2 13.8-9.9 20.4-24.3 20.4-46.6 0.1-93.2 0-139.8 0H329.8c-13.5-0.3-21.2-7-23.4-20.3 0.6-12.5 5.7-18.8 17.6-21.6z" fill="" /><path d="M67.6 337.1c1.1 0.7 1.4 1.3 0 2v-2z" fill="#696969" /><path d="M743 91.8c4.9 8.9 12.4 12.8 22.4 12.2 4.7-0.3 9.4 0.2 14.1-0.1 4.4-0.3 5.9 0.8 5.9 5.6-0.3 24.9-0.1 49.8-0.1 74.7 0 58.4 0.2 116.7-0.1 175.1-0.2 44.4-11.6 86-33.7 124.5-6.3 11-4.8 21.9 3.9 28.5 3.5 2.7 7.6 3.4 11.6 4.4-20.8 32.5-47.6 58.8-80.7 78.8-1.6-10.5-6.9-17.6-17.9-19.5-4.9-0.9-9.3 0.7-13.5 2.9-5.9 3.1-11.6 6.6-18 8.7-0.3-2.5 1.7-3.5 3.3-4.6 31.8-23.2 56.8-52.3 74.7-87.3 12.8-25 21-51.6 24.5-79.6 1.6-12.9 2.1-25.8 2.1-38.7-0.1-92.3-0.1-184.6 0-276.8 0-3-0.9-6.2 1.5-8.8z" fill="#EC8B1C" /><path d="M821.5 960.9h-52.4c-12.6 0-21.6-8.6-21.4-20.4 0.1-11.5 9-19.9 21.4-20H874c12.6 0 21.6 8.7 21.5 20.4-0.1 11.5-9.1 19.9-21.4 20-17.7 0.1-35.2 0-52.6 0zM176.3 920.6c8.1 0 16.1-0.1 24.2 0 12.2 0.1 21 8.8 20.9 20.4-0.1 11.4-8.9 19.9-20.8 20-16.5 0.1-32.9 0.1-49.4 0-12.1-0.1-21.1-8.8-21-20.4 0.1-11.3 9-19.9 20.9-20 8.4-0.1 16.8 0 25.2 0z" fill="" /><path d="M743 91.8c0 43.6-0.1 87.1-0.1 130.7 0 54.5 0.1 109 0 163.5-0.1 38.4-8.9 74.8-26.1 109.1-10.5 21-23.9 40-40 57.2-11.7 12.4-24.3 23.6-38.2 33.4-0.7 0.5-1.1 1.2-1.7 1.8-17.8 9-36.7 15.2-56.3 18.2-49.7 7.6-99.9 10.1-148.6-3.5-100.5-28-162.3-94.3-185.8-196-3.8-16.4-5-33.2-5-50.1 0-82.2 0.1-164.5-0.1-246.7 0-4.8 1.4-5.8 5.8-5.6 7.6 0.4 15.1 0.1 22.7 0.1 15.8 0 21.9-4.9 25.1-20.2h13c1.9 13.7 9.2 20.2 22.9 20.2h316.8c13.7 0 21.2-6.6 22.9-20.2H736c1.8 0 3.7-0.2 5.5-0.3 0.5 2.9 1 5.7 1.5 8.4z" fill="#FEDD5D" /><path d="M447.4 647.7c42.6 5 84.7 4.6 127.4 0.7-24.6 41.6-39.3 86-41.4 134.1-2.2 48 7.7 93.8 28.4 137.7h-93.9c17.7-45 27.9-91 24.9-139.4-3-48.4-18.3-92.6-45.4-133.1zM126.2 190.9c23.9-0.1 47.7-0.1 71.6-0.2 2.9 0 3.3 1.2 3.2 3.6-0.1 4.7 0 9.4 0 14.1 0 48.5 0.1 97.1 0 145.6 0 18.2 1.3 36.2 4.5 54.1 0.5 2.9 0.2 3.6-2.9 3.7-14.7 0.4-29.2-0.7-43-6.3-18.2-15.2-28.4-35-32.9-57.9-1.2-6.1-1.8-12.3-1.8-18.5 0.1-43.3 0-86.7 0.1-130-0.3-2.7-1-5.7 1.2-8.2z" fill="#1C8EF0" /><path d="M126.2 190.9v136c0 29 9.8 54 30.5 74.6 1.2 1.1 2.8 2 2.7 4-22.5-10.2-38.4-26.5-46.8-49.9-2.9-8.3-4.6-16.9-4.6-25.7 0-45 0-90.1-0.1-135.1 0-3.2 0.7-4.4 4.1-4.2 4.7 0.4 9.4 0.3 14.2 0.3z" fill="#69CAFE" /><path d="M860 406.7c-12.6 5.2-25.7 5.5-39.5 5 6.5-30.8 5.1-61.8 5.1-92.7 0.1-41 0.1-82.1-0.1-123.1 0-4.2 1-5.3 5.2-5.2 21.5 0.3 43 0.2 64.6 0.3 1.7 1.8 1.5 4 1.5 6.2 0 45.1 0.5 90.2-0.2 135.2-0.4 26-10.3 48.8-28.3 67.8-2.5 2.5-5.4 4.5-8.3 6.5z" fill="#1C8EF0" /><path d="M860 406.7c9-9.1 17.5-18.5 23.4-30 5.6-11 9.8-22.5 10.9-34.8 2.3-26.5 0.7-53 1-79.5 0.3-23.8 0.1-47.7 0.1-71.5 5.2-0.1 10.4 0.2 15.6-0.3 3.9-0.3 4.7 1 4.6 4.7-0.2 34.1 0 68.3-0.1 102.4-0.1 14.3 1.4 28.7-1 42.8-5.7 32.3-23.6 54.6-54.5 66.2z" fill="#69CAFE" /><path d="M287.8 283.6c-0.7 27.7 0.7 57.2 1.1 86.8 0.3 26.8 8.2 51.8 18.8 76.2 0.9 2 1.9 3.9 2.8 5.9 2 4.8 0.6 9.3-3.3 11.2-4.4 2.1-8.9 0.5-11.3-4.3-6.3-12.5-10.9-25.6-15.1-38.9-6-18.6-7.6-37.7-8.2-57.1-1.3-43.5-0.8-87-0.9-130.6 0-6.5 1.9-9.8 6.2-10.8 5.6-1.3 10 2.4 10 8.7-0.1 17.1-0.1 34-0.1 52.9zM288.5 170.2v28.3c0 2-0.2 4-0.7 6-1 4-3.8 5.8-7.8 5.7-3.8-0.1-6.2-1.9-7.5-5.6-1.4-4-0.1-8-0.1-12l0.3-48.9c0-1.5-0.1-3.1 0.2-4.5 0.9-4.4 4.6-7.2 8.6-6.9 4.2 0.4 7.2 3.5 7.3 8.2 0.1 9.9 0 19.8 0 29.8-0.1-0.1-0.2-0.1-0.3-0.1zM363.4 523.3c0 2.6-1.4 5.1-4.4 6.7-3 1.6-6 1.4-8.5-0.7-10-8.2-19.2-17.2-27.2-27.4-2.7-3.4-1.8-8.5 1.2-10.9 3-2.5 8.3-2.5 11 0.7 8 9.1 16.4 17.7 25.6 25.5 1.5 1.3 2.2 3.3 2.3 6.1z" fill="#FEFEFE" /></svg>