<?xml version="1.0" standalone="no"?>
<!DOCTYPE svg PUBLIC "-//W3C//DTD SVG 1.1//EN" "http://www.w3.org/Graphics/SVG/1.1/DTD/svg11.dtd">
<svg class="icon" style="width: 1em; height: 1em;vertical-align: middle;fill: currentColor;overflow: hidden;" viewBox="0 0 1024 1024" version="1.1" xmlns="http://www.w3.org/2000/svg"><path d="M609.4 929c-6.8-3.3-12.8-7.4-14.2-15.5-0.4-2.2-0.5-4.6-0.5-6.8 0-25.3-0.1-50.6 0.1-75.9 0-4.2-0.7-5.4-5.2-5.4-68.9 0.2-137.7 0.1-206.6 0.1-13.3 0-22.4-9.2-21.3-21.5 0.8-9.5 8.4-17.1 17.9-17.9 1.8-0.1 3.6-0.1 5.4-0.1 68 0 136.1-0.1 204.1 0.1 4.9 0 5.7-1.4 5.7-5.9-0.2-25.3-0.1-50.6-0.1-75.9 0-18.2 15.5-27.3 31.2-18.2 58.8 33.9 117.6 67.8 176.4 101.8 15.4 8.9 15.4 26.9-0.1 35.8-58.8 34-117.6 67.9-176.4 101.8-2.4 1.4-5 2.4-7.5 3.6-2.9-0.1-5.9-0.1-8.9-0.1zM958.5 557.2c-2.3 3.3-1.9 7.4-2.7 11.1-13.5 62.1-69.3 104.7-132.5 101.2-58.1-3.3-106.5-45.8-117.9-103.9-0.7-3.3-1.9-3.8-4.8-3.7-17.1 0.1-34.2 0.2-51.3 0.1-13.9-0.1-23.1-11.2-20.3-24.1 1.9-8.8 9.8-15 19.4-15.1 17.1-0.1 34.2-0.1 51.3 0 3.4 0 4.9-0.5 5.6-4.5 10-55 56.4-97.8 111.5-103.2 70.1-6.9 130.5 40.5 140.6 110.2 0.1 0.9-0.3 2.1 1 2.4v3c-0.6 0.5-0.5 1.3-0.5 2s-0.1 1.4 0.5 2v16.8c-0.6 0.7-0.6 1.3 0 2 0.1 1.1 0.1 2.4 0.1 3.7z" fill="#030000" /><path d="M957.7 532.5c-0.1-0.8-0.3-1.6 0.8-1.9v2c-0.3 0.4-0.5 0.4-0.8-0.1z" fill="#787676" /><path d="M957.7 532.5c0.3 0 0.6 0 0.8 0.1v2c-0.9-0.5-1-1.3-0.8-2.1z" fill="#4F4D4D" /><path d="M958.5 553.2c-1.5-0.7-1.2-1.3 0-2v2z" fill="#787676" /><path d="M405.8 522.7h193.7c15.3 0 25.3 13.7 19.6 27-3.7 8.5-10.6 12.2-19.6 12.2-18.6 0-37.1 0.1-55.7 0.1-110.8 0-221.5 0.1-332.3 0-4.5 0-5.6 1.1-5.5 5.6 0.2 59.8 0.1 119.6 0.1 179.5 0 23.7 15.4 39 39.2 39 8.9 0 17.7-0.1 26.6 0 11.6 0.1 20.1 8.5 20.1 19.8 0 11.2-8.6 19.8-20.2 19.6-15.1-0.2-30.2 1.5-45.2-1.7-35-7.6-59.8-37.9-59.9-73.8-0.2-60.8-0.1-121.6 0-182.4 0-4.1-0.6-5.5-5.2-5.4-18.6 0.3-37.1 0.3-55.7 0-4.1-0.1-5.4 0.7-5.4 5.2 0.2 30.4 0.2 60.8 0.1 91.2-0.1 14.1-13.2 23.4-26.2 19-7.8-2.7-13.1-9.9-13.2-18.4-0.1-10 0-20 0-30.1V426c0-11.5 6.7-19.8 17-21.3 12-1.7 22.4 7.6 22.4 20.4 0.1 30.7 0.2 61.5-0.1 92.2 0 5.1 1.3 6.1 6.1 6 18.6-0.3 37.1-0.3 55.7-0.1 3.9 0 4.5-1.1 4.5-4.6-0.1-40.1-0.1-80.2 0-120.3 0-14.6 13.6-24.2 26.7-19.2 8 3 12.7 10.2 12.7 19.7 0 39.6 0.1 79.2-0.1 118.8 0 4.5 1.1 5.6 5.6 5.6 64.7-0.2 129.5-0.1 194.2-0.1v-0.4zM304.6 213c21.9 0 43.7-0.1 65.6 0.1 4 0 4.8-1.2 4.7-4.9-0.2-12.2-0.1-24.3-0.1-36.5 0.2-38.6 30.6-69 69.2-69.2 31.1-0.1 62.1-0.1 93.2 0 38.9 0.1 69.2 30.6 69.4 69.5 0.1 34.8 0.1 69.7 0 104.5-0.1 38.9-30.5 69.4-69.3 69.5-31.1 0.1-62.1 0.1-93.2 0-38.6-0.1-69-30.6-69.2-69.1 0-6.9-0.1-13.8 0.1-20.7 0.1-2.8-0.4-3.9-3.6-3.9-43.1 0.1-86.1 0-129.2 0.1-19.6 0.1-35.6 16.2-35.8 35.9-0.2 17.7 0 35.5-0.1 53.2-0.1 9.2-6.2 16.5-15.3 18.7-8.4 2.1-17.5-2-21.7-9.8-1.7-3.1-2.5-6.4-2.5-9.9 0-17.9-0.2-35.8 0.1-53.7 0.6-39.9 33.9-73.3 73.7-73.9 21.2-0.1 42.6 0.1 64 0.1z" fill="#030000" /><path d="M634.3 875V736.4c40 23.1 79.6 45.9 120.1 69.3-40.3 23.2-79.9 46.1-120.1 69.3z" fill="#1C8EF0" /><path d="M831 630.2c-48.8 0.1-88.5-39.5-88.5-88.2s39.6-88.4 88.3-88.4c48.5 0 88.1 39.5 88.2 88 0.3 48.8-39.2 88.5-88 88.6z" fill="#EC8B1C" /><path d="M567 224.2v51.3c-0.1 18.6-12.6 31.1-31.3 31.2-30.1 0.1-60.1 0.1-90.2 0-18.7 0-31.3-12.6-31.3-31.2V173.4c0-19 12.5-31.4 31.5-31.4h89.7c19 0 31.5 12.5 31.6 31.4 0.1 17 0 33.9 0 50.8z" fill="#69CAFE" /><path d="M724.8 805.1c0 6.1-5.7 10.4-10.6 7.8-11.7-6.2-23.2-12.9-34.7-19.6-3.6-2.1-4.3-7.1-2-10.5 2.4-3.5 5.9-5 9.8-2.8 11.4 6.2 22.6 12.6 33.8 19.1 2.5 1.4 3.6 3.7 3.7 6z" fill="#FEFEFE" /><path d="M674.8 776.8c-0.1 6.2-5.6 10-10.7 7.6-5.4-2.6-10.7-5.6-15.8-8.9-3.6-2.3-4.4-7-2-10.4 2.4-3.6 5.9-4.9 9.8-2.9 5.2 2.6 10.3 5.6 15.4 8.6 2.3 1.4 3.4 3.8 3.3 6z" fill="#FDFEFE" /><path d="M758.4 545.6c1.3-22.4 6.8-43.1 23.8-59.1 8.7-8.2 19.2-13.1 30.8-15.5 4.6-0.9 8.6 1.5 9.5 5.6 1 4.4-1 8.6-5.6 9.5-29.7 5.8-41.3 31.9-42.7 58.7-0.1 1.6 0 3.3-0.1 4.9-0.2 5-3.2 8.4-7.7 8.5s-7.8-3.2-8.1-8.1c0-1.6 0.1-3.1 0.1-4.5z" fill="#FEFEFE" /><path d="M843.5 469.5c3.1 0.5 7.5 1 11.9 1.9 4.5 0.9 7.2 4.9 6.4 9-0.8 4.4-4.8 7-9.6 6.3-3.7-0.5-7.5-1.1-11.2-1.5-5.3-0.7-8.3-4-7.8-8.8 0.4-4.4 3.9-7.1 10.3-6.9z" fill="#FEFEFD" /><path d="M443.8 245.1v28c0 6.3-2.8 9.8-7.7 9.9-5 0.1-8-3.4-8-9.6v-57.6c0-6.2 3-9.7 8-9.7 5 0.1 7.7 3.6 7.8 9.9-0.1 9.7-0.1 19.4-0.1 29.1zM428 180.3c0-3.3-0.1-6.6 0-9.8 0.3-4.7 3.6-7.7 7.9-7.7 4.4 0 7.6 3.1 7.8 7.8 0.2 6.7 0.2 13.4 0 20.2-0.1 4.7-3.4 7.6-7.9 7.6s-7.4-3-7.8-7.7v-1-9.4z" fill="#FEFEFE" /></svg>