<?xml version="1.0" standalone="no"?>
<!DOCTYPE svg PUBLIC "-//W3C//DTD SVG 1.1//EN" "http://www.w3.org/Graphics/SVG/1.1/DTD/svg11.dtd">
<svg class="icon" style="width: 1em; height: 1em;vertical-align: middle;fill: currentColor;overflow: hidden;" viewBox="0 0 1024 1024" version="1.1" xmlns="http://www.w3.org/2000/svg"><path d="M229 619.5c-9.9 7.3-18.4 6.8-27.1-2.1-23.7-23.9-48.7-46.6-71.2-71.8-32.8-36.8-53.3-79.7-62.4-128.2-1.5-8.2-2.5-16.6-3.5-24.9-0.1-0.8 0.3-1.9-1-2.2v-8.1c1-1.7 0.2-3.6 0.5-5.4-0.2-1.8 0.5-3.7-0.5-5.4v-9c0.7-1.8 0.7-3.6 0-5.4v-9c1.3-8.4 1.3-16.9 2.8-25.3 8.3-45.6 26.7-86.6 55.9-122.6 31.6-38.8 70.8-66.9 117.8-84.1 18.8-6.9 38.1-11.5 58-14.1 4.9-0.6 9.8-0.2 14.6-1.2h4.5c2.3 1 4.7 0.2 7 0.5 9.2 0.6 15.2 7.2 15.8 17.4-0.6 11.2-7.1 18.4-18 19.3-22.2 1.9-44 5.5-65.1 12.8-30.3 10.5-57.1 26.7-80.9 48.3-17.7 16.1-32.5 34.4-44.4 55-15.8 27.3-25.7 56.7-29.2 88.1-1.1 9.8-1.9 19.7-1.7 29.6 0.5 30.3 6.4 59.5 18.3 87.4 11.8 27.8 28.5 52.2 50.1 73.4 19.8 19.4 39.2 39.2 58.9 58.8 5.2 5.1 7.6 11 6.6 18.2-0.5 4.2-1.7 8-5.8 10z" fill="" /><path d="M313 100.7c-5 2.2-10.4 1.7-15.6 2.4-84.8 12.8-150 55.6-195.3 128.3-21.6 34.8-33.3 73-37.2 113.6-0.1 1 0.6 2.5-1 3.1 0-81.2 0-162.4-0.1-243.6 0-3.2 0.7-3.9 3.9-3.9 81.8 0.2 163.6 0.1 245.3 0.1z" fill="#FEFEFE" /><path d="M710.6 100.7c2.7 1.8 5.9 1.2 8.9 1.5 13.9 1.6 27.5 4.2 40.9 7.8 12.5 3.3 17.4 11.1 15.1 23.7 0.6 3.8-2.2 5.8-4.3 8.3-5.8 5.2-12.6 5.9-19.8 4.1-11.2-2.9-22.4-5.3-34-6.6-14.5-1.6-28.9-1.9-43.5-0.9-21.5 1.6-42.4 5.7-62.8 12.9-29.1 10.2-54.9 26-77.8 46.6-5.8 5.2-11.3 10.7-16.9 16.1-4.2 4.1-5.3 4.2-9.6-0.1-9.7-9.8-19.8-19.2-30.7-27.6-20.6-15.8-43.1-28.2-67.9-36.3-8.2-2.6-13.3-7.8-14.7-16.4 0-2.4-0.2-4.8 0.3-7.2 4.3-12.1 14.4-17 26.9-12.7 20 6.9 39.1 15.8 57.1 27.1 10.5 6.6 20.6 14 30.1 21.9 3 2.5 4.9 2.2 7.7-0.1 18.2-15.5 38.4-28.2 60.1-38.1 25.8-11.8 52.7-19.6 80.9-22.8 4.7-0.5 9.5-0.2 14.2-1h3.6c0.5 0.6 1.2 0.4 1.8 0.5 0.6 0 1.3 0.1 1.8-0.5h5.4c2.1 0.7 4.2 0.7 6.3 0h6.3c2.1 0.7 4.2 0.7 6.3 0 2.9-0.2 5.6-0.2 8.3-0.2z" fill="" /><path d="M671.1 100.7c-5.3 2.1-11 1.7-16.5 2.4-52.9 7-99.6 27.7-140.2 62.3-2.5 2.1-3.6 1.1-5.4-0.4-26-22.2-55.2-38.7-87.6-49.8-12.8-4.4-20.4-1.2-26.4 10.9-3.8 1.5-7.2-0.7-10.8-1.1-1.7-0.6-3.4-0.6-5.1-0.9-11.6-2-23.4-3-35.1-4-1.6-0.1-3.3 0-4.6-1.3-1.2-9.7-5.7-15.1-14.5-17.2-0.4-0.1-0.5-0.3-0.4-0.5s0.2-0.3 0.3-0.3c115.4-0.1 230.8-0.1 346.3-0.1z" fill="#FEFEFE" /><path d="M324.7 100.7c0 0.3 0 0.5 0.1 0.8-2.4-0.2-5 0.9-7.3-0.8h7.2z" fill="#6E6E6E" /><path d="M689.9 100.7c-2.1 1.4-4.2 1.4-6.3 0h6.3z" fill="#111111" /><path d="M702.5 100.7c-2.1 1.5-4.2 1.3-6.3 0h6.3z" fill="#272727" /><path d="M63.9 357.1c1.5 1.8 1.2 3.6 0 5.4v-5.4z" fill="#2E2E2E" /><path d="M63.9 371.5c1.6 1.6 0.7 3.6 0.8 5.5-0.3 0.3-0.6 0.3-0.8-0.1v-5.4z" fill="#131313" /><path d="M63.9 376.9c0.3 0 0.6 0 0.8 0.1-0.3 1.8 1 3.8-0.8 5.3v-5.4z" fill="#3A3A3A" /><path d="M676.4 101.5c-0.7 0.1-1.5 0.3-1.8-0.8h1.8c0.3 0.2 0.4 0.4 0.3 0.5-0.1 0.2-0.2 0.3-0.3 0.3z" fill="#888888" /><path d="M676.4 101.5v-0.8h1.8c-0.3 1-1 1-1.8 0.8z" fill="#6B6B6B" /><path d="M339.4 118.8c13.5 0.5 27 1.5 40.2 4.4 1.2 1 3 0.4 4.2 1.4 1.8 0.6 3.7 1.1 5.5 1.8 3.5 1.3 5.9 3.4 5.4 7.5 1.3 7 5.2 12.2 12.1 14.4 39.3 12.9 72.5 35.1 100.8 64.9 4.2 4.4 4.4 4.4 8.6-0.1 25.7-26.9 55.2-48.1 90.3-61 47.1-17.3 95.1-20.4 143.7-7.3 7.6 2 14.5 1.7 20.7-3.5 1.9-1.1 3.1 0.3 4.5 1.2 18.8 11.9 36.2 25.6 51.3 42 30.8 33.4 51.6 72.2 61.6 116.7 4.8 21.6 7 43.5 5.9 65.6-1.6 31.4-8.4 61.6-21.3 90.4-10.1 22.6-23.1 43.3-39.2 62.1-3.8 4.4-7.6 8.9-11.8 13-66.8 65.6-132.5 132.4-199.2 198.1-41.3 40.7-82 82-123.3 122.7-1.6 1.6-2.9 3.5-5.2 4.1-2.2 0-3.5-1.6-4.8-3-22.6-23.1-46.3-45.1-69.1-68.1-37.3-37.6-74.9-75-112.4-112.5-1.6-1.6-3.1-3.2-4.9-4.6-8.6-6.8-14-7.3-23.4-2-0.8 0.4-1.5 1-2.5 0.6-15.9-16.1-31.8-32.3-48.3-47.9 7.7-9.9 7.2-18.6-1.7-27.5-19.3-19.3-38.7-38.5-58-57.7-35.9-35.6-58.9-78.2-66.2-128.2-11.8-80.6 11.9-149.9 70.8-206.3 35.9-34.4 79.3-54.1 128.5-61 6.2-0.9 12.5-1.2 18.8-1.8 11.5-1.3 17.2-7 18.4-18.4z" fill="#FEDD5C" /><path d="M493.7 856.5c1.3-1.2 2.7-2.4 4-3.6 37-36.9 73.8-74.1 111.1-110.8 54.9-53.9 108.8-108.7 163.6-162.6 15.1-14.8 30-29.7 45.1-44.6 30.3-29.9 52.2-64.9 64.8-105.7 5.6-18.2 8.9-36.8 10.3-55.8 2.9-39.2-3.3-76.8-18.2-113.1-10.6-25.9-25.3-49.1-43.8-70.1-16.1-18.2-34.5-33.5-54.9-46.6-1.5-1-3.1-1.7-4.7-2.6 1.8-2.3 3.4-4.7 4.6-7.4 27.3 9.5 51.9 23.7 74.3 41.9 1.6 1.3 3.2 2.7 4.8 4.1 0.6 1.5-0.4 2.6-1 3.8-3.9 8.3-2.9 14.4 3.3 20.9 18.3 19 33.7 40.1 45 64.1 11.2 23.7 18.3 48.4 21.3 74.5 1.1 9.5 1.9 19.1 1.8 28.7-0.4 30-6.3 58.9-17.8 86.7-4.8 11.5-4 15.9 4.8 24.9 0.5 0.5 1 1.1 1.1 1.9-8.9 17.3-19.8 33.2-32.7 47.7-1.5 0.6-2.6-0.3-3.7-1-6.9-4.2-13.4-3-19.7 1.5-2 1.4-3.6 3.1-5.3 4.8-37.1 37.1-74.1 74.3-111.4 111.2-8.3 8.2-10.2 16.3-4.1 25.1 0.5 0.7 0.8 1.6 0.5 2.6-7.4 7.2-14.7 14.5-22.1 21.7-30.5 30.3-60.9 60.6-91.4 90.9-1.8 0.9-2.7-0.7-3.9-1.4-7.4-4.3-14.8-3.4-21 2.5l-0.6 0.6c-26.5 26.6-53.9 52.4-80.2 79.3l-1.9 1.9c-3.4 3.2-4.4 3.2-7.8-0.1-4.1-4-8.1-8-12.1-12.1-1-1.1-2.3-2-2.1-3.8z" fill="#EC8B1C" /><path d="M493.7 856.5c5.4 5.4 10.8 10.8 16 16.3 1.7 1.7 2.7 1.6 4.3 0 6.6-6.7 13.3-13.3 20-20 20.6-20.5 41.2-40.9 61.8-61.4 9-8.9 17.3-9.5 27.5-1.8 7.4 10.2 6.8 18.4-2.3 27.5-35.3 35.1-70.6 70.1-105.8 105.4-2.9 2.9-4.2 2.5-6.9-0.1-76.1-76-152.3-151.7-228.6-227.5-9.1-9.1-9.9-17.1-2.5-27.5 10.2-7.8 18.6-7.3 27.8 1.9 61.6 61.2 123.2 122.4 184.7 183.6 1.3 1.3 2.7 2.4 4 3.6zM913.2 485.1c-10-6.6-12.4-14.4-7.8-25.4 36.4-86.5 17.5-185.5-48.2-253-8.8-9-9.5-16.5-2.6-26.8 10.4-8.3 19-7.8 28.4 1.9 40 41.2 64.3 90.2 73.3 146.9 8 50.1 1.7 98.4-17.9 145.1-4.8 11.6-13.1 15.3-25.2 11.3zM736.8 677c-7.7-10.6-7.1-18.6 2.1-27.8l114-113.4c9.3-9.3 16.6-10.1 27.5-3 8.2 10.8 7.6 18.8-2.1 28.4-38 37.8-76.1 75.6-114.1 113.4-9 9.1-16.8 9.8-27.4 2.4z" fill="" /><path d="M394.7 133.8c-1-6.6-7.3-6.4-11.4-8.8-0.2-0.8 0-1.4 1-1 3.6 0.7 7.1 1.4 10.7 2.1-0.1 2.6-0.2 5.2-0.3 7.7z" fill="#EC9021" /><path d="M384.2 124c-0.3 0.3-0.7 0.6-1 1-1.2-0.7-2.8-0.5-3.6-1.9 1.6 0.1 3.2-0.1 4.6 0.9z" fill="#F1A53E" /><path d="M151.1 361.4c0.3-23.8 8.5-53.7 24.5-81.3 2.8-4.8 6.8-6.3 10.8-3.9 3.8 2.3 4.4 6.3 1.7 11-16 28-23.7 58-22.5 90.3 1 27.1 10.5 51.3 25.2 73.8 16 24.5 34.4 47.2 53.8 69 17.9 20.2 36.7 39.5 55.9 58.5 3.5 3.5 3.8 7.8 1 10.7-3.1 3.3-7.2 3.1-11-0.6-36.2-35.9-71.6-72.5-101.3-114.2-9.9-13.9-19-28.4-25.9-44.1-8.5-19-12.2-38.5-12.2-69.2zM324.1 189c5.2-0.1 8.5 2.5 8.7 6.9 0.1 4.3-2.8 7-7.8 7.5-24.4 2.2-47.7 8.2-69.5 19.6-0.9 0.5-1.9 1-2.8 1.4-5.1 2.6-9.2 1.7-11.3-2.4-1.9-3.8-0.2-7.8 4.4-10.3 11.9-6.4 24.4-11.5 37.3-15.3 13.4-3.9 27.1-6.2 41-7.4z" fill="#FEFEFE" /></svg>