<?xml version="1.0" standalone="no"?>
<!DOCTYPE svg PUBLIC "-//W3C//DTD SVG 1.1//EN" "http://www.w3.org/Graphics/SVG/1.1/DTD/svg11.dtd">
<svg class="icon" style="width: 1em; height: 1em;vertical-align: middle;fill: currentColor;overflow: hidden;" viewBox="0 0 1024 1024" version="1.1" xmlns="http://www.w3.org/2000/svg"><path d="M332 127.8c5.8 2.1 12.1 2.1 18.1 3.5 40.3 9.1 72.2 30.5 96 64.1 8.4 11.9 6.8 21.4-4.8 29.9-5.2 6-19.3 1.9-23.5-4.4-5.8-8.8-12.9-16.7-20.6-23.9-15.8-14.8-34.4-24.1-55.6-28.4-42.4-8-79.3 3.1-109.8 33.5-19 19-29.7 42.4-32.9 69.2-2.3 19.1 0.4 37.5 6.8 55.5 2.8 7.8 1.5 14.9-4.1 20.9-3.9 4.1-8.6 7-14.7 5.1-9.1-0.9-14.5-6-17.6-14.5C136.4 246.7 193.2 148 289 130.4c4.2-0.8 8.7-0.5 12.7-2.5h26.7c0.6 0.6 1.2 0.6 1.8 0 0.6-0.1 1.2-0.1 1.8-0.1z" fill="" /><path d="M66.2 856.3c5-11.8 9.5-14.7 22.4-14.7h150.8c12.9 0 21.5 10.1 19.1 22.3-1.6 8.3-9 14.3-17.7 14.5-8 0.1-15.9 0-23.9 0H88.7c-12.9 0-17.4-3-22.4-14.7-0.1-2.5-0.1-4.9-0.1-7.4z" fill="#030000" /><path d="M330.2 127.8c-0.6 1.4-1.2 1.2-1.8 0h1.8z" fill="#868686" /><path d="M186.9 352.6c15.4-1.4 22.3-12.4 17.1-27.2-25.7-71.8 20.6-148.7 96.1-159.6 14-2 28.1-1.8 41.9 1.7 5.4 2.1 9.6 6.1 13.8 9.8 27.5 24.9 44.4 55.7 48.8 92.6 5.1 42.7-7 80.7-34.7 113.4-9.7 11.5-21.1 21.3-34 29.2-3.1 1.9-3.5 3.5-1.5 6.5 14.5 21.3 30 41.8 46.8 61.3 10 11.6 20.3 23 31.2 33.6 13.2 12.9 26.5 25.9 41.3 37.1 2.2 1.2 3.9 2.9 5.7 4.6 45.5 45 96.1 83 151.9 114.3 4.8 2.7 9.5 5.6 14.3 8.3 4.2 2.4 4.2 2.4 6.5-1.8 7.7-13.9 13.9-28.7 23.4-41.6 21.4-29.2 49.9-46.3 86.2-50.3 13.8-1.5 27.2-0.5 40.5 2.7 1.6 0.4 3.3 0.8 4.7 1.8 8.9 9.5 15.1 20.8 20.4 32.6 9.4 20.9 13.7 42.9 12.4 65.8-2 34.7-14.4 65.1-37.9 91.1-16.2 17.9-35.5 30.9-57.8 39.6-1.6 0.6-3.1 1.4-4.8 1.5-10.5-2.7-21.2-4.8-31.2-9.1-2.2-1.3-4.6-1.9-7-2.6-6.2-1.7-12.2-3.8-18-6.7-2.1-1.2-4.3-2.2-6.7-2.6-2.7-0.4-5.1-1.5-7.4-2.9-2-1.3-4.1-2.2-6.5-2.8-5.3-1.7-10.5-3.7-15.3-6.6-1.2-0.9-2.6-1.5-4.1-1.8-6.9-2.6-13.7-5.6-20-9.4-6-3.4-12-6.5-18.3-9.1-5.9-2.6-11.4-5.9-17.4-8.4-2.3-0.9-4.5-0.8-6.8-0.2-1.2 0.3-2.4 0.7-3.6 1.1-4.1 1.5-6.9 4.4-8.6 8.4-0.5 1.1-0.8 2.3-1.3 3.5-0.4 0.8-0.8 1.5-1.6 1.8-4.2-2.2-8.3-4.4-12.5-6.6-0.5-1.8 1.1-2.3 2-3.3 7.7-9.1 6.4-20.5-3.7-26.9-21.8-13.8-43-28.3-63.5-43.9-16.3-12.5-32.1-25.6-47.4-39.3-13.9-12.5-27.5-25.4-40.4-38.8-19.9-20.7-38.7-42.2-56.2-64.9-24.1-31.2-45.9-64-65.1-98.4-6.6-11.8-13-23.6-18.6-35.9-5.4-12-19.3-14.8-27.8-7.4-0.9 0.8-1.8 1.8-3.2 1.2-7.9-18.1-15.3-36.6-22.1-55.4z" fill="#69CAFE" /><path d="M786.5 589.7c-35.1-9.7-67.9-4.3-98.4 15.2-16.4 10.5-29.2 24.6-38.6 41.7-6 10.8-11.8 21.8-17.4 32.8-1.3 2.6-2.2 2.7-4.7 1.4-62.4-34.5-120-75.3-170.4-126-1.1-1.1-2.3-1.9-3.5-2.8-15.6-14.5-29.3-30.7-43-47-24.1-28.7-44.2-60.2-64.4-91.6-3.4-5.3-3-6.1 2.7-9.5 14.2-8.5 29.3-15.4 42.2-25.9 24.4-19.8 39.3-45.3 44.1-76.5 1.1-6.8 0.2-13.8 1.7-20.6 1.6-6.8 5.5-11.5 11.8-14.2 1-0.4 2-0.7 3.1 0 15.3-0.8 23 6.5 22.4 21.8-2.4 56.3-27.7 99.5-74.9 130-2.6 1.7-3.1 2.6-1.3 5.4 55.8 85 127.3 153.6 214.7 205.8 2.9 1.7 3.8 1.1 5.4-1.6 26.7-45.3 66-71.9 118.2-78.6 83.5-10.6 160.9 49.1 173 132.8 0.9 6.4 1.6 12.8 1.6 19.2 0.2 14.9-7.8 22.4-22.6 21.3-6.6-0.1-12.6-5.4-14.6-13-1.5-5.7-0.8-11.6-1.5-17.3-2.5-22.7-10.8-42.9-24.7-60.8-14.3-18.4-32.7-31.1-54.6-38.8-2.4-0.9-4.4-1.9-6.3-3.2zM208.9 408.2c12-10.7 24.9-8.2 32.1 6.2 66.3 133 162.4 239.1 288 318.5 10.4 6.6 14 14.4 10.8 23.6-1.3 3.9-3.9 6.8-7 9.4-7.9 4.5-15.2 3.4-22.8-1.4-131.7-83.1-232.3-194.2-302-333.4-3.9-8-4.3-15.4 0.9-22.9z" fill="" /><path d="M743.4 861c-0.9 10.5-8.2 17.3-18.8 17.3-29.6 0.1-59.2 0-88.7 0H300.3c-10.4 0-17.4-4.8-19.8-13.6-3.1-11.2 4.9-22.4 16.5-23.1 1.7-0.1 3.4 0 5.1 0h361.4c1.7 0 3.7 0.8 5.2-0.8 0.4-0.4 0.8-0.6 1.4-0.6 16 5.3 31.8 11.2 48.1 15.2 6.8 1.7 13.7 3.1 20.8 3.5 1.6 0 3.6 0 4.4 2.1z" fill="#030000" /><path d="M786.5 589.7c45.1 13.8 73 43.9 84.5 89.4 1.9 7.6 2.7 15.4 2.8 23.2 0.2 11.1 4 16.5 14.2 20.4-4.5 23.4-14.2 44.4-28.7 63.3-0.6 0.3-1.2 0.4-1.8 0.3-9.4-2-16.1 2-23 8.2-18.9 17.3-41.4 27.2-67 30.1-14.8 1.7-29.3 0.6-43.6-3.1-1.8-0.5-4.1-0.3-4.7-2.8 21-7.3 39.7-18.6 55.4-34.2 22.8-22.6 37.3-49.7 42.1-81.7 6.3-42.1-4.2-79.7-30.2-113.1z" fill="#1C8EF0" /><path d="M719.2 818.7c24 7.8 47.9 7.1 71.7-0.4 17.7-5.5 33.1-15 46.4-28 6.4-6.2 13.7-7.7 21.9-4.4 12.6 7.8 14 21.1 3.2 31.3-9.7 9.2-20 17.4-31.9 23.4-1 2-2.8 3.2-4.8 4.1-6.2 2.9-12 6.7-19.2 7-17.2 6.3-35 9.4-53.4 9-23-2.3-45.3-7.5-67-15.4-5.4-2-10.8-4.1-16.7-4.7-0.4 0-0.7 0.1-1.1 0.1-1.3 0.1-2.6-0.1-3.5-1.2-1.3-3.1-4.3-2-6.6-2.5-3-0.1-5.5-1.9-8.1-3-1.4-2.7-4.1-2.2-6.5-2.6-2.7-0.4-5.1-1.3-7.3-2.9-1.4-2.7-4.1-2.3-6.4-2.7-1.8 0.1-3.2-0.9-4.6-1.9-1.3-2.3-3.5-2.7-5.9-2.5l-0.3 0.1-0.2-0.3c-1.3-2.3-3.5-2.7-5.8-2.6-0.9-0.2-2 0.3-2.5-0.9-1.1-2.6-3.4-2.8-5.7-2.8-12.1-4.7-23.5-10.6-35-16.5-3.4-1.7-6.6-3.6-9.9-5.5-1-2.6-3.1-2.9-5.4-3-4.9-2.3-7.9-6.1-8.4-11.6-0.5-2.7-0.5-5.4 0-8.1-0.1-1.2 0-2.4 1.1-3.3 3.2-2.9 6.2-6 9.1-9.1 0.9-1 2.1-1.2 3.3-1.1 2.7-0.6 5.4-0.5 8.1 0 5.7 2.8 11.4 5.7 17.1 8.5 5.1 5.1 11.3 8.2 18.5 9 6.5 3.5 13.2 6.6 20.1 9.3 1 1.1 2 2.3 3.7 1.7 5.1 2.5 10.2 4.9 15.6 6.6 1.3 2.7 3.9 2.2 6.1 2.7 2.6 1 5.1 1.9 7.7 2.9 1.4 2.9 4.3 1.8 6.5 2.6 6.1 2.4 12 5.1 18.3 6.6 1.4 3.2 4.5 1.6 6.7 2.5 10.3 4.1 20.8 6.6 31.1 9.6z" fill="" /><path d="M451.6 266.6c-9.9 3.2-14.1 10.2-14.5 20.4-1.8 45.2-22.5 79.2-61.1 102.4-9.6 5.7-19.3 11.3-29 16.8-2.2 1.3-3 2-1.4 4.7 30.7 49.6 64.6 96.7 105.7 138.3 0.8 0.8 2.1 1.4 2 2.9-5.7-3.3-10.3-8.1-15.2-12.4-29.9-26.7-57.1-55.7-81.4-87.6-8.5-11.2-16.5-22.8-24.6-34.3-1.8-2.6-1.2-3.6 1.3-5.2 37.8-23.7 61.8-57.2 69.1-101.3 7.2-43.5-4-82.6-31.8-116.9-8.4-10.3-18.5-18.6-28.7-26.9 20.3 3.7 38 13 53.6 26.3 7.7 6.6 14.4 14.1 20.2 22.4 7.3 10.5 13.4 12.6 25.4 9 5.4 13.4 8.7 27.2 10.4 41.4z" fill="#1C8EF0" /><path d="M806.6 851.7c8.3-3 16.5-6.3 23.9-11.1 1.2 1.9 3.1 0.9 4.6 0.9 35.4 0.1 70.7 0 106.1 0.1 13.2 0 22 11.9 18.1 24.1-2.4 7.3-9.1 12.6-16.9 12.6-39.7 0.1-79.3 0.1-119 0-12.1 0-20.5-11.5-17.4-23.2 0.4-1.1 1.3-2.1 0.6-3.4z" fill="#030000" /><path d="M669.6 840.6c3.3-2.1 6.2 0 9.1 0.9 13.1 4.1 26 8.8 39.2 12.3 7 1.8 14.3 2.4 21.5 3.6 4.6 0.8 9.1 2.8 13.8 3.4-3.3 0.1-6.6 0.2-9.8 0.3-5.8-1.8-11.9-1.6-17.9-2.7-18.3-3.5-35.6-10.4-53.2-15.9-1-0.5-1.8-1.3-2.7-1.9zM630.1 826c2.7-0.3 6.2-2.9 6.4 2.7-2.3-0.6-4.5-1.4-6.4-2.7zM643.8 831.5c2.6-0.3 6.2-3 6.5 2.6-2.3-0.6-4.5-1.3-6.5-2.6zM554.6 790.1c3.2-1.4 5.6-1.6 5.4 3-1.9-0.8-3.8-1.6-5.4-3zM604.9 815c3-1.3 5.8-2.1 5.7 2.8-1.8-0.9-3.7-1.8-5.7-2.8zM613.2 818.7c2.9-1.2 5.6-2.3 5.8 2.6-2.1-0.5-4-1.3-5.8-2.6zM619.5 821.5c2.8-1.2 5.7-2.4 5.9 2.5-2.1-0.4-4.1-1.3-5.9-2.5zM658.4 837.1c2.6-0.3 6.3-3.2 6.6 2.5-2.3-0.6-4.6-1.2-6.6-2.5zM546.2 770.4v8.1c-1.3-1.8-0.5-4-0.9-6l0.9-2.1z" fill="" /><path d="M270.5 206.9c2.6 0.1 5.1 1.8 6.1 5 1.1 3.6 0 6.7-3.3 8.7-4.3 2.6-8.6 5.3-12.6 8.4-14.8 11.7-21.1 27.6-23.4 45.7-1.5 12.4-1 24.7 0.8 37.1 0.8 5.6-1.7 9.4-6.3 10s-7.6-2.5-8.4-8.2c-2.5-18.5-3-36.9 1.9-55.1 6-22.3 19.3-39 39.5-50.1 2.6-1.4 3.1-1.5 5.7-1.5zM747.4 601.4c13.2 0.2 24.9 2.4 36.2 6.3 5.1 1.8 7.5 5.6 6.1 9.6-1.4 4.2-5.6 5.9-10.5 4.3-10.4-3.3-20.9-5.7-31.9-5.5-21.5 0.4-39 9.2-52.7 25.6-3.9 4.7-8 5.8-11.7 2.7-3.6-2.9-3.4-7.6 0.4-12.1 17-20.3 38.8-30.4 64.1-30.9zM328.3 193.2c8.7-0.3 17.4 1 26 2 1.4 0.2 2.7 0.5 4 1 3.6 1.4 5.6 4.9 4.8 8.4-0.9 3.9-4.6 6.4-8.6 5.7-15.3-2.6-30.6-3.5-46-0.8-4.8 0.8-8.8-2.1-9.4-6.5-0.5-4 2.2-7.2 7-8 7.3-1.3 14.7-2 22.2-1.8zM679.7 663c0.1 2-0.8 3.6-1.8 5.1-4.9 7.2-9.1 14.9-13 22.7-2.4 4.9-6.3 6.6-10.3 4.7-4.1-1.9-5.3-6.1-3-10.9 4.2-8.9 9.1-17.4 14.6-25.5 2.1-3 5-4.1 8.5-3 3.2 1 4.8 3.5 5 6.9z" fill="#FEFEFE" /><path d="M603.5 774.4c-3.3 1.5-6.3 0.8-9-1.2-1.8-1.3-3.7-2.1-5.7-2.8-2.2-0.8-4.1-2.1-3.9-5 6.6 2.3 12.6 5.7 18.6 9zM556.5 757.9c-1.6 4.4-4.7 7.5-9.1 9.1 1.5-4.4 4.6-7.4 9.1-9.1zM649 794.7c-2.7 0.7-6 2.5-6.1-2.7 2.2 0.6 4.4 1.2 6.1 2.7zM663.2 800.2c-2.3-0.4-6.4 3.3-6.5-2.6 2.3 0.5 4.5 1.3 6.5 2.6zM688.2 809.3c-2.3-0.6-6.4 3.6-6.7-2.5 2.4 0.7 4.7 1.2 6.7 2.5zM627.3 785.4c-0.5 1-1 1.8-2.3 1.2-1.4-0.6-1.4-1.7-1.4-2.9 1.4 0.2 2.7 0.7 3.7 1.7zM567.9 756.9h-8.1c2.7-1.2 5.4-1.2 8.1 0z" fill="" /></svg>