<?xml version="1.0" standalone="no"?>
<!DOCTYPE svg PUBLIC "-//W3C//DTD SVG 1.1//EN" "http://www.w3.org/Graphics/SVG/1.1/DTD/svg11.dtd">
<svg class="icon" style="width: 1em; height: 1em;vertical-align: middle;fill: currentColor;overflow: hidden;" viewBox="0 0 1024 1024" version="1.1" xmlns="http://www.w3.org/2000/svg"><path d="M515.5 172.5h6c2.3 0.8 4.7 0.8 7 0h5c0.8 0.8 1.9 0.4 2.9 0.5h1.8c0.8-0.1 1.6 0.2 2.3-0.5h2c6.7 1.2 13.5 0.7 20.2 1.5 34.4 4.3 67.3 13.6 98.8 28.1 19.2 8.8 37.5 19.3 54.7 31.6 4.5 3.3 9.4 4.8 14.7 5.2 34.6 3 68.4 9.5 101.2 21 27.2 9.4 52.7 22 75.1 40.3 25.9 21.1 43.8 47.4 51.2 80.3 2.9 12.9 2.7 26.1 2 39.1-2.3 40.6-20.6 74.6-44.2 106.5-9.5 12.8-20.3 24.6-31.4 36-8.8 9-18 17.6-27.9 25.5-3.8 3.1-6.1 6.7-7.3 11.5-12.9 49.9-36.3 94.3-69.4 133.7-12.4 14.8-26 28.4-40.8 40.8-10.4 8.7-22.8 7.9-31.9-2.1-6.9-10.3-3.9-23.5 5.2-31.1 33.5-28.1 59.4-62.3 78-102 0.3-0.6 0.6-1.2 0.7-2.6-18.8 11.8-37.7 22.5-57 32.6-117.8 59.7-242.6 91.7-375.6 96.2 71.1 43 146.3 57 227.1 39 17.8-3.4 34.8-9.4 51.5-16.5 3.2-1.4 6.4-2.8 9.6-4.1 11.6-4.6 22.6-0.1 28 11.5 3.9 11.5-0.1 21.8-10.9 27.1-29.2 14.2-60 23.2-92.1 28.2-24.1 3.8-48.3 3.3-72.5 2.8-31.1-0.7-60.9-7.2-90.2-17-40.6-13.6-77.6-34.1-109.6-62.5-10.8-9.6-22.2-13.3-35.9-15.1-40.3-5.4-79.1-16-115.2-35.2-28.9-15.4-53.9-35.3-70.6-64.1-9-15.4-15.5-31.7-16.7-49.7 0-0.7 0-1.3-0.5-1.8v-5c0.7-1 0.7-2 0-3v-23.9c1.4-7.8 1.7-15.7 3.9-23.4 3.2-11.2 7.5-21.9 12.2-32.5 5-11.4 18.7-19.1 32.2-10.6 9.7 8.4 11.7 16.7 6.5 28.5-3.6 8.1-7 16.2-9.3 24.7-11.6 42.6 1.3 79.3 37.1 107 22.9 17.7 49 28.4 76.5 36.4 7 2 14 3.9 21.9 5.6-27-38-45.5-78.9-55.4-123.6-9.9-44.6-11.2-89.4-2.9-135-7.2 5-12.2 11.3-18 16.6-8.9 8.3-17.8 9.1-28.1 2.6-12.6-10.6-11-24.3-0.4-34.6 17.4-16.7 35.2-32.9 55-46.7 8.1-5.7 14.1-12.4 18.1-21.6 11.2-25.7 26.5-49 44-70.9 27-33.7 59.7-60.8 97-82.4 5-2.9 10.3-5.4 15.3-8.3 9.9-5.7 25.1-4.2 31.3 9.4 5.7 11.2-2 24-11.2 28.4-20.5 9.7-39.3 22.2-56.8 36.7-41.5 34.3-71.7 76.6-90.6 127.1-9.3 24.7-15 50.3-17.3 76.5-4.6 52.2 3.9 102.2 25.4 150 13.4 29.9 31.8 56.3 53.4 80.6 2.8 3.1 6.2 4.3 10.1 4.5 19.4 1.1 38.8 1.7 58.2 0.9 29.2-1.2 58.2-3.9 87.1-8.3 52.9-8 104.5-20.9 155-38.4 35.8-12.4 70.7-27.1 104.4-44.5 15-7.8 29.9-16 44.3-24.9 17.3-10.3 33.7-21.9 49.8-33.9 2.5-1.8 3.5-4.3 4.1-7.1 1.6-8.5 2.6-17.1 3.4-25.6 1-9.9 1.3-19.9 1.1-29.8-0.5-34.5-6.8-67.9-18.8-100.3-13.2-35.6-32.7-67.3-58.1-95.6-22.4-25-48.3-45.4-77.5-61.8-22-12.3-45.3-21.4-69.6-27.9-2.9-0.8-5.8-1.5-8.8-1.8-21.2-5-42.7-7.3-64.5-7.6-12.3-0.1-19.5-5.9-22.5-17.7-0.2-0.8-0.2-1.6-0.3-2.5-0.1-5.5 1.5-10.4 4.9-14.8 3.4-3.9 7.7-5.7 12.6-6.2z" fill="#030000" /><path d="M528.4 172.5c-2.3 1.6-4.7 1.6-7 0h7z" fill="#141111" /><path d="M536.5 173.3c-1.1 0.1-2.3 0.5-3-0.8h3c0.3 0.2 0.4 0.4 0.3 0.5-0.2 0.2-0.2 0.3-0.3 0.3z" fill="#605E5E" /><path d="M60.8 599.2c1.1 1 1.6 2 0 3v-3z" fill="#595757" /><path d="M536.5 173.3v-0.8h2c0.3 0.2 0.4 0.4 0.3 0.5-0.1 0.2-0.2 0.3-0.3 0.3h-2z" fill="#7C7B7B" /><path d="M538.4 173.3v-0.8h2c-0.2 1.3-1.1 1-2 0.8z" fill="#9A9999" /><path d="M396.8 216.6c18.7-7.3 37.7-13.5 57.5-17.5 12.7-2.5 25.4-4.6 38.3-5.5 2.1 1.3 4.9 0.1 6.9 1.9 4.6 13 10 16.7 23.9 17 21.2 0.4 42.3 2.4 62.9 7.9 14.5 4.3 27 12.5 39.7 20.3 25.4 15.5 47.7 34.9 67.6 56.9 26.9 29.7 47.5 63.4 61.7 101 10.5 27.5 16.9 55.9 19.6 85.2 3.6 39.6-0.1 78.5-11 116.8-0.6 2.1-1.7 3.9-3.1 5.6-25.4 16.1-52.1 29.7-79.5 42.1-69.3 31.3-141.5 52.8-216.5 65-50.8 8.3-101.9 11.7-153.4 8.8-5.1-0.3-8.9-1.9-12.4-5.8-41.5-45.6-67.1-98.7-76.4-159.6-19.3-125.7 45.2-252.1 158.1-310.4 1.3-0.7 2.7-1.4 4-2 12.4-6.4 15.9-14.4 12.1-27.7zM586.2 804.8c-17.4 4.9-35.2 6.8-53.1 7.5-63.5 2.5-122.2-13.2-175.8-47.4-0.6-0.4-1.1-0.7-1.6-1.1-0.1-0.1-0.1-0.2-0.6-1.7 8.1 0 15.8 0.3 23.5 0 124-6.1 241.2-38.1 352.2-93.2 1.3-0.7 2.7-1.2 4.1-1.8 0.9 2.4-0.8 4.1-1.8 5.9-16.8 29.8-38.5 55.7-63.6 78.6-21.7 19.8-45.9 35.9-72.2 49.1-3.6 1.6-7.4 2.7-11.1 4.1z" fill="#FEDD5D" /><path d="M108.7 509.9c10.3-12.6 19.5-26 29-39.2 11.3 6.2 19 5 28.2-4 6.1-6 12.4-11.9 19.4-18.6-16.4 96.7 2.9 184.4 59.2 264.8-5.7-1.3-10.7-2.4-15.6-3.7-5.1-1.3-10.3-2.7-15.3-4.3-27.5-8.4-53.5-19.9-75.7-38.6-24.8-20.9-38.5-47-37.1-80 0.8-17.2 5.9-33.2 13.1-48.7 5.4-11.6 4-19.1-5.2-27.7z" fill="#69CAFE" /><path d="M760.8 606c7.1-23.7 11.4-47.9 13.1-72.6 3.5-50.7-5-99.4-24.5-146.1-12.7-30.4-30.1-58-51.6-82.9-31-36-68.1-63.9-111.2-83.8-0.1-0.1-0.2-0.2-0.3-0.4 17.6 3.2 34.4 8.8 50.6 16.1 98.3 44.6 158 119.9 178.4 225.9 6.6 34.4 5.9 69.1-0.4 103.6-0.4 2-0.8 3.8-2.6 5.1-16.7 12.6-33.6 24.7-51.5 35.1z" fill="#EC8B1C" /><path d="M858.7 489.8c-5.3-72.4-30.7-136.8-76.6-193.2-2.5-3-5-6-8.3-10 17.7 3.8 34.1 7.8 49.7 14.2 31.6 18.4 54.2 43.9 63.1 80 5.3 21.3 3.5 42.5-2.6 63.4-4.7 15.9-11.6 30.7-20.1 44.9-1.6 2.7-1.7 2.7-4.3 4.4-1.2-1-0.3-2.5-0.9-3.7z" fill="#69CAFE" /><path d="M586.2 804.8c17.9-8.9 35.5-18.4 51.9-30.1 37.8-26.8 68.8-60 92.3-100 1.5-2.6 2.9-5.2 4.3-7.8 15.8-9 32-17.4 47.5-27.1 3.6-2.3 7.2-4.5 11-6.9 0.8 2.4-0.7 3.9-1.4 5.5-18.5 39.9-44.7 74-78 102.7-10.5 9-12 17.1-5.5 29.4-9.5 7.6-20 13.9-30.4 20-1.5 0.9-3.3 1.5-4.4 3-6.2-10.7-16.2-14.1-27.6-8.9-17.7 8.1-35.9 14.6-54.8 19.2-1.6 0.5-3.3 0.7-4.9 1z" fill="#EC8B1C" /><path d="M858.7 489.8c0.3 0.9 0.7 1.8 1.2 3.1 11-17.3 19.4-35.4 24.4-55 6.8-26.9 5.3-53.2-6.4-78.5-8.9-19.2-22.8-34.4-39.4-47.3-4.9-3.8-10-7.5-15-11.3 31.3 11.2 59.7 26.9 79.5 54.6 20.1 28 21.5 58.8 10.6 90.6-9.2 27-25.1 49.9-43.7 71.3-3 3.5-6.3 6.9-9.4 10.3-0.2 0.2-0.5 0.2-1.3 0.4 0.2-12.8 0.5-25.5-0.5-38.2z" fill="#1C8EF0" /><path d="M499.5 195.5c-2.4-0.2-5 0.3-6.9-1.9 2.3-0.1 4.5-0.3 6.8-0.4 0 0.7 0 1.5 0.1 2.3z" fill="#EE9625" /><path d="M256.1 520.9c0.4-62.2 18.5-115.4 53.8-162.8 3.8-5.1 8.2-6.2 12.3-3.2 3.8 2.8 4 8.1 0.5 12.8-20.8 28-35.9 58.8-43.9 92.9-7.4 31.3-8.6 63-3.8 94.8 0.5 3.1 1 6.2 1.2 9.4 0.4 5.2-2.3 8.9-6.7 9.5-4.5 0.6-8.4-2.7-9.2-7.8-1.1-7.5-2.3-15.1-2.9-22.7-0.6-8.7-1.7-17.3-1.3-22.9zM367.1 317.2c-3.8 0.2-6.1-1.7-7.5-4.9-1.5-3.6-0.3-6.6 2.4-8.9 7.6-6.7 15.8-12.7 24.2-18.3 4.8-3.2 9.8-6.3 14.7-9.3 4.7-2.8 9.3-1.7 11.7 2.4 2.4 4.1 1.1 8.6-3.7 11.3-12.4 7.2-24 15.5-35 24.6-1.9 1.7-4 3.5-6.8 3.1z" fill="#FEFEFE" /></svg>