<?xml version="1.0" standalone="no"?>
<!DOCTYPE svg PUBLIC "-//W3C//DTD SVG 1.1//EN" "http://www.w3.org/Graphics/SVG/1.1/DTD/svg11.dtd">
<svg class="icon" style="width: 1em; height: 1em;vertical-align: middle;fill: currentColor;overflow: hidden;" viewBox="0 0 1024 1024" version="1.1" xmlns="http://www.w3.org/2000/svg"><path d="M851.9 960.8h-4.7c-1.6-0.9-3.3-0.5-5-0.5H184.7c-1.7 0-3.4-0.4-5 0.5h-5.6c-15.6-1.1-29.5-6.8-41.4-16.6-16.3-13.4-26.5-30.4-27.9-51.9 0-0.5-0.2-0.9-0.5-1.3v-3.7c0.9-1.6 0.5-3.3 0.5-5V660.5c0-1.7 0.4-3.4-0.5-5v-0.9c3.3-13.5 13.4-19.9 25.2-16 6.7 2.2 10.9 6.9 13 13.5 1.3 4.4 1.4 8.9 1.4 13.4 0 72.8 0.2 145.5-0.2 218.3-0.1 16.9 13.2 32.5 27.4 36.4 5.4 1.5 10.8 1 16.2 1.1 3.3 0 6.5 0.2 9.8 0 36.6-0.1 73.2 0 109.8 0h522.2c7.3 0.2 14.6 0.3 21.9-0.1 16.6-0.9 32.3-17.2 33-33.8 0.1-1.6 0-3.1 0-4.7V289.3c0-0.8 0.1-1.5-0.3-2.5-10.3 12.8-19.6 26.2-29.8 38.9-14.9 19.1-29.1 38.6-43.7 57.4-0.2 0.7-0.1 1 0.2 1.1 4.7 1.1 7.2 3.5 6.8 6.7-0.4 3-3.4 5.4-7.8 4.9-7-0.8-10.9 2.5-14.9 7.8-36.2 48.3-72.9 96.2-109.2 144.4-4.4 5.8-8.9 11.6-13.2 17.4-1 1.3-3.1 2.6-2.1 4.2 0.9 1.5 3.2 0.6 4.8 0.7 4.7 0.1 9.3 0 14 0 1.4 0 2.8 0 4.2 0.2 3.2 0.6 5.5 2.2 5.5 5.8 0 3.4-2.1 5.5-6 5.6-8.7 0.2-17.4 0.3-26.1 0-5.1-0.2-8.2 1.6-11.2 5.6-32.8 43.8-66.1 87.3-99 131.1-2.3 3.1-5 4.6-8.7 5.5-37.5 9.1-75.2 17.5-113.2 24.9-16.4 3.2-32.9 6.1-49.5 8.4-2.2 0.3-4.3 0.1-6.5 0.3-2.1-0.1-4.2 0.1-6.3 0.5-0.6 0.1 0.3 0.7 0 0.2-0.1-0.2 0-0.3 0.3-0.3 24.6-1.3 49.2-1 73.7-0.5 3.1 1.2 4.5 3.4 3.7 6.6-0.8 3-3.2 3.9-6.1 4.1-1.4 0.1-2.8 0.1-4.2 0.1H234.1c-1.9 0-3.7 0.1-5.6-0.2-2.9-0.5-4.9-2.1-5-5.2-0.1-3 1.4-5 4.3-5.9 2.6-0.9 5.2-0.7 7.8-0.7h101c1.5-0.1 2.5-0.4 1.5-2.2-5.5-10.7-7.1-22.4-9-34.1-4-24.8-6.4-49.8-8.5-74.9-1.6-19.8-2.8-39.6-4.3-59.3-0.9-12-1-24.2-2-36.2-0.3-4 0.9-7.6 3.4-10.8 23.3-30.6 46.2-61.5 69.6-92.1 8.5-11 17.1-13 28.4-7.1 11 9.9 12.1 19.5 3.1 31.3-15.1 19.9-30.1 39.8-45.1 59.8-3.5 4.7-3.5 4.7 1.2 8.3 42 31.4 83.7 63.1 125.6 94.5 9.3 7 18.5 14.1 27.8 21 4.3 3.4 8.8 6.4 13 9.9 2.8 2.3 4.7 2.1 6.8-0.9 4.2-6 8.8-11.6 13.2-17.4 29.7-39.5 59.7-78.9 89.5-118.3 31.6-41.8 63.3-83.6 94.9-125.3 17.7-23.3 35.2-46.9 53.2-70 2.3-3 2.4-4.7-0.9-6.9-4.8-3.1-9-7.1-13.7-10.4-51.3-38.6-102.7-77.1-154.1-115.6-4.2-3.2-4.6-3.1-7.7 1.1-14.5 19.4-29 38.7-43.7 58-2.7 3.6-5.7 7-10 8.8-7.9 3.2-14.9 1.5-21.3-3.6-6-5.9-7.5-13.1-5-20.9 1-3.3 0.2-4.3-3-4-1.1 0.1-2.2 0-3.3 0H200c-2.8 0-5.6 0.1-8.4 0-6-0.1-12.1-0.4-18.1 0.9-17.7 4-29.6 18.7-29.6 36.8v134c0 4.1-0.2 8.1-1.2 12-2 7.6-7 12.4-14.3 14.5-7.4 2.1-13.7-0.5-19.2-5.5-3.2-2.9-3.8-6.9-4.8-10.8v-0.9c0.8-1.3 0.5-2.7 0.5-4.1V277.1c0-1.4 0.4-2.8-0.5-4.1v-2.8c1.2-7.3 1.7-14.7 4.5-21.7 12-29.9 40.7-49.5 72.9-49.5 128 0 256 0 384 0.1 6 0 9.9-1.7 13.6-6.7 23.7-32.1 47.8-63.8 72-95.6 13.1-17.2 30.1-28.3 51.6-31.2 27-3.6 51.5 2.3 73.5 19.3 31.7 24.4 64.1 47.9 95.7 72.5 21.4 16.7 33.1 39.1 35.2 66.2 0.3 3.2 1.2 6 3 8.6 9.5 13.5 13.5 28.4 13.5 45.1-0.2 203.1-0.1 406.2-0.2 609.3 0 29.6-14.8 50.8-39.8 65.4-10 5.7-20.7 8.4-32 8.8z" fill="#030000" /><path d="M104.3 505.5c1.6-0.7 1.2-2.4 1.6-3.6 3.2-8.3 11.1-13.2 19.8-12.1 8.3 1 15 7.7 16 16.2 0.2 1.5 0.3 3.1 0.3 4.6v85.1c0 11-5.8 18.8-15.1 20.5-9.6 1.7-17.3-3.1-21.5-13.5-0.2-0.6-0.4-1.2-1.1-1.3v-0.9c0.8-1.1 0.5-2.4 0.5-3.6v-86.8c0-1.2 0.3-2.5-0.5-3.6v-1z" fill="#030000" /><path d="M179.7 960.8c1.1-1.7 2.8-0.9 4.2-0.9H843c1.4 0 3.1-0.9 4.2 0.9H179.7z" fill="#888787" /><path d="M104.3 655.4c1.9 1.2 0.9 3.1 0.9 4.6 0.1 74.3 0.1 148.7 0 223 0 1.4 1 3.1-0.9 4.2V655.4z" fill="#878686" /><path d="M104.3 272.8c1.6 0.7 0.9 2.1 0.9 3.2v140.6c0 1.1 0.7 2.5-0.9 3.2v-147zM104.3 506.5c1.7 0.9 0.9 2.5 0.9 3.7 0.1 29 0.1 58.1 0 87.1 0 1.1 0.7 2.5-0.9 3.2v-94z" fill="#888787" /><path d="M196.4 922.7c-5.1-8.1-7.4-17-7.4-26.5V250.4c0-4.4 0.6-8.6 1.6-12.9 1.2-0.1 2.5-0.2 3.7-0.2h351.9c-5.9 10-5.1 19 3.2 27 0.4 2.3-1.2 3.8-2.4 5.3-3 3.6-5 8.2-9.1 10.9-1.3 0.1-2.3-0.7-3.5-1.2-9.6-4.2-17-2.5-23.4 5.8-9.4 12.5-18.9 24.9-28 37.6-11.8 16.5-23.8 32.8-35.9 49.1-7.6 10.2-7.7 15.2-0.7 26.1 0.4 0.7 0.8 1.3 0.9 2.1 0.1 1.8-0.9 3.2-2 4.6-8.7 11.3-17.3 22.7-25.8 34.1-0.9 1.2-1.5 2.8-3.5 2.6-12.1-6.2-19.9-4.3-28.2 6.6-23 30.6-46.1 61.2-69.2 91.7-2.3 3-3.3 5.9-3.1 9.7 2.5 46.1 5.1 92.3 10.3 138.2 2.2 19.5 4.4 39.1 10 58.1 1.3 4.3 2.7 8.5 6.7 12.1-2.2 0.1-3.8 0.2-5.4 0.2H232.4c-1.7 0-3.4 0-5.1 0.3-2.5 0.5-3.6 2.3-3.4 4.8 0.2 2.3 1.5 3.7 3.8 4 1.1 0.1 2.2 0.2 3.2 0.2H443.1c2.4 0 4.4-0.6 5.2-3 0.8-2.5 0.1-4.6-2.6-5.7-1.6-0.8-3.3-0.4-5-0.4-19.3 0-38.5 0-57.8-0.1-1.4 0-3.4 1.3-4.1-1.2 19.6-2.1 38.9-5.8 58.2-9.6 36.9-7.2 73.6-15.6 110.2-24.3 3.2-0.8 5.4-2.2 7.4-4.9 33.3-44.2 66.8-88.3 100.1-132.5 2.6-3.4 5.1-5 9.5-4.8 9 0.4 18 0.1 27 0.1 3.3 0 6.1-0.7 6.1-4.7 0-3.9-2.9-4.7-6.1-4.7h-24.4c-0.7-1.5 0.3-2 0.8-2.7 43.2-57.1 86.5-114.2 129.7-171.3 1.7-2.2 3.4-3.3 6.2-3 2.3 0.2 4.7 0 7 0.1 3.3 0.1 5.6-1.4 5.6-4.8-0.1-3.1-2.2-4.6-5.4-4.5h-4c15.4-20.3 30.4-40 45.4-59.7 2 0.8 1.8 2.7 2 4.3 0.2 1.9 0.1 3.7 0.1 5.6 0 181.6 0 363.2 0.1 544.8 0 14.6-5 26.5-15.6 36.4-2.8 2.6-5.9 4.4-9.4 5.7-2.3 0.1-4.6 0.3-7 0.3H201.4c-1.6 0.4-3.3 0.2-5 0.1z" fill="#68CAFE" /><path d="M538 280.2c3.9-5.3 7.7-10.5 11.6-15.8 11.9 6.4 20.1 4.6 28.2-6.2 15.1-20 30.2-40.1 45.3-60.2 1.8-2.4 2.8-3.2 5.7-1 51.4 38.8 103 77.5 154.5 116.2 0.6 0.5 1.1 1 1.7 1.5 1.1 2-0.4 3.2-1.4 4.5-25.3 33.2-50.4 66.6-75.6 99.8-13.7 18-27.3 36.1-41 54.2-33.1 43.7-66.1 87.3-99.2 131-11.9 15.7-23.7 31.5-35.7 47.1-1.2 1.6-2 3.6-4.2 4.2-15.8-11.8-31.6-23.5-47.3-35.3-36.3-27.3-72.6-54.7-108.9-81.9-2.6-2-2.7-3.1-0.8-5.6 15.7-20.6 31.3-41.3 46.8-62 8.5-11.3 8.1-19.1-1.4-29.2 10.4-13.8 20.8-27.5 31.1-41.3 1.9-0.8 3.3 0.6 4.8 1.1 7.9 2.9 15 1.3 20.5-5.3 7.7-9.1 14.4-19 21.4-28.6 14.1-19.2 27.9-38.6 42.3-57.6 1.5-2 2.9-4 4.2-6.1 4-6.5 3.6-12.9-0.5-19.2-0.9-1.3-2.6-2.3-2.1-4.3z" fill="#FEDD5D" /><path d="M829.4 922.7c3.5-3.3 7.6-5.7 10.9-9.2 8-8.7 12.6-18.7 12.6-30.5V330.4c0-1.5 0.4-3.1-0.7-4.5 10.8-14.4 21.6-28.7 32.7-43.4 1.5 1.8 0.9 3.7 0.9 5.4v593.3c0 21.1-11.8 36.8-31.3 41-8.3 1.7-16.8 0.9-25.1 0.5z" fill="#1C8EF0" /><path d="M808.3 284c-25.5-19.1-51.1-38.2-76.6-57.3-26.6-20-53.2-40-79.9-59.9-2.6-1.9-2.9-3-0.8-5.6 9.8-12.6 19.8-25 28.8-38.3 15.8-23.4 44.2-24.7 64.2-13.2 10.4 6 19.4 13.9 28.9 21 23.6 17.6 47 35.4 70.5 53.1 1.3 1 2.6 2.2 3.9 3.3 4.6 7.4 4.4 15.7 4.3 23.8-0.1 14.7-6.1 27.2-15 38.6-8 10.2-15.9 20.6-23.6 31-1.3 1.6-2.2 3.6-4.7 3.5z" fill="#FEDD5D" /><path d="M527.8 655.4c8-12 17.2-23.1 25.8-34.6 19.5-26 39.2-51.8 58.8-77.7 31.4-41.5 62.7-82.9 94.1-124.4l72-95.1c2.2-2.9 5.1-5.4 6.4-9 5.1 3.8 10.1 7.6 15.4 11.2 2.6 1.8 2.8 3 0.8 5.7-15.6 20.3-31 40.7-46.4 61.1-68.5 90.5-137 180.9-205.6 271.4-3.7 4.9-3.8 5-8.6 1.3-4.2-3.2-8.5-6.6-12.7-9.9z" fill="#EC8B1C" /><path d="M365.1 699.2c-3.7-25.5-5.7-51.1-7.6-76.7-1.2-16.5-2.2-33-3.3-49.4 1.7-0.6 2.4 0.5 3.2 1.1 43.8 32.9 87.6 65.9 131.4 98.9 0.4 0.3 0.6 0.7 0.9 1-0.6 2.7-3 2.4-4.8 2.8-33.5 7.7-67.1 14.8-100.9 20.8-4.4 0.8-8.8 1.7-13.3 2.4-1.9 0.2-3.9 0.7-5.6-0.9z" fill="#FEDD5D" /><path d="M365.1 699.2c13.4-1.3 26.5-4.2 39.7-6.8 28-5.6 55.9-11.7 83.8-17.6 0.4-0.1 0.8-0.5 1.1-0.7 8.1 5.9 16.1 11.9 25 18.5-11.6 2.6-22.1 5.1-32.6 7.4-33.4 7.3-66.9 14.4-100.8 19.3l-5.1 0.6c-8.2 1-8.3 1.1-9.4-7.3-0.5-4.5-1.1-8.9-1.7-13.4zM808.3 284c7.7-10 15.5-20 23.2-30.1 4.8-6.4 10-12.5 13.4-19.9 6.6-14.4 7-29.1 2.8-44.2-0.2-0.9-0.3-1.8-0.5-2.7 18.1 12.4 31.5 44.1 11.3 68.7-10.4 12.7-20 26.1-29.8 39.3-1.6 2.2-2.6 2.8-5 0.8-5-4.2-10.2-8-15.4-11.9z" fill="#EC8B1C" /><path d="M379 757c1.2 1.8 3.1 0.9 4.6 0.9 19 0.1 38 0 57 0.1 1.8 0 3.7-0.6 5.3 0.8h-77.2v-0.7c3.5-0.4 6.9-0.8 10.3-1.1z" fill="#203948" /><path d="M538 280.2c8.4 9.8 8.7 17.5 1.1 27.8-21.1 28.6-42.1 57.3-63.3 85.9-8.2 11.1-16.6 12.8-28.5 6.2-8.9-9.5-9.3-17.7-1.6-28.2 21.1-28.7 42.2-57.4 63.4-86.1 8.2-11.1 17.2-12.8 28.9-5.6z" fill="#030000" /><path d="M743 767.4h-64.2c-1.4 0-2.8 0-4.2-0.1-2.5-0.2-4-1.7-4.2-4.1-0.2-2.7 1.4-4.4 4-4.9 1.2-0.3 2.5-0.2 3.7-0.2h133.4c2.8 0.3 4.8 1.9 4.7 4.8-0.1 2.9-1.9 4.4-4.9 4.5H743z" fill="#040102" /><path d="M295.7 385.5H359c1.4 0 2.8-0.1 4.2 0.1 2.4 0.5 3.8 2 3.8 4.6s-1.4 4-3.9 4.5c-1.2 0.2-2.5 0.1-3.7 0.1H231.9c-1.2 0-2.5 0.1-3.7-0.1-2.5-0.4-3.9-1.8-4-4.4-0.1-2.8 1.4-4.4 4.1-4.8 1.2-0.2 2.5-0.1 3.7-0.1 21.2 0.1 42.4 0.1 63.7 0.1z" fill="#030000" /><path d="M544 767.4h-62.4c-1.4 0-2.8 0-4.2-0.1-2.5-0.3-3.9-1.9-3.9-4.4-0.1-2.5 1.3-4.1 3.8-4.6 1.4-0.2 2.8-0.2 4.2-0.2H607.6c3.5 0 6.9 0.3 6.9 4.9-0.1 4.3-3.4 4.5-6.7 4.5-21.3-0.1-42.5-0.1-63.8-0.1z" fill="#040102" /><path d="M255.1 581.1c-11.9 0-23.9-0.1-35.8 0-3.5 0-6.5-0.6-6.5-4.8 0.1-3.8 3-4.6 6.3-4.6h72.6c3.4 0 6.5 0.7 6.4 4.9 0 4-3 4.5-6.2 4.5-12.3-0.1-24.6 0-36.8 0zM773.8 581.1H738c-3.2 0-6.2-0.4-6.3-4.3-0.2-4.2 2.8-5 6.3-5h72.1c3.3 0 6.2 1 6.2 4.7s-2.7 4.7-6.1 4.7c-12.2-0.2-24.3-0.1-36.4-0.1z" fill="#030101" /><path d="M578.1 316.3c-0.1 3.7-2.1 5.8-3.8 8-16.3 21.1-32.7 42.1-49.1 63.1-32.2 41.3-64.3 82.6-96.5 123.9-3.6 4.7-7.8 5.7-11.5 2.9s-3.8-7.3-0.3-11.9c42.4-54.5 84.8-109.1 127.3-163.6 6.8-8.7 13.4-17.5 20.4-26 4.1-5 9.8-4.5 12.6 0.7 0.5 1.2 0.8 2.4 0.9 2.9zM637.7 240c0.1 2-0.7 3.7-1.8 5.1-10.1 12.9-20.1 25.9-30.3 38.8-2.4 3.1-5.5 4.4-9.4 2.6-3.4-1.7-4.7-4.5-3.9-8.1 0.3-1.6 1.3-3.2 2.3-4.5 9.8-12.7 19.7-25.4 29.7-38.1 2.2-2.8 5.2-3.9 8.7-2.6 2.9 1.2 4.5 3.6 4.7 6.8zM723.9 121.7c9.8-0.6 17.6 4.7 25.4 9.3 11.1 6.5 21 14.8 31.2 22.7 3.8 3 4.3 7.2 1.7 10.6-2.7 3.5-7 4-11.1 0.9-10.3-7.9-20.7-15.7-31.6-22.9-16.3-10.8-30.2-3.9-40.4 4.4-4.4 3.6-8 8.1-11.6 12.6-3.2 4-8.7 4-11.6 0.3-2-2.6-2.5-5.5-0.6-8.2 11.6-17.3 26.9-28.8 48.6-29.7zM803.1 173.3c1.6 0 3.1 0.6 4.3 1.6 5.8 4.7 11.6 9.3 17.2 14.3 3.8 3.4 4.1 7.3 1.3 10.7-2.8 3.3-6.8 3.7-10.7 0.6-5.8-4.7-11.5-9.5-17.1-14.3-2.8-2.4-2.8-5.5-1.6-8.5 1-3 3.7-4 6.6-4.4z" fill="#FEFEFE" /></svg>