<?xml version="1.0" standalone="no"?>
<!DOCTYPE svg PUBLIC "-//W3C//DTD SVG 1.1//EN" "http://www.w3.org/Graphics/SVG/1.1/DTD/svg11.dtd">
<svg class="icon" style="width: 1em; height: 1em;vertical-align: middle;fill: currentColor;overflow: hidden;" viewBox="0 0 1024 1024" version="1.1" xmlns="http://www.w3.org/2000/svg"><path d="M733.3 959.5c-6.5-2.2-13.4-2.3-20.1-3.5-40.3-7.6-76-24.5-105.2-53.4-72.9-72.2-145.3-144.8-217.6-217.6-27.9-28.1-43.9-62.7-50.8-101.4-8.6-47.7-2.9-93.6 18.9-137.2 5.3-10.6 11.8-20.5 18.8-30 12.7-17.4 35.3-24.7 55.8-18.4 21 6.4 35.1 24.9 36.6 46.6 1 15-3.4 27.7-13.5 38.8-16.9 18.7-20.4 41.2-16.8 65 5.2 34.6 22.4 63 46.7 87.4 56.8 57 113.7 113.9 170.6 170.7 22.5 22.5 48.8 38.6 80.2 45.4 2.7 0.6 5.4 1.1 8.2 1.4 9.8 1.2 13.7 5 15.1 14.8 1 7.2-5 13.7-13.3 14.1-6.5 0.3-12.8-1.3-19.1-2.7-23.2-5.2-44.2-15.6-63.7-29-16-11.2-29.3-25.3-43-39-53.3-53.3-106.8-106.4-159.8-160-25.6-26-42.6-57-49.6-93.1-4.6-23.8-3.1-47.1 6.7-69.6 3.8-8.8 9.1-16.8 15.5-23.9 5-5.6 6.9-11.7 6.8-19.2-0.1-11.7-14.1-23.5-25.9-20.7-6.9 1.2-11.8 5.3-15.9 10.9-14.8 20-24.4 42.3-29.7 66.5-2.3 10.4-3.4 20.9-4 31.5-1.2 20.3 1.1 40.2 6.4 59.7 7.6 28 20.9 52.7 41.7 73.3 71.4 71.1 142.6 142.4 213.8 213.7 20.6 20.6 45.2 34.2 73 42.5 19.2 5.7 38.8 8.4 58.8 7.4 19.8-1 39-4.9 57.4-12.7 14.7-6.2 28-14.6 40.1-25.1 14-12 24.9-26.3 33.3-42.6 9.2-18.1 14.5-37.4 16.4-57.7 2-21.2 0-42-5.5-62.5-8.1-30.3-22.9-56.9-45.1-79.3-30.7-31-61.7-61.8-92.6-92.6-3.1-3.1-5.7-6.4-6.9-10.7-1.2-4.6 0.6-9.7 4.5-12.4 8.6-6.1 14.5-5.6 22 1.9l91.6 91.6c35.5 35.6 55.3 78.6 60.7 128.4 0.1 0.8-0.3 1.9 0.9 2.3v3.7c-0.6 0.6-0.6 1.2 0 1.8v3.7c-0.8 1.8-0.8 3.7 0 5.5v12.9c-0.6 0.5-0.5 1.2-0.5 1.8 0 0.7-0.1 1.3 0.5 1.8v4.6c-1 11.9-2.7 23.7-6.2 35.2-16.1 53.9-49.7 92.4-101.3 115-14.4 6.3-29.5 10.4-45.1 12.8-4.8 0.7-9.8 0.3-14.5 1.3h-1.8c-0.6-0.6-1.2-0.6-1.8 0h-16.6c-1.8-0.8-3.7-0.8-5.5 0-3.5 0.3-6.6 0.3-9.6 0.3z" fill="" /><path d="M282.8 99.1c5.1 2 10.7 1.7 16 2.6 42.2 7 79.7 24.1 110.2 54.2 73 72.3 145.6 145 217.9 217.9 27.9 28.1 43.7 62.8 50.7 101.5 8.5 47.7 2.7 93.6-19.1 137.1-5.2 10.5-11.6 20.2-18.6 29.6-16.8 22.7-48.7 27.5-71.4 10.9-22.9-16.8-28.1-49-11.3-71.7 22.6-30.4 25.7-63.6 13.9-98.6-7.7-22.7-21.8-41.5-38.6-58.3-56.6-56.8-113.4-113.5-170.2-170.3-7.3-7.3-8-12.7-2.7-21.3 3.8-6.1 12.6-7.3 19-2.6 1.5 1.1 2.8 2.5 4.1 3.8 58.4 58.4 117 116.5 175 175.2 23.9 24.2 40.9 52.8 46.7 86.8 6.3 37.2-0.7 71.8-23.8 102.4-4.8 6.3-5.5 17.3-1.4 24 5.2 8.7 14.6 13.1 23.8 11.3 6.3-1.1 10.8-4.7 14.6-9.7 20.1-26.8 31.3-57.2 34-90.4 4-48.6-7.2-93.1-38.2-131.7-1.7-2.2-3.7-4.1-5.6-6.1-73.6-73.7-147.2-147.4-221-220.9-15.7-15.6-34.6-26.5-55.3-34.3-23.4-9.2-47.6-13.5-72.7-12.4-35.5 1.6-67.9 12.4-95.5 35.6-28.9 24.3-45.3 55.8-50.9 92.9-5.4 35.8 0.3 70.1 15.7 102.8 9.4 20 22.3 37.4 38 52.9 31.4 31 62.5 62.3 93.6 93.6 6.2 6.2 13.2 8.7 21.8 6.6 10.9-3.3 16.6-10.2 17.8-21.7 0.8-7.8 4.5-12.7 10.4-13.8 12.7-2.1 19.7 4 18.5 16.9-2 22-13.9 37.3-34.2 45-20.3 7.7-38.9 3.3-54.3-11.9-31.5-31.3-62.5-63.2-94.1-94.4-36.2-35.7-56.9-78.7-62.8-129-0.1-1.1 0.6-2.6-1.1-3.2v-4.6c0.6-0.6 0.6-1.2 0-1.8v-15.7c0.8-1.8 0.8-3.7 0-5.5v-9.2c1-11.9 2.7-23.7 6.2-35.2 17.9-59.2 55.9-99.2 114.2-119.9 14.5-5.2 29.6-8 44.9-9.2h5.5c0.5 0.6 1.2 0.5 1.8 0.5 0.7 0 1.3 0.1 1.8-0.5H269c1.8 0.8 3.7 0.8 5.5 0h3.7c0.6 0.6 1.2 0.6 1.8 0 1-0.2 1.9-0.2 2.8-0.2z" fill="" /><path d="M274.5 99.1c-1.8 1.5-3.7 1.3-5.5 0h5.5z" fill="#171717" /><path d="M81.6 272.7c1.5 1.8 1.4 3.7 0 5.5v-5.5z" fill="#262626" /><path d="M935.4 773.9c-1.4-1.8-1.5-3.7 0-5.5v5.5z" fill="#141414" /><path d="M742.5 959.5c1.8-1.5 3.7-1.3 5.5 0h-5.5z" fill="#161616" /><path d="M254.1 99.9c-0.7 0.1-1.5 0.3-1.8-0.8h1.8c0.3 0.2 0.4 0.4 0.3 0.5 0 0.2-0.2 0.3-0.3 0.3z" fill="#707070" /><path d="M254.1 99.9c0-0.3 0.1-0.5 0.1-0.8h1.8c-0.4 0.9-1.1 1-1.9 0.8z" fill="#4E4E4E" /><path d="M280 99.1c-0.6 1.4-1.2 1.2-1.8 0h1.8z" fill="#797979" /><path d="M81.6 293.9c1.2 0.6 1.3 1.2 0 1.8v-1.8z" fill="#777777" /><path d="M935.4 764.7c-1.1-0.6-1.3-1.2 0-1.8v1.8z" fill="#727272" /><path d="M934.6 788.7c-0.1-0.8-0.1-1.5 0.8-1.9v1.8c-0.2 0.5-0.5 0.5-0.8 0.1z" fill="#535353" /><path d="M934.6 788.7h0.8v1.8c-1-0.2-0.9-1-0.8-1.8z" fill="#707070" /><path d="M764.7 959.5c0.6-1.2 1.2-1.4 1.8 0h-1.8z" fill="#858585" /><path d="M816.3 918.7c-18.7 8.5-38.6 12.5-59 12.9-53 1-98.5-16.9-136.1-54.7-67.4-67.7-134.7-135.5-202.7-202.5-31.1-30.7-49.1-67-53.7-110.2-4.5-41.8 3.2-81 25.1-117.2 2.9-4.7 6-9.3 9.3-13.7 3.9-5.3 9-8.8 15.7-9.4 4-1.1 6.4 0.7 7.9 4.3 6.4 15.3 7.6 30-4.2 43.6-7.6 8.8-14 18.3-17.7 29.5-5 15.2-6.4 30.6-4.1 46.4 4.8 32.7 19.3 60.7 40.6 85.5 5.4 6.3 11.3 12.1 17.2 18 53.2 53.2 106.5 106.3 159.5 159.6 13.2 13.3 27.6 24.9 43.6 34.7 2.2 1.4 4.3 3 6.6 4.2 16.9 11 34.5 20.6 54 26.2 7.2 2.1 14.6 3.6 22 4.8 11.5 1.8 16.7-1.5 19.7-12.5 17.6-0.5 34.3-4 49-14.6 1.4-0.6 2.3 0.4 3.3 1.1 6.4 4.1 11.5 3.7 17-1.7 13.4-13 21-29.1 24.5-47.1 5-25.6 1.1-50.5-8.1-74.6-10-26.1-25.3-48.7-45-68.5-25.2-25.3-50.4-50.5-75.7-75.7-2.6-2.6-5-5.4-7-8.6-9.4-15.3 1.9-36.3 19.8-37.1 0.6 0 1.2 0.1 1.8 0.3 2.1 1.1 3.5 2.9 5.2 4.6 31.5 31.5 63.1 62.9 94.5 94.6 18 18.2 31 39.7 40.3 63.4 9.9 25.2 14.6 51.5 13.4 78.5-1.7 39.4-14 74.9-40 105.3-10.4 12.2-22.3 23-36.7 30.6z" fill="#69CAFE" /><path d="M281.7 513.6c-8.7 2.8-16.1 0.2-22.3-5.9-32.1-32.1-64.1-64.2-96.1-96.4-37.3-37.5-55.1-82.9-54-135.6 1.7-76.7 56.3-137.1 132.4-147.1 30.9-4.1 60.9-0.7 89.9 11C343 145 353.2 152 362.8 160c4.7 4 9.4 7.9 13.7 12.3 69.3 69.3 138.6 138.6 207.9 207.8 31.1 31 49 68.5 54.7 111.9 4.7 36.2 0.5 71.4-13.6 105.3-4.5 10.8-10 21.1-16.5 30.9-1.6 2.4-3.1 5-5.9 6.4-8.8 2.2-18.6-1.8-24-9.8s-5.4-19 0.2-26.9c34.3-48.1 33.6-97.9 6.7-148.6-8.5-16-19.7-30-32.5-42.8-57.6-57.7-115.2-115.3-172.8-172.9-6.7-6.7-13.3-6.9-21.2-0.7-12.2-11.2-26.1-19.8-40.8-27.4-0.9-0.9-0.7-2-0.6-3 0.3-7.9-2.5-12.2-10.1-15.1-10.2-3.9-20.8-6.5-31.7-8-18.4-2.7-36.5-1.5-54.1 4.6-12.4 4.3-23.6 10.5-32.8 19.9-1.2 1.2-2.4 2.4-3.9 3.2-8.4 3.7-14.8 10-20.4 16.9-12 14.7-17.4 31.9-17.9 50.8-0.9 33.2 10.7 62.2 29.1 89.1 10.9 15.9 24.9 28.6 38.7 41.8 18.9 18 38.7 35.2 55.2 55.6 6.4 7.9 11.8 16.6 15.5 26.1 3.8 9.1 2.5 18.2-4 26.2z" fill="#FEDD5D" /><path d="M184.9 206.1c15.3-15.4 33.7-24.8 55.2-28.1 24.6-3.7 48.3 0.3 71.3 9.2 6.9 2.7 9.3 9.1 7.5 18.1-6.2 8.6-10.6 10-20.9 6.4-19.3-6.7-39-9.8-59.3-5.2-29.9 6.8-49.5 30.9-51 62-1.4 29.8 8.5 56.1 24.3 80.5 7.5 11.7 16.5 22.1 26.7 31.6 20.3 18.8 40.4 37.8 59.6 57.8 7.6 7.9 7.9 14 1 22.6-3.9 4.5-10.8 5.3-16.7 1.8-3.9-2.3-6.9-5.7-9.8-9-12.2-13.7-25.6-26.1-39.3-38.3-30.4-27-55.6-57.4-67.9-96.9-7.6-24.2-9.7-48.8-3.2-73.6 2.9-11.1 8-21.3 14.4-30.8 2.3-3.1 4.9-5.9 8.1-8.1zM739.8 542.4c-10.5 0.2-18 5.1-22 14.6-4.1 9.8-2 18.8 5.5 26.3 23.6 23.8 47.2 47.7 71.1 71.2 19.7 19.3 36.7 40.5 48.2 65.8 10.3 22.7 16 46.5 14.3 71.6-1.5 22.9-9.2 43.5-25 60.5-7.5 8-14.5 8.4-22.8 1.2-4.5-8.2-3.9-13.1 2.4-19.9 11.4-12.3 16.7-27 17.7-43.4 1.7-28.9-7.9-54.6-23-78.6-7.4-11.8-16.4-22.3-26.2-32.1-25.8-25.8-51.7-51.4-77.2-77.5-26.2-26.8-15.9-71.4 19.2-84.3 4.2-1.5 8.6-2.4 13-2.9 11.9-1.4 18.4 4.4 18.5 16.4-0.3 7.4-6.8 12.7-13.7 11.1z" fill="" /><path d="M739.8 542.4c7.2-0.5 11.4-4.7 13.7-11.2 2.4 1 4.8 1.9 6.7 3.7-5.6 8.8-5 14.1 2.5 21.6 29.7 29.7 59.2 59.5 89 89 32.8 32.4 51.6 71.3 55.2 117.3 3.5 45.1-8.2 85.5-38.7 119.6-14.4 16.1-31.8 28.4-52 36.3 10.2-7.5 20.6-14.9 29.5-24.2 22.2-23.3 36.3-50.7 42.7-82.2 3.1-15.1 4.4-30.4 3.5-45.8-1.8-30.7-9.8-59.8-25-86.7-10-17.7-22.7-33-37.1-47.3-29-28.6-57.7-57.6-86.5-86.4-1.2-1.1-2.3-2.4-3.5-3.7z" fill="#1C8EF0" /><path d="M184.9 206.1c-13.4 15.3-21.5 33-24.1 53.3-3.1 24.9 1.1 48.7 10.5 71.7 11.2 27.6 28.2 51.2 50.2 71.4 19.3 17.8 38.4 35.9 56.6 54.9 7.2 7.5 12.2 8.3 21.2 3.6 4 5 6.9 10.7 10.3 16-6.1 3-8.8 7.9-9.1 14.6-0.5 10.6-8.7 19.9-18.8 21.9 1.9-4.8 4.2-9.5 4.8-14.8 1.1-8.3-3.3-14.8-6.9-21.5-5.5-10.4-13-19.4-21.1-27.8-18.2-18.8-37.2-36.7-56.3-54.5-25.8-24-44.2-52.5-52.6-86.9-6-24.3-5.6-48.4 5.8-71.3 5.9-11.8 14.5-21.2 25.4-28.6 1.3-0.9 2.5-1.8 4.1-2z" fill="#EC8B1C" /><path d="M664.3 849.5c-9.5-3.8-17.6-9.8-25.8-15.8-8.1-6-15.7-12.8-22.9-20-56.3-56.4-112.6-112.7-168.9-169-20.7-20.7-36.5-44.6-45.6-72.6-4.4-13.6-7.1-27.7-6.6-42 0.6-21.1 6.8-40.3 21-56.6 12.2-14 14-29.6 6-45.5-1.5-3-3.4-4.5-6.7-4.3 12.4-2.5 25.3 7.6 26.9 20.4 1.1 8.9-2.1 15.6-7.6 22.1-21 24.4-26.7 53.1-22.5 84.1 5.4 40.4 24.6 74 52.7 102.7 32.3 32.9 65.2 65.3 97.8 98 11.6 11.6 23.1 23.4 34.9 34.9 22.2 21.6 42.5 45 67.3 63.6z" fill="#1C8EF0" /><path d="M603.2 634.5c17.4-24 28.6-50.6 33.5-79.9 3.2-19 3.9-38 1.8-57.2-2.5-23.6-8.7-46.1-19.1-67.3-7.1-14.4-15.8-27.7-26.9-39.4-28.9-30.4-59.1-59.6-88.7-89.3-41.3-41.5-82.8-82.9-124.2-124.3-13.7-13.8-28.5-26.1-45.7-35.4-1-0.5-1.9-1-2.2-2.2 17.5 6 33 15.5 47.4 26.9 5.4 4.3 10.4 9.1 15.3 14 69.4 69.4 138.6 138.9 208.1 208.1 29.1 29 44.8 64.1 49.5 104.4 4.5 38.4-1.6 75-19.6 109.4-4.3 8.2-9.5 15.8-14.9 23.3-3.4 4.9-8.1 8.3-14.3 8.9z" fill="#EC8B1C" /></svg>