<?xml version="1.0" standalone="no"?>
<!DOCTYPE svg PUBLIC "-//W3C//DTD SVG 1.1//EN" "http://www.w3.org/Graphics/SVG/1.1/DTD/svg11.dtd">
<svg class="icon" style="width: 1em; height: 1em;vertical-align: middle;fill: currentColor;overflow: hidden;" viewBox="0 0 1024 1024" version="1.1" xmlns="http://www.w3.org/2000/svg"><path d="M955.4 212.5v3.7c-0.9 1.6-0.5 3.3-0.5 5v657.2c0 1.7-0.4 3.4 0.5 5v3.7c-0.8 13.2-4.7 25.3-12 36.4-13.6 20.9-32.6 33.6-57.4 37.3-5.6 0.8-11.4 0.7-17 0.7-237.8 0-475.5 0-713.3 0.2-22 0-41.8-5-58.5-19.7-17.2-15.2-27.6-34-28-57.5-1-65.3-0.2-130.6-0.4-195.8 0-4.2-0.2-8.6 1.9-12.6 4.3-8 13.3-11.8 22.5-9.6 8.6 2.1 14.3 9.3 14.3 18.6 0.1 46 0 92.1 0 138.1v49c0 5.7 0.5 11.4 1.8 17 3.9 17.3 18.3 30.3 36 32.7 1.1 0.1 2.1 0.2 3.2 0.4 6.3 1.4 12.6 0.4 18.9 0.7h685c8.5 0 16.9-0.1 25.4-1 20.3-2.2 36-18 38.1-38.4 0.6-6.1 0.9-12.3 0.9-18.4V382c0-11.4 0.5-10.4-10.6-10.5-8.9-0.1-17.9 0.2-26.8-0.2H160.2c-15.2 0.2-30.5 0-45.7 0.1-6.6 0-7 0.4-7 7.1 0 15.5 0.1 31.1 0 46.6-0.1 9.2-5 16.1-13.3 19-7.8 2.7-16.3 0-21.9-6.8-3.8-4.6-3.6-10.1-3.6-15.4-0.1-39.3 0-78.5 0-117.8 0-26.8-0.2-53.6 0.1-80.4 0.1-9.8 0.2-19.6 3.5-29.2 11.6-34.3 43.1-57.1 79.2-57.1h196.7c10.6 0 9.6 0.7 9.6-9.8V86c0-3.1 0.1-6.2 1.4-9.1 2.9-6.4 6.9-11.3 14.6-11.6h7.8c9.8 1.5 15.8 8.6 16 19.3 0.2 14.5 0 28.9 0.1 43.4 0 10-0.5 9.3 9.3 9.3h191.2c8.2 0 8.2 0 8.2-8.1 0-15.4-0.1-30.8 0.1-46.2 0.1-10.1 6.1-16.6 15.8-17.7h6.8c8.4 0.6 13.8 5.2 15.9 13.5 0.9 3.7 1.3 7.6 1.3 11.4v40.6c0 6.3 0.1 6.4 6.5 6.4h219.8c37.2 0 69.1 23.5 80.2 59 1.7 5.4 1.4 10.9 2.6 16.3z" fill="#030000" /><path d="M381.6 64.7c-0.2 0.3-0.1 0.6 0.1 0.8h-7.5c0.2-0.3 0.2-0.6 0.1-0.8h7.3z" fill="#939191" /><path d="M622.7 65.5c0.1-0.3 0.1-0.5 0.1-0.8h6.5c0 0.3 0 0.5 0.1 0.8h-6.7z" fill="#919090" /><path d="M880.6 332.5c-1.7 0.1-3.4 0.2-5.1 0.2H162.2c-1.1 0-2.1-0.1-3.2-0.2-1.7-1.7-1.5-4-1.5-6.1V181.7c0-2.1-0.2-4.4 1.5-6.1 6.3-0.1 12.6-0.1 18.9-0.1 59 0 117.9 0 176.9-0.1 3.8 0 4.8 0.8 4.8 4.7-0.3 15.1-0.1 30.2-0.1 45.3 0 11.6 7.7 20 18.3 20.1 10.8 0.1 18.6-8.4 18.6-20.3 0-15.4 0.1-30.8-0.1-46.2 0-2.7 0.5-3.7 3.5-3.7 68.1 0.1 136.1 0.1 204.2 0 3.3 0 3.7 1.3 3.7 4-0.1 15.7-0.2 31.4 0 47.1 0.1 13 11.3 21.6 23.5 18.2 7.7-2.1 13.1-8.7 13.3-17.4 0.3-11.2 0.1-22.5 0.1-33.7 0-5.1 0.1-10.2 0-15.2-0.1-2.2 0.5-3.2 2.8-2.9 0.5 0.1 0.9 0 1.4 0h195.9c0.9 0 1.8 0.1 2.8 0.1 15.5 1.2 30.8 19.1 33.5 35.7 0.7 4.4 1.2 8.8 1.1 13.3-0.1 33.4 0 66.8-0.1 100.2-0.1 2.8 0.5 5.6-1.4 7.8z" fill="#FEDD5D" /><path d="M879.8 369.8c11.7 0 23.4 0 35.1-0.2 2.4 0 3.5 0.7 3.2 3.1-0.1 0.9 0 1.8 0 2.8 0 166.5 0 332.9 0.1 499.4 0 16.8-5.4 30.7-19.4 40.7-8.2 5.9-17.5 8.1-27.4 8.1-8.2 0-16.3 0.1-24.5 0.1H173.4c-2 0-4-0.2-6-0.2 0.2-0.6 0.6-1 1.2-1.3 3-1 6.1-0.6 9.2-0.6h662.7c6.4 0 12.8 0.6 18.6-3.8 7.5-5.6 13.2-12.4 16.6-21.1 1.4-3.8 2-7.7 2.9-11.6 1.1-2.8 0.7-5.8 0.7-8.7V371.7c0-0.3 0.1-0.6 0.1-0.9 0.1-0.5 0.2-0.7 0.4-1z" fill="#1C8EF0" /><path d="M158.9 175.7v156.8c-16.5 0.1-32.9 0-49.4 0.2-3.7 0-2.9-2.3-2.9-4.3V254c0-12.5-0.4-25 0.4-37.4 1.5-23.4 20.6-40.9 44-41.2 2.7 0.1 5.3 0.3 7.9 0.3z" fill="#FEFEFE" /><path d="M880.6 332.5c0-35.2-0.3-70.5 0.1-105.7 0.3-24.7-9.6-42.3-33.3-51.1 10.5-0.2 21-1 31.3 0.3 23.1 3 38.9 20.6 39.3 44.5 0.5 36.3 0.1 72.6 0.2 108.9 0 2.2-0.3 3.4-3 3.3-11.6-0.2-23.1-0.1-34.6-0.2z" fill="#EC8B1C" /><path d="M879.8 369.8c-0.1 0.2-0.1 0.5-0.1 0.7-1.3 1.4-3 1.4-4.7 1.5s-3.4 0.1-5.1 0.1H169.8c-3.3 0-6.8 0.9-9.8-1.5-0.2-0.2-0.2-0.4-0.1-0.7 1.5-0.1 3.1-0.2 4.6-0.2h710.7c1.5 0 3 0.1 4.6 0.1zM167.2 923.3l0.1 0.2c-6 0.3-12 0.6-18-0.1 5.7-0.1 11.4-0.3 17-0.4 0.5-0.2 0.8-0.1 0.9 0.3z" fill="#68CAFD" /><path d="M167.2 923.3c-0.3-0.1-0.5-0.2-0.8-0.3-5.8-10.6-6.6-22.1-6.6-33.9 0.1-170.7 0.1-341.4 0.1-512 0-2.2 0.1-4.3 0.1-6.5h719.7c0.8 1.6 0.4 3.3 0.4 5v504.8c0 1.7 0.4 3.4-0.4 5-1.6 16.6-10.2 28.4-24.4 36.6-2.4 1.4-5 1.1-7.6 1.1H173.2c-2 0-4 0.1-6 0.2z" fill="#69CAFE" /><path d="M69.7 572c0-15.9-0.1-31.7 0-47.6 0.1-13.3 10.6-21.9 22.9-19 7.3 1.7 12.9 8 13.8 15.5 0.1 1.2 0.2 2.5 0.2 3.7 0 31.6 0.1 63.1 0 94.7 0 13.4-10.3 22-22.6 19.3-7.2-1.6-12.9-7.5-13.9-14.9-0.4-3.2-0.4-6.4-0.4-9.7v-42z" fill="#030000" /><path d="M879.7 885.3V543.2 370.5c1.4 1.4 0.8 3.2 0.8 4.8v504.6c0 1.8 0.6 3.8-0.8 5.4z" fill="#68CAFD" /><path d="M578.6 389.9h217.6c4.3 0.2 7.4 3.1 7.6 7.1 0.1 3.5-3 7-6.9 7.5-1.4 0.2-2.8 0.1-4.2 0.1H361.3c-4.6-0.3-8-3.4-8-7.4 0-4.4 3.1-7.4 8.2-7.4h49.9c55.7 0.1 111.5 0.1 167.2 0.1zM288.3 524.7c30.3 2.8 53.1 22.7 58.6 52 3.9 21.2 0.5 41.1-14.2 57.9-10.5 12-24.1 18.9-39.8 21.4-13.3 2.1-26.7 0.6-40.1 0.9-5.8 0.2-11.7-0.4-17.5 0.1-14.2 1.2-21.8-9.7-19.7-21.9 3 5 7.6 5.4 12.5 5.3 15.5-0.2 31.1 0.4 46.6-0.2 26.3-1 50.2-15.4 55.4-45.3 3.3-19.1 0.6-37.2-13-52.2-8.9-9.8-20.3-15.1-33.3-17.1 1-2.6 3-0.8 4.5-0.9zM755.9 574.6c23.5 1.9 39.7 23.4 36.5 46.6-2.9 21.3-20.7 36-42.3 35.8-24.6-0.2-49.3 0-73.9-0.1-11 0-19-10.7-15.2-20.8 2.5 4.1 6.4 4.3 10.5 4.3 23.9-0.1 47.7 0 71.6-0.1 15.3-0.1 27.9-9.4 31.5-23.7 4.8-19.1-4.5-36.8-23.2-41.2 1.1-2.1 2.9-0.9 4.5-0.8zM561.5 634.5c1.1 1.5 1.5 1.9 1.8 2.3 2.5 3 5.6 4.4 9.4 3 3.9-1.5 5.7-4.5 5.6-8.6 0-13.8 0.1-27.7-0.1-41.5 0-3 0.9-5.1 3-7.2 14.2-14.1 28.3-28.3 42.4-42.4 5.7-5.7 5.8-8.3 0.6-14.4 6.7-2.3 13.6 0.2 17.7 6.4 4.3 6.6 3.7 14.6-2 20.3-13.5 13.7-27 27.4-40.8 40.8-3.3 3.2-4.5 6.4-4.4 10.9 0.3 12.3 0.2 24.6 0 36.9-0.1 8.3-6.7 15.3-14.4 16.1-8.6 0.8-16.4-4.2-18.3-12.2-0.4-3-0.2-6.1-0.5-10.4zM363.2 635.3c0.7 0.5 1 0.7 1.2 0.9 2.5 3.4 5.8 5.3 10 3.6 4.3-1.7 5.5-5.3 5.5-9.7-0.1-11.7 0.1-23.4-0.1-35.1 0-3.2 0.5-4.6 4.2-4.6 24.9 0.2 49.9 0.1 74.8 0 3.2 0 4.2 0.8 4.2 4.1 0 12.7 0.2 12.7-12.2 12.7-16.6 0-33.3 0.1-49.9-0.1-3.4 0-4.6 0.8-4.5 4.4 0.2 9.4 0.1 18.8 0.1 28.2-0.1 10.4-6.9 17.4-16.9 17.3-9.4-0.1-16.3-7.4-16.4-17.4v-4.3z" fill="#FEFEFE" /><path d="M313.4 579.2c-4.2-12.8-13.9-20.2-27.2-21.3-11.1-0.9-22.2-0.2-33.2-0.6-3.4-0.1-4.5 1.1-4.5 4.5 0.1 19.1 0 38.2 0.1 57.3 0 3.4-0.6 4.8-4.5 4.8-12.2-0.1-12.3 0-12.3-12.2 0-22 0.1-44-0.1-66.1 0-3.7 0.7-5.2 4.7-5 14.1 0.5 28.3-0.8 42.4 0.9 18.8 2.3 33.3 13.9 35.3 33.1 0.3 1.6 1.6 3.5-0.7 4.6zM770.4 524.4c11.3-0.7 18 2.9 21 10.5 4.3 10.7-3.3 22.3-14.9 22.4-23.2 0.2-46.5 0.1-69.7 0.1-1.5 0-3.1-0.1-4.6 0.1-3.5 0.4-7.5 0.7-8.7 4.8s-0.9 8.3 3.6 11c-8.9 1.8-15.8-1-19.1-7.5-3.5-6.9-1.8-16.3 3.8-21.2 4.3-3.7 9.6-3.9 14.8-3.9 22.5-0.1 44.9-0.1 67.4 0 4.4 0 9 0.3 11-4.7 1.8-4.5 0-8.2-4.6-11.6zM462.9 634.9c3.1 4.3 6.3 6.6 10.7 5 4.7-1.6 5.7-5.8 5.7-10.1 0-23.7 0.2-47.4 0-71.1-0.1-17.5-8.3-28-25-33.2-0.8-0.3-1.6-0.7-3-1.2 25.9-1 44.7 16.8 44.8 42 0.1 24.6 0.1 49.3 0 73.9 0 8.7-6 15.6-14.3 16.7-8.4 1.2-16.2-3.8-18.5-11.9-0.8-3-0.4-6.1-0.4-10.1z" fill="#FEFEFE" /><path d="M462.4 561.3c-3.4-3.7-7.8-4-12.3-4h-42c-9.5 0-11.8 2.1-11.6 11.6 0.1 4.2-1.2 5.2-5.2 5.1-11.6-0.2-11.6 0-11.6-11.5v-4.2c0.1-10.7 4.5-16.5 15-17.2 17.6-1.2 35.4-1.3 53 0 11.6 1.1 16.3 8.1 14.7 20.2zM661.5 568.3c6.1 15 16.8 22.2 33.2 22.2h45.7c13.5 0 19.6 6.5 18.9 20.7-3.8-4.3-8.7-4-13.5-4-15.7 0-31.4 0.2-47.1-0.1-17.5-0.4-32.7-12.4-37.4-29.1-0.4-1.6-0.5-3.3-0.8-5-0.1-1.7-1.4-3.5 1-4.7zM231.8 389.9h27.7c5.1 0 8.4 2.9 8.4 7.2 0 4.1-3.5 7.5-8.3 7.6-18.5 0.1-36.9 0.1-55.4 0-4.7 0-8.4-3.7-8.2-7.6 0.2-4.3 3.4-7.1 8.6-7.1 9.1-0.2 18.2-0.1 27.2-0.1zM561.3 596.8c-3.5-1.8-5.3-5-7.7-7.4-12.1-12.1-24.1-24.2-36.2-36.3-4.4-4.5-6-9.7-4.9-15.9 2.1 0.6 2.9 2 3.9 3 13 12.9 25.6 26.2 39 38.7 5.4 5.1 7.8 10.3 5.9 17.9zM524.5 525.1c7.4-1.5 13 0.9 17.9 5.9 10.2 10.4 20.6 20.8 31 31 2.5 2.4 1.9 3.7-0.2 5.8-2.1 2.1-3.4 2.8-5.9 0.3-14.1-14.4-28.4-28.5-42.8-43z" fill="#FEFEFE" /><path d="M288.3 524.7c-1.4 0.5-3.3-0.6-4.4 1-2.5-0.4-5-0.7-7.5-1.1 4-0.4 8-1.6 11.9 0.1z" fill="#91D6FE" /><path d="M661.5 568.3c-1.5 1.3-0.5 3.2-1 4.7-1.6-3.3-0.6-6.8-0.1-10.3 0.4 1.9 0.8 3.8 1.1 5.6z" fill="#D9F0FE" /><path d="M313.4 579.2c1.4-1.3 0.4-3.1 0.9-4.6 1.7 3.3 0.4 6.8 0.2 10.3-0.4-1.9-0.8-3.8-1.1-5.7z" fill="#D4EEFE" /><path d="M755.9 574.6c-1.5 0.5-3.3-0.6-4.5 0.9-1.6-0.3-3.1-0.7-4.7-1 3.1-0.4 6.2-1.5 9.2 0.1z" fill="#BCE5FE" /></svg>