<?xml version="1.0" standalone="no"?>
<!DOCTYPE svg PUBLIC "-//W3C//DTD SVG 1.1//EN" "http://www.w3.org/Graphics/SVG/1.1/DTD/svg11.dtd">
<svg class="icon" style="width: 1em; height: 1em;vertical-align: middle;fill: currentColor;overflow: hidden;" viewBox="0 0 1024 1024" version="1.1" xmlns="http://www.w3.org/2000/svg"><path d="M232.9 536.9c2.1-5.2 1.6-10.7 2.4-16.1 13.6-91.1 60.2-160.1 139.3-207.2 29.5-17.5 61.5-28.2 95.3-33.7 7.5-1.2 13.4 1.6 18.3 7.1 4.6 4.1 5.6 13.3 2.1 19.5-3.2 5.7-8.1 9.1-14.6 10.2-22 3.6-43.1 10-63.5 19.2-20.2 9.2-38.6 21.1-55.5 35.4-21.7 18.3-39.9 39.7-54 64.4-16.6 29-27.2 59.9-30.9 93.2-1.2 11.2-1.8 22.4-1.7 33.6 0.1 38.1 0.1 76.1 0 114.2 0 34.3 6.6 67.3 20.6 98.7 5.3 11.8 1.3 20.2-4.7 25.2-1.6 1.4-3.3 2.7-5.6 2.3-13.2 2-18.9-1.1-24.2-13.4-12.3-28-19.5-57.3-22.3-87.7-0.1-1.1 0.6-2.5-1-3.1v-4.5c0.6-0.6 0.4-1.3 0.5-2-0.1-0.9 0.3-1.8-0.5-2.5v-134c0.8-2.4 0.8-4.8 0-7.2v-5.4c0.7-0.9 0.7-1.8 0-2.7v-3.5z" fill="#030000" /><path d="M538.5 286.9c-1.9-19-5-37.9-8.9-56.6-8.2-40.1-20.3-79-39.3-115.5-6-11.6-12.8-22.7-20.2-33.4-5.3-7.6-4.6-11.6 2.9-16.6h5.4c4.3 2.3 6.5 6.4 9.1 10.2 22.6 33.6 38.1 70.4 49.4 109.1 8.8 30.3 14.5 61.3 18.8 92.6 0.5 3.4 0.8 6.8 1.2 10.2 3.2 4.8 2.4 10.4 2.8 15.7 3.2 34.7 4.5 69.6 3.7 104.4-0.5 21.2-1.5 42.4-3.2 63.6-1.3 16.6-3.1 33.1-4.9 49.6-0.3 2.8-0.4 5.7-1.7 8.3-0.3 0.3-0.6 0.8-1 0.7-6.1-0.6-12.2-0.9-17.9-3.3-1.3-6.3 0.5-12.5 1.2-18.7 2.2-21.1 3.9-42.3 5.2-63.5 1.5-24.9 2-49.9 1.6-74.9-0.4-25.6-2.1-51.1-4.7-76.5-0.3-1.7-0.8-3.7 0.5-5.4z" fill="#FEDD5D" /><path d="M232.9 548.6c1.4 2.4 1.3 4.8 0 7.2v-7.2z" fill="#181515" /><path d="M232.9 540.5c1.6 0.9 1.2 1.8 0 2.7v-2.7z" fill="#858484" /><path d="M232.9 689.8c1.2 0.6 0.9 1.7 0.8 2.7-0.3 0.4-0.5 0.3-0.8 0v-2.7z" fill="#646262" /><path d="M232.9 692.5h0.8c0.1 0.7 0.3 1.5-0.8 1.8v-1.8z" fill="#807F7F" /><path d="M538.5 286.9c5.2 42.1 6.3 84.4 5.3 126.8-0.8 32.9-3.3 65.7-7 98.5-0.5 4.6-1.1 9.2-1.7 13.8-1.2 1.6-3 1.2-4.5 1.4-18.3 2.1-33.4 9.9-44.6 24.8-22.2 29.6-11.9 73.3 21.1 90 32.8 16.5 71.4 1.9 84.8-32.1 11.1-28.2-1.6-61.9-28.6-75.7-3.5-1.8-7.7-2.6-10.5-5.7 3.7-29.8 6.5-59.7 7.9-89.8 1.7-34.8 1.8-69.7-0.2-104.5-0.9-15.8-2.3-31.6-3.8-47.4 13.6 0 27.1 1 40.4 3.6 0.3 1.5-0.8 2.5-1.5 3.6-6.5 11-2.5 22.2 9.7 26.2 12.1 3.9 24.1 8.1 35.7 13.3 20.8 9.3 39.6 21.7 57.1 36.2 7.2 5.9 13.5 12.8 20.1 19.2 1.3 1.3 2.5 2.6 3.2 4.3 6.8 11.7 13 23.6 17.8 36.2 9.1 23.6 14.9 48 16.6 73.3 0.5 8.5 0.7 17.1 0.7 25.6 0 57.8 0.3 115.7-0.1 173.5-0.2 32.4-7.5 63.5-20.5 93.3-13.5 30.7-32.5 57.6-56.7 80.8-4.4 4.3-9.4 7.8-13.8 12.2-9 6.8-19.4 11.3-29.6 15.8-23.2 10.2-47.5 16.5-72.8 18.8-22.2 2-44.5 1.8-66.8 0.4-26.1-1.6-51.2-7.7-75.4-17.4-21.5-8.7-41.3-20.4-59.6-34.7-1.6-1.3-3.3-2.7-5.1-3.7-6.2-3.6-12.5-3.8-18.7 0.2-1.5 1-2.8 2.4-4.7 2.3-21.4-19.2-39.2-41.4-52.6-66.9 11.8-6.8 14.4-14.7 8.8-27.4-13.5-31-20.3-63.5-20.3-97.3-0.1-40.6-0.1-81.2 0-121.9 0.4-117.1 84.6-218.1 199.7-239.6 1.6-0.3 3.2-0.6 4.9-0.9 16.1-2.8 22-14.3 14.8-28.8 17-0.2 33.8-0.3 50.5-0.3z" fill="#69CAFE" /><path d="M720.3 393c-19.8-22.6-43.5-40.1-70.1-53.8-13.7-7.1-27.9-13.4-42.9-16.8-13.8-3.1-21.9-19-10.1-31.9 6.3-4.6 12.8-5.1 20.3-2.9 99.9 28.6 178.1 114 197.3 215.6 3.5 18.8 5.3 37.6 5.3 56.7-0.1 40.6 0.1 81.2-0.1 121.8-0.7 123.5-87.5 235.4-207 267.1-25 6.6-50.5 9.9-76.4 9.9-24.3 0-48.5 0-72.5-4.4-47.4-8.7-89.9-28.2-127.4-58.5-8.7-7-9.8-15-3.9-25.9 9.4-8.6 17.6-9 27.5-1.1 38 30.2 81 48.5 129.3 52.6 42.6 3.6 85.3 3 126.5-11.2 16.8-5.8 33.2-12.7 48.2-22.5 11.2-8.5 23-16.2 33.6-25.5 22.2-19.2 40.3-41.7 54.6-67.4 13.6-24.5 22.6-50.6 27-78.2 2-12.6 3.3-25.2 3.2-38-0.1-38.7-0.3-77.3 0-116 0.5-60-17.9-113.3-55.6-160-2.2-3-4.5-6.3-6.8-9.6z" fill="#030000" /><path d="M552.9 528.6c22.5 7.8 37.2 22.8 42.7 46.2 7.9 33.7-14.6 67.9-48.7 74.4-34.6 6.6-68.2-17.2-73.1-51.7-5.3-37.3 22-69.9 59.5-71.3 0.6 0 1.2-0.1 1.8-0.2 6.1 0.2 12 1.1 17.8 2.6z" fill="#030000" /><path d="M720.3 393c11.8 12.1 21.4 25.7 30 40.2 22.9 39 34.1 81.1 34 126.3-0.1 39.4 0.7 78.8-0.2 118.2-1.9 90.1-41.3 159.5-116.7 208.6-0.9 0.6-1.9 0.9-2.8 1.4 5.7-5.3 11.6-10.4 17.1-15.8 37.1-36.6 60.3-80.7 69.9-131.8 2.5-13.3 3.8-26.9 3.8-40.5 0-60.8 0.2-121.7-0.1-182.5-0.2-33.7-7.6-66-21.3-96.9-4.1-9.4-9.4-18-13.7-27.2z" fill="#1C8EF0" /><path d="M310.2 566.9c0.1-46.2 10.6-86.3 34.3-122.6 11.6-17.8 25.8-33.3 42-47.1 3.6-3 7.6-2.8 10.4 0.3 2.6 2.9 2.3 7.4-1.1 10.4-12.5 11-24 23-33.8 36.5-18.5 25.4-29.9 53.7-34.6 84.7-3.2 21-3.6 42-1 63 0.1 0.9 0.1 1.8 0.1 2.7-0.1 4.6-2.9 7.6-7 7.7-4 0.1-6.9-2.6-7.3-7-1.1-10.5-2.2-21.1-2-28.6zM455.7 369.6c-3.7-0.4-6.3-2-7.2-5.7-1-4 0.9-6.8 4.4-8.3 6.8-3 13.7-5.8 20.7-8.4 5.3-2 10.7-3.6 16.2-5.1 4.2-1.2 8.1 1.1 9.2 5 1 3.7-1 7.6-5 8.8-12.2 3.4-24 8-35.7 13-0.9 0.3-1.8 0.5-2.6 0.7z" fill="#FEFEFE" /><path d="M491 587.9c0.1-24.2 20-43.8 44.2-43.8 24.4 0.1 44.1 20 43.9 44.6-0.2 24.1-20.1 43.7-44.5 43.6-24-0.2-43.6-20.1-43.6-44.4z" fill="#EC8B1C" /></svg>