<?xml version="1.0" standalone="no"?>
<!DOCTYPE svg PUBLIC "-//W3C//DTD SVG 1.1//EN" "http://www.w3.org/Graphics/SVG/1.1/DTD/svg11.dtd">
<svg class="icon" style="width: 1em; height: 1em;vertical-align: middle;fill: currentColor;overflow: hidden;" viewBox="0 0 1024 1024" version="1.1" xmlns="http://www.w3.org/2000/svg"><path d="M313.6 120.3c0-13.5 6.4-20.1 19.7-21.3 59.3-5.2 114.1 8 164.3 40.1 2.2 1.4 3.4 0.8 5.2-0.4 30.3-21.7 63.9-35.8 100.5-43 10-2 20.2-3.2 30.4-4 1.1-0.1 2.5 0.7 3.2-0.9h7.3c4.6 0.8 9.2 0.8 13.8 0h7.3c3.6 1.9 7.6 1.2 11.4 1.6 8.9 1 17.8 2.3 26.6 4.1 12.8 2.5 17.9 9.6 16.9 23.2-0.2 6.9-7 13.6-14.8 14.4-2.9 0.3-5.8 0.4-8.7-0.3-14.1-3.1-28.4-4.6-42.7-4.8-14.5-0.1-29 1.1-43.3 3.9-34.7 6.8-66 20.8-93.9 42.5-3.7 2.8-7.4 5.7-11 8.8-3.9 3.3-5.2 3.3-9.5 0.2-3.7-2.7-7.2-5.6-11-8-31.9-22.7-67.4-36-106.4-39.7-13.7-1.3-27.4-1.3-41.1 0-9.6 1-17.6-1.1-22.9-9.8-1.3-1.8-2.7-4-1.3-6.6zM62.4 649.6c1.7-1.2 1.2-3.3 1.6-4.9 1.9-7.1 5.7-9.6 13-8.1 4.9 1.5 7.1 5 6.5 10.4-0.4 3.9-1.6 7.7-1.1 11.8 2 13.9 10.2 22.5 23 27.1 4.9 1.8 10 2.8 15 4.1 28.1 6.9 56 14.3 84 21.3 6.4 1.6 6.8 2.2 5.2 8.5-9.6 37.9-19.1 75.9-28.8 113.8-4.7 18.3-1.8 35.1 9.9 50.1 5.8 7.5 13.5 12.3 22.3 15.4 3.4 1.2 6.3 3 8.2 6.3 1 2 1.4 4-0.1 6-3.4 7.2-7 8.8-14.7 6.2-29.3-9.7-49.5-40.4-47.4-71.9 1-14.4 5.8-28 9.1-41.9 5.8-24.1 12-48.2 18.3-72.2 1-3.6 0.1-4.6-3.2-5.5-26.3-6.5-52.6-13.3-78.9-19.9-21.8-5.5-35.8-18.8-41-40.9-0.2-0.7-0.1-1.6-1.1-1.7v-3.7c0.7-2.8 0.7-5.5 0-8.3 0.2-0.8 0.2-1.4 0.2-2z" fill="#030000" /><path d="M657.9 90.8c-4.6 1.4-9.2 1.5-13.8 0h13.8z" fill="#757373" /><path d="M62.4 651.4c1.6 2.8 1.4 5.5 0 8.3v-8.3z" fill="#615F5F" /><path d="M515.6 175.2c18.7-15.4 39.7-26.6 62.5-34.6 38.8-13.6 78.3-16.3 118.6-7.9 11.2 2.3 18.8-1.9 23.5-13 11.5 3.6 22.7 8 33.7 13.1 0.6 1.2 0.2 2.4-0.1 3.6-1.9 9.5 0.8 15.8 9.2 20.8 17.2 10.2 33 22.2 46.8 36.7 32.3 34.2 52.5 74.4 59.6 121.1 1.7 11.2 2.6 22.4 2.6 33.8 0 7.5-0.8 14.9-1.5 22.4-0.5 5.9-0.8 11.6 3.5 16.5 2.9 3.3 6.3 5.7 11 5.8 1.6 0.1 3.5-0.4 4.4 1.5-4.9-0.5-5.9 2.5-6.8 6.6-3.6 16.8-9.9 32.8-16.8 48.5-1.1 1-2.3 0.4-3.5 0.1-9.5-2.3-15.9 0.3-20.9 8.8-10 17-21.8 32.6-35.9 46.2-34.5 33.2-75.5 53.6-123 60.6-11.2 1.7-22.5 2.9-33.8 2.6-44.6-1.3-85.8-13.7-122.7-39.2-1.5-1-3.3-1.8-3.4-4 3.2-5.4 8.2-9.4 12.4-14 31.9-35.9 50.9-77.8 57.4-125.2 5.4-39.1 1.3-77.4-12.7-114.5-10.9-28.9-26.5-55-47.8-77.6-4.3-4.6-8.3-9.3-13.3-13.3-1.4-1.5-3.5-2.8-3-5.4z" fill="#1C8EF0" /><path d="M526.6 707.7c8.8-9.5 18.8-17.2 31.6-20.8 8-2.3 16.2-2.8 24.4-2.3 2.5 0.2 5 1.1 7.4 1.6 0.1 0.1 0.1 0.4 0.2 0.4 5.1 0.8 8.5 3.3 9.1 8.8 1.2 2.2 3 3.9 5.1 5.1 26.8 15.7 53.8 31 80.6 46.6 0.3 0.2 0.6 0.2 1 0.2 0.9-1.5 0-2.9-0.4-4.3l-35.4-132c-0.2-0.9-0.5-1.8-0.7-2.7-1-4.6-0.4-5.2 4.2-5.9 7.9-1.1 15.8-0.8 23.8-1.7 24.2-2.7 47.5-8.5 70-17.6 0.3-0.1 0.6-0.3 0.8-0.4 5.7-2.4 6.6-2.1 8.3 4 1.6 5.9 3.2 11.8 4.7 17.7 10.4 38.8 20.8 77.7 31.2 116.5 0.1 0.3 0.2 0.6 0.8 1.4 3.1-4.6 5.7-9.3 8.3-14 15.5-27.2 31.4-54.2 46.9-81.5 8.3-14.5 20.1-24.5 36.7-28.1 11.6-2.5 23.2-1.8 34 3.5 4.9 2.4 9.6 3.8 14.9 2.6 3.1 1 5 3.4 6.9 5.8 14.2 17.5 17.4 37.3 12.1 58.8-0.5 1.9-1.3 3.8-2.9 5.1-3.7 1.8-6.2 4.8-8.2 8.3-22.2 38.7-44.5 77.3-66.9 116-16.1 27.9-32.1 55.9-48.5 83.7-3.3 5.7-6.3 11.6-10.8 16.4-17.9 19.1-45 23.3-67.9 10.2-46.4-26.7-92.7-53.4-139-80.2-20.1-11.6-40.3-23.2-60.3-34.9-17.9-10.5-26.7-26.4-27.7-46.7-0.4-7.3 1-14.7 4.4-21.4 3.3-6 5.5-11.8 1.3-18.2z" fill="#69CAFE" /><path d="M934 605.4c-3.8 2.1-7.4 1.8-11.3-0.2-27.1-13.9-56.9-5.2-72.3 21.3-18.5 31.9-37 64-55.4 95.9-0.5 0.9-1.1 1.8-1.7 2.8-1.5-0.5-1.3-1.9-1.6-2.9-12.2-45.4-24.4-90.7-36.5-136.1-1-3.7-1.8-4.3-5.5-2.8-30.3 12.9-62 19.2-94.9 19.9h-5.4c13.2 49.2 26.2 97.8 39.4 147.3-28.8-16.6-56.5-32.7-84.3-48.7-2.9-1.6-5.4-3.4-6.6-6.7-0.1-2.3-1.3-4.8 0.7-6.9 4.4-5.5 8.2-6.4 14.3-2.9 15.1 8.7 30.1 17.4 45.4 26.3 0.8-2.1 0.1-3.7-0.3-5.4-9-33.4-17.9-66.8-26.8-100.3-0.8-2.9-2-3.9-4.8-4.2-41.5-3.9-79.6-17.5-114.6-40-2-1.3-3.2-1.2-5.1 0.2-33.3 23.6-70.1 38.5-110.5 44.8-11.3 1.8-22.8 2.6-34.2 2.8-3 0.1-4.3 0.8-5 3.7-3.6 14.8-7.3 29.6-11.2 44.3-0.8 3.1 0.3 3.8 2.9 4.5 29.3 7.4 58.5 14.8 87.8 22.2 22.5 5.7 38.6 23.2 40.7 44.2 2.6 27-15.9 51-42.7 55.8-8.8 1.6-17.3 1-25.9-1.2-28.1-7.2-56.1-14.3-84.2-21.5-3-0.8-4.6-0.9-5.5 3-8.2 33.5-16.8 66.8-25.3 100.2-2 7.7-4.6 9.7-12.6 9.3-1 0.2-2 0-2.9-0.6-3.7-2.8-4.5-6.7-3.9-11.1 0.3-1.7 0.7-3.3 1.1-4.9 9.3-37.7 19-75.3 28.5-113 1.8-7.4 2.4-7.7 9.8-5.9 32.7 8.4 65.5 16.5 98.2 25 8.8 2.3 17.5 2.8 26-0.9 10.1-4.4 17.1-11.8 19.4-22.8 3-14-4.6-28-18.1-34.1-2.5-1.1-5.1-2-7.8-2.6-33.6-8.6-67.3-17-100.9-25.7-1.3-0.3-2.7-0.7-4-1-3.5-0.8-4.8-3-3.8-6.5 0.4-1.5 0.7-3 1.1-4.5 4.2-16.6 8.2-33.3 12.6-49.8 1.4-5.2 0.9-5.9-4.3-6.4-28.1-2.9-55-10.1-80.6-21.9-7.5-3.5-7.6-3.4-9.7 4.8-4.4 17.2-8.6 34.4-12.9 51.6-1.7 6.7-2.3 7.1-9.2 5.4-30.6-7.5-61-15.7-91.6-23.1-3.7-0.9-6.9-2.5-9.1-5.7-1.4-2.1-2.5-4.3-0.6-6.8 3.2-7.2 6.1-8.7 13.7-6.8 25.9 6.5 51.8 13 77.6 19.7 2.6 0.7 3.4 0.2 4-2.2 4-16.1 8-32.3 12.2-48.3 0.6-2.3 0.1-3.5-1.9-4.7-12.2-7.4-23.6-15.9-34.3-25.2-10.2-8.9-11.3-18-3.4-28.8 2.6-4.4 9.8-7.4 15.5-6.3 4.4 0.8 8.4 2.6 11.8 5.7 22.6 20.2 48.4 34.7 77.1 44.3 4.7 1.2 9.2 3 14 4 1.3 0.5 2.8 0.6 4.1 1 15.4 3.3 31 5.3 46.8 5.1 22.2-0.2 44.1-2.1 65.4-8.7 26.2-8.1 50-20.4 71.6-37.2 4.3-3 8.2-6.4 12.3-9.6 2.6-2.1 4.9-2.3 7.4-0.1 3.5 3.1 8.1 4.9 10.7 9.1 16 12.3 33.7 21.5 52.6 28.3 100.7 36.3 209.4-2.6 264.6-94.5 6.3-10.4 14.4-13.2 25.7-8.7 10.3 7.3 12.3 16.5 5.9 27.3-23.8 40-55.9 71.5-96.6 94-3.6 2-4 3.7-3 7.3 8.8 32.3 17.4 64.7 26.1 97.1 0.2 0.7 0 1.6 1 2 1.5-0.8 1.9-2.6 2.7-3.9 11.2-19.3 22.1-38.6 33.4-57.8 19.9-33.7 62.3-45.5 95.9-27 6.4 3.5 7.7 7.1 5 14 0.1 1.7-1 2.3-2.2 2.7z" fill="#030000" /><path d="M526.6 707.7c4.8 4.9 5.3 7.8 2.2 13.8-13.5 26.4-5.1 56.6 20.5 71.5 66.6 38.7 133.4 77.2 200.2 115.6 25.6 14.7 57.8 5.6 72.4-19.8 17.4-30.3 34.9-60.5 52.4-90.8 22.6-39.1 45.2-78.2 67.7-117.4 1.8-3.2 3.9-5.8 7.7-6.6 2-0.7 4-1.6 5.6 0.8 5.7 4.2 6.7 8.1 3.2 14.1-39.1 67.7-78.4 135.4-117.4 203.2-5.7 9.9-11.9 19.2-20.9 26.3-23.6 18.6-54.8 20.6-81.6 5.2-54.1-31.3-108.3-62.5-162.4-93.8-13.1-7.6-26.3-14.8-39.1-22.8-31.6-19.8-42.3-61.4-24.5-94.2 3.6-6.3 7-7.6 14-5.1zM889.3 394.9c-13.8 1-21.5-9.6-20.4-22.9 7.5-92.7-28.2-164-106.7-213.8-10-6.3-12.8-14.4-8.4-25.4 6.8-10.1 16.4-12.7 26.5-6.6C847 166.5 888 224.9 903 301.4c4.9 25.1 5.5 50.4 2.6 75.8-1.2 9.8-6.6 15.9-16.3 17.7z" fill="#030000" /><path d="M955.4 674.9c-1.8-0.8-3.7-0.7-5.6-0.8 2.7-3.7 3.3-8.2 3.9-12.5 2.8-21.9-2.6-41.1-19.7-56.2 0.7-0.8 1.5-1.7 2.2-2.5 15.7 13.5 23.9 30.6 23.4 51.5-0.1 7.1-1.7 13.9-4.2 20.5z" fill="#1D8FF0" /><path d="M279.1 873.3c0.6 0.3 1.2 0.6 1.9 1-9.3 24.3-34.5 39.9-59.8 36.9-0.3-1.9-0.5-3.7-0.8-5.6 0.5-0.6 1.3-0.8 2.1-0.8 23.8 1.4 41.5-8.7 54.1-28.5 0.6-1.1 1.1-2.4 2.5-3z" fill="#EC8C1D" /><path d="M598.8 688.5c-1 2.2-0.7 4.6-0.7 6.9-0.2-5.3-3.5-7.6-8.2-8.4 0 0-0.1-0.3-0.1-0.4 0-0.1 0.2-0.2 0.2-0.4 3 0.8 5.9 1.5 8.8 2.3z" fill="#41A2EF" /><path d="M493.9 525.8c-16.7 13.8-35.4 24.2-55.5 32.1-21.1 8.4-43 14-65.7 14.4-10.3 0.2-20.7 1.4-31.1 0.3-10.5-1.2-20.9-2.6-31.2-4.7-0.7-0.2-1.4-0.5-2.1-0.8-1-0.9-2.4-0.7-3.6-1.4-4.9-1.4-9.4-3.9-14.7-3.6-28.4-9.2-53.8-23.7-76.3-43.4-9.5-8.3-17.4-8.7-27.5-1.1-6.4-6.6-12.4-13.5-17.7-21-0.3-1.8 1-2.8 1.9-3.9 5.5-6.9 6.2-13.5 1.6-20.8-8.8-14-16.1-28.8-21.6-44.5-7-20-11-40.6-12.3-61.8-1.5-23.5 1.2-46.4 7.2-68.9 9.9-36.6 27.8-68.6 54.3-95.9 17.5-18 37.2-32.6 59.4-44 3.1-1.6 6.5-2.8 9.6-4.4 7.8-3.9 11.4-10.4 10.7-19-0.1-1.3-0.6-2.7 0.5-3.9 11-3.9 22.3-6.7 33.8-9.2 3.1 11.8 10.3 16.6 23.3 15.3 39-3.7 76.4 2.5 112.1 18.6 13.2 6 25.9 12.9 37.4 21.9-1.9 4.7-6 7.7-9.2 11.2-32.6 35.7-52.6 77.5-59.7 125.2-6.1 40.7-1.8 80.4 12.9 119 9.7 25.5 23.3 48.8 41.1 69.5 6.2 7.2 12.2 14.5 19.8 20.4 1.3 1 2.8 2.2 2.6 4.4z" fill="#EC8B1C" /><path d="M279.1 873.3c-8.8 18.1-23.3 28.6-43 32.3-5.3 1-10.5 1.3-15.8 0-1.5-2.4-3.4-4.2-6.3-5-26.3-7.6-42.2-36.9-34.8-66 9.9-38.7 19.6-77.5 29.5-116.1 0.9-3.4 0.8-4.8-3.2-5.8-32.4-8-64.7-16.3-97.1-24.6-15.6-4-25.3-14.3-27.3-29.1-0.5-3.4-0.2-6.8 0.7-10 1.6-5.6-0.2-9.5-4.9-12.5 9.3-15.7 23.5-22.5 41.3-22.6 0.4 6.8 2.4 9.2 8.9 10.9 31.6 8 63.3 16 94.9 24.2 3.2 0.8 4.1 0.3 4.9-2.9 4.9-20 10.1-39.9 15.1-59.9 0.7-2.8 1.1-3.9 4.3-2.3 27.6 13.4 56.6 21.7 87.2 24.6 0.9 0.1 1.8 0.4 2.7 0.3 3-0.2 2.9 1.3 2.3 3.6-3.6 13.9-7.1 27.8-10.6 41.7-1.4 5.6-2.6 11.3-4.3 16.8-0.9 3-0.2 3.8 2.7 4.5 34.8 8.7 69.5 17.7 104.3 26.4 12.5 3.1 22.1 9.6 26.7 22 6.6 18-5.2 37.8-24.9 42.2-6.3 1.4-12.4 1.1-18.6-0.4-34.4-8.8-68.9-17.4-103.3-26.3-3.6-0.9-4.3 0.2-5.1 3.2-9.9 39.5-19.8 79-29.9 118.5-1 4.9-0.4 9 3.6 12.3z" fill="#FEDD5D" /><path d="M279.8 129.5c2.6 13.1-0.8 19.2-13 25.1-69.8 33.8-112.1 89-125 165.4-9 53.2 2.1 103.2 30.1 149.3 6.7 11 5.9 18.3-3.3 27.3-12.2 6.1-20.7 3.7-27.9-8-81.4-131.4-28.4-304.9 112.6-368.2 11-5.1 19.7-2.1 26.5 9.1z" fill="#030000" /><path d="M493.9 525.8c-18.8-17-35-36.2-47.8-58.2-24.5-42.3-35.5-87.9-32.1-136.5 4.3-60.6 28.9-112.3 72.2-155 4.1 2.9 8.2 5.7 12.2 8.8 1.9 1.5 3.2 1.5 5.1-0.1 3.9-3.3 8.1-6.4 12.1-9.6 2.2 3.4 5.8 5.4 8.5 8.2 15.2 15.6 29 32.4 39.8 51.5 12 21.3 21.1 43.6 26.3 67.4 3 13.8 5.1 27.7 5.3 42 0.2 12.3 0.2 24.6-1.1 36.8-1.9 16.6-5.6 33-11 48.8-7.2 21.2-17 41.1-29.9 59.4-9 12.8-18.8 25.1-30.6 35.5-4.1-2.9-8.2-5.7-12.2-8.8-1.8-1.4-2.9-1.4-4.7 0.1-3.9 3.4-8 6.5-12.1 9.7z" fill="#3499E5" /><path d="M841.4 363.8c0 1.4 0.1 3.4 0 5.4-0.2 4.2-3.3 7.4-7.2 7.5-4 0.1-7.3-3.1-7.5-7.7-0.3-9.6-0.9-19.2-1.8-28.8-2.6-26.7-8.6-52.4-21.4-76.1-2.6-4.8-1.8-8.9 2.1-11.2 4-2.3 8.2-0.6 10.9 4.3 12.4 22.8 18.9 47.5 22.2 73.2 1.3 10.9 2 21.9 2.7 33.4zM733.3 168.8c2.2-0.1 3.9 0.9 5.5 2 16.1 10.8 30.4 23.6 43.2 38.1 3.2 3.6 3 7.7-0.1 10.6-3 2.8-7.5 2.6-10.6-0.8-12.6-13.6-26.1-26.2-41.7-36.4-3-2-4.2-4.8-3.1-8.3 1.1-3.3 3.5-4.9 6.8-5.2z" fill="#FEFEFE" /><path d="M290 562.1c3.9-1.5 7.4-0.3 10.9 1.2 1.5 0.7 3.1 1.3 4.6 1.9 0.2 0.8 0 1.3-1 0.9-5-0.5-9.7-2.4-14.5-4z" fill="#F3CF14" /><path d="M304.5 566.2c0.3-0.3 0.6-0.6 1-0.9 1 0.5 2.2 0.8 2.8 1.9-1.4-0.1-2.7-0.1-3.8-1z" fill="#D8A415" /><path d="M175 371.8c-0.3-39.3 5.3-72 21.4-102.5 1.1-2.2 2.3-4.3 3.6-6.4 3-5.1 6.8-6.6 10.9-4.3 4 2.2 4.8 6.5 1.9 11.5-8.9 15.1-14.9 31.3-18.6 48.5-5.1 23.7-5.2 47.6-3.7 71.6 0.2 3.7 0.7 7.3 1 10.9 0.2 4.2-2.6 7.6-6.5 8.1s-7.4-2.1-8-6.4c-1.7-12.1-2-24.1-2-31zM238.5 232.5c-2.2-0.1-4.5-1.4-5.8-4.2-1.4-3.1-1-6.1 1.6-8.4 4.8-4.3 9.6-8.5 14.6-12.5 10.6-8.2 22-15.3 34.4-20.7 5-2.2 9.2-1 11 2.9 1.9 4.1 0 8.2-5.1 10.5-16.2 7.2-30.5 17.3-43.6 29.1-1.8 1.9-3.7 3.4-7.1 3.3z" fill="#FEFEFE" /></svg>