<?xml version="1.0" standalone="no"?>
<!DOCTYPE svg PUBLIC "-//W3C//DTD SVG 1.1//EN" "http://www.w3.org/Graphics/SVG/1.1/DTD/svg11.dtd">
<svg class="icon" style="width: 1em; height: 1em;vertical-align: middle;fill: currentColor;overflow: hidden;" viewBox="0 0 1024 1024" version="1.1" xmlns="http://www.w3.org/2000/svg"><path d="M844.8 136.2v1c-0.9 1.6-0.5 3.4-0.5 5.2v740.5c0 1.7-0.5 3.5 0.5 5.2v1.9c-0.7 10.2-2.7 20.1-7.5 29.3-10.5 20.1-26.7 33-48.5 38.9-5.2 1.4-10.7 1.3-16.2 1.3h-35c-10.5 1.3-19.7-9.4-19.3-20.2 1.8-13 9.5-19.9 22.6-20 9.3-0.1 18.5-0.1 27.8 0 15.2 0.6 29.4-9.6 33.8-24.1 1.2-4.1 1.3-8.2 1.3-12.3v-267-285.2-3.4c0-8.3 0-8.3-8.6-8.4-6.2 0-12.5 0.2-18.7-0.1-3.2 0.2-6.4 0.1-9.6 0.1H405.2c-2.6 0-5.1 0.1-7.7-0.1-12.2-0.8-20-8.3-21.2-20.6 1.3-13.8 9.1-20.8 23.6-20.8h309.5c22.2 0 44.4-0.2 66.6 0.1 7.5-0.1 15-0.1 22.5 0 3.9 0.1 5.4-1.4 5.3-5.3-0.1-45 0.1-90-0.1-135-0.1-15.7-15.2-30.6-30.9-31.3-1.8-0.1-3.5-0.1-5.3-0.1-2.6 0.3-5.1 0.1-7.7 0.1H525.1c-13.4-0.3-20.8-6.8-23.1-20.1 0.7-13.4 8.4-20.7 21.8-20.7 83.1 0 166.1-0.1 249.2 0 25.9 0 45.4 12.3 59.8 33.2 7.4 10.7 11.7 22.7 11.3 35.9 0.2 0.8 0.3 1.4 0.7 2z" fill="#030000" /><path d="M844.8 888c-1.9-1.1-0.9-2.9-0.9-4.3-0.1-247.4-0.1-494.9 0-742.3 0-1.4-1-3.2 0.9-4.3V888z" fill="#C3C2C2" /><path d="M514 959.1v0.8H250.3v-0.8c2.5-2.5 5.7-1.7 8.6-1.7 43.2-0.1 86.5 0 129.7 0h117.3c2.8 0 5.8-0.7 8.1 1.7zM686.6 959.1c-0.1 0.3-0.1 0.6 0 0.8h-99.7c0-0.3-0.1-0.5 0-0.8 1.7-2 4-1.7 6.2-1.7 29.1-0.1 58.2-0.1 87.4 0 2.1 0 4.4-0.3 6.1 1.7z" fill="#CCCBCB" /><path d="M736.5 959.9v-0.8H774v0.8h-37.5z" fill="#CDCCCC" /><path d="M719.3 939.9c-4 0-8 0.1-12 0-2-0.1-3.4 0.3-4.1 2.3-1.5-0.8-1.5-2.3-1.7-3.7-1.8-10.3-8.1-15.9-18.6-16.3-2.1-0.1-4.2 0-6.2 0h-82.4c-3 0-6 0.1-9 0.7-7.3 1.6-11.8 6-13.8 13.1-0.5 1.6-0.4 3.6-2.2 4.6-12.6-1-25.2-0.2-37.9-0.5-1.7-1.2-2-3.2-2.7-5-3.1-7.7-8.8-12-17.1-12.7-2.6-0.2-5.1-0.1-7.7-0.1H256c-14.6 0-26-5.5-33.7-18.1-3.3-5.4-5-11.4-5.3-17.7-0.1-2.1 0-4.2 0-6.2V328.5c0-12.3 0-12.3 12.5-12.3h50.3c13.8 0 18.5-3.3 22.9-16.3 0.2-0.6 0.5-1.2 0.9-1.7 2.1-1.5 4.6-1.2 6.9-1.2h60.2c2.4 0 4.8-0.3 6.8 1.4 2.7 14 9 19.2 23.4 19.2h369.8c1.9 0 3.8 0.1 5.7 0.2 1.2 1.2 1.4 2.8 1.5 4.4 0.1 1.4 0.1 2.9 0.1 4.3v564.9c0 8.5-1.8 16.4-5.8 24-1.1 2.2-2.5 4.1-4.6 5.4-8.1 0.1-16.2 0.2-24.4 0.2-14.9-0.3-20.5 4.1-23.9 18.9z" fill="#FEDD5D" /><path d="M377.8 298.1c-24.4 0-48.8 0-73.3 0.1-1.9-0.7-1.8-2.5-2.2-4-2.5-8.7-8.7-13.6-17.9-13.7-18.9-0.1-37.7 0-56.6 0-1.9 0-3.8 0-5.7-0.1-3.1-0.2-4.6-1.8-4.8-4.9-0.1-1.3-0.1-2.6-0.1-3.8 0-43.6-0.1-87.3 0-130.9 0-18.3 11.6-32.9 28.9-37 3.3-0.8 6.7-0.8 10-0.8h129.4c2.6 0 5.1 0.1 7.7-0.3 7.6-1.2 12.9-5.3 15.4-12.7 0.6-1.8 0.7-3.8 2.8-4.8h92c3.6 14.8 9.1 19.1 24.5 19.1h233.9c2.1 0 4.1 0.1 6.2 0.2 7.1 6.4 8.8 15.2 10.2 24.1 0.2 1.4 0.1 2.9 0.1 4.3v137.9c0 2.6 0.6 5.5-1.5 7.8-1.9 0.1-3.8 0.2-5.7 0.2H400.6c-14.2 0.1-20.3 5.3-22.8 19.3z" fill="#69CAFE" /><path d="M768 920.5c7.6-11.6 8.9-24.4 8.9-37.9-0.2-188.4-0.1-376.7-0.1-565.1 8.6-0.1 17.2-0.1 25.9-0.2 2.2 0 3.3 0.6 3 3-0.1 0.8 0 1.6 0 2.4v560.8c0 18.9-10.6 32.6-28.1 36.6-3.3 0.6-6.4 0.8-9.6 0.4z" fill="#EC8B1C" /><path d="M776.7 278.7V130.9c0-9.8-4.1-18.1-8.8-26.4 20.1-1.4 37.5 13.9 37.6 34.1 0.2 45.5 0.1 90.9 0.1 136.4 0 2.2 0.1 4-3.1 3.9-8.6-0.2-17.2-0.1-25.8-0.2z" fill="#1C8EF0" /><path d="M411.4 85.3c-3.9 15.1-9.1 19.1-25 19.1-43.3 0-86.6 0.4-129.9-0.2-20.7-0.3-38.1 15.5-37.9 37.9 0.4 43.9 0.2 87.9 0 131.8 0 3.9 0.8 5.1 4.9 5.1 19.7-0.2 39.3-0.1 59-0.1 13.7 0 20.3 5.8 22 19.3-1.9 13-8.8 19.1-21.9 19.1-19.8 0-39.6 0.1-59.4-0.1-3.4 0-4.6 0.5-4.6 4.3 0.1 187.4 0.1 374.9 0.1 562.3 0 21.9 15.2 36.8 37.2 36.8H509c13.4 0 20.5 6.1 22.4 19.2-1.5 11.4-6.6 17.1-17.4 19.2-1.1-0.1-2.2-0.1-3.3-0.1H253.1c-1 0-1.9 0.1-2.9 0.1-40.5-2.9-69.9-34.4-69.9-75.1V141c0-42.9 32.4-75 75.2-75.1h131.8c15.3 0 20.2 3.9 23.5 18.5 0.1 0.4 0.4 0.6 0.6 0.9zM569.2 940.3c1.4-13.1 8.6-19.6 21.8-19.6h90.5c14.1 0 21.6 7.4 21.8 21.4-1.6 9.5-7.2 15.1-16.6 17-33.3 0-66.5 0-99.8 0.1-10.8-2-16.2-7.7-17.7-18.9z" fill="#030000" /><path d="M461.6 647.3c11.3 0 22.7-0.1 34 0.1 3.2 0 4.2-0.9 4-4.1-0.2-3.7-0.3-7.4 0-11 0.3-3.5-1.2-4.2-4.4-4.2-21.6 0.1-43.1 0-64.7 0-5.8 0-10.7-1.9-13.5-7.3-4.7-9.2 1.3-18.3 12.5-18.5 13.3-0.2 26.5-0.1 39.8-0.1 8.8 0 17.6-0.1 26.4 0.1 3.2 0.1 3.7-1.1 4.1-4.1 0.9-8.5-2-15.3-6.6-22.2-21.5-32.5-42.6-65.3-63.8-97.9-4.5-7-4.6-11.2-0.2-14.8 4.6-3.9 13-3.6 17.8 0.4 3.1 2.6 5 6.2 7.2 9.5 18.7 29.2 37.3 58.4 56 87.6 2.9 4.6 3 4.6 5.9 0.1 19.6-30.1 39.2-60.2 58.9-90.3 1.6-2.4 3.3-4.7 5.2-6.8 5.5-6.2 12.4-5 18.1-0.9 3.8 2.7 3.7 6.8 2.1 10.8-1.5 3.7-4.1 6.8-6.4 10.1-22 32.3-44 64.7-66 97-4.4 6.4-1.9 13.3-2.2 20-0.1 2.2 2.6 1.3 4 1.3 18.4 0.1 36.8 0 55.1 0h7.7c9.2 0.1 13.6 4.3 13.6 12.9 0 8.7-4.3 12.9-13.5 13-20.8 0.1-41.6 0.1-62.3 0-3.8 0-5.2 1-4.8 4.8 0.5 4.6-1.9 10.5 0.9 13.4 2.8 3 8.8 0.9 13.3 0.9 17.7 0.1 35.5 0.1 53.2 0 5 0 9.1 1.5 11.4 6.3 4.6 9.2-0.6 17.7-11.1 17.7-20.9 0.1-41.9 0.2-62.8 0-4.1 0-5.1 1.2-5 5.1 0.2 12.1 0.2 24.3 0 36.4-0.2 10.7-8.2 16.7-17.6 13.2-4.9-1.8-8.2-6.9-8.3-13.4-0.1-11.7 0-23.3 0-35 0-6.3 0-6.3-6-6.3h-61.8c-2.7 0-5.4 0-8.1-0.9-6.6-2.2-9.1-6.1-8.4-13.6 0.5-5.3 4.1-8.8 10.4-9.3 5.1-0.4 10.2-0.2 15.3-0.2 6.8 0.2 13.7 0.2 20.6 0.2z" fill="#FEFDFD" /><path d="M258.7 674.2V506.4c0-1.6 0-3.2 0.1-4.8 0.3-4.1 2.6-6.5 6.6-6.8 4.2-0.4 7.1 1.6 8 5.9 0.4 2.2 0.6 4.4 0.6 6.7v333.7c0 2.4-0.2 4.8-0.7 7.1-0.9 4.1-3.8 5.7-7.8 5.4-4.1-0.3-6.4-2.6-6.7-6.7-0.1-1.6-0.1-3.2-0.1-4.8V674.2zM258.7 383.6v-27.8c0-5.2 2.6-8.4 6.9-8.7 4.2-0.3 7.4 2.6 8.1 7.6 0.3 1.7 0.3 3.5 0.3 5.2v50.8c-0.3 6.3-3.4 10.1-8 10-4.8-0.1-7.3-3.6-7.3-10.3v-26.8zM462.7 126.6h158.7c1.4 0 2.9-0.1 4.3 0.1 4.3 0.4 7.1 3.5 7.2 7.6 0 4.1-2.8 7.2-7.1 7.7-1.3 0.1-2.6 0.1-3.8 0.1H303.2c-1.4 0-2.9 0.2-4.3-0.1-3.9-0.8-6.2-3.2-6.4-7.3-0.1-4.3 2.2-6.9 6.3-7.8 1.5-0.3 3.2-0.1 4.8-0.1 53-0.2 106-0.2 159.1-0.2zM712.9 141.9c-6.6 0-13.1 0.1-19.7 0-5.4-0.1-8.5-2.9-8.6-7.5-0.1-4.7 3.1-7.7 8.4-7.8 13.4-0.1 26.8-0.1 40.3 0 5.2 0 8.8 3.2 8.8 7.6 0.1 4.5-3.6 7.7-9.1 7.7-6.7 0.1-13.4 0-20.1 0z" fill="#FEFEFE" /></svg>