<?xml version="1.0" standalone="no"?>
<!DOCTYPE svg PUBLIC "-//W3C//DTD SVG 1.1//EN" "http://www.w3.org/Graphics/SVG/1.1/DTD/svg11.dtd">
<svg class="icon" style="width: 1em; height: 1em;vertical-align: middle;fill: currentColor;overflow: hidden;" viewBox="0 0 1024 1024" version="1.1" xmlns="http://www.w3.org/2000/svg"><path d="M583.8 936.7c-2.7 14.9-9.3 20.3-24.7 20.3H152.6c-41.1 0-71.4-23.8-81-63.7-0.3-1.2 0.3-2.9-1.5-3.4V527.8c1.9-1.1 1.5-3.2 1.9-4.9 7.9-36 39.7-62 76.6-62.2 28.5-0.2 56.9 0 85.4 0 15.9 0 22.1 4.9 25.2 20.3 2.1 4.7-0.2 8.6-2.8 12.2-4.9 6.8-11.8 9.8-20.2 9.8-28.5-0.1-56.9 0-85.4 0-10.7 0-19.9 3.3-27.5 11-6.9 6.9-10.5 15.3-10.9 25v336.9c0 10.3 2.9 19.3 10.1 26.9 7.4 7.8 16.4 11.7 27.1 11.9 5.4 0.1 10.8 0 16.3 0 131 0 261.9 0 392.9-0.1 9.1 0 16.8 2.3 22.2 9.8 2.5 3.6 4.9 7.5 2.8 12.3z" fill="" /><path d="M759.7 62c7.4 2.8 13.4 7.1 15.4 15.3 3.1 12.5-5.8 24.6-18.7 25.3-1 0.1-2 0-3.1 0h-361c-13.9 0-23.1-9-22.2-21.9 0.5-7.7 4.6-13.2 11.4-16.8 1.3-0.7 3-0.4 3.9-2 124.8 0.1 249.5 0.1 374.3 0.1zM326.5 62c7.9 3.2 14 7.9 15.5 17 2 11.9-6.6 23.4-18.7 23.6-26.4 0.4-52.8 0.3-79.3 0-9.5-0.1-17.2-7.3-19-16.8-1.7-8.7 3.1-17.9 11.4-21.8 1.5-0.7 3-1.3 4.6-2h85.5zM917.3 62c1.5 0.7 3.1 1.3 4.6 2 8.2 3.9 13 13 11.4 21.7-1.7 9.4-9.5 16.8-18.9 16.9-24.9 0.2-49.7 0.2-74.6 0-9.3-0.1-17.1-7.2-18.9-16.3-1.8-9.1 2.8-18.2 11.2-22.4 1.3-0.6 3-0.4 3.8-2 27.2 0.1 54.3 0.1 81.4 0.1zM163.7 62c9.6 3.4 16 9.4 16.2 20.1 0.2 10.9-8.2 20.2-19.1 20.4-18.4 0.3-36.9 0.3-55.3 0-9.5-0.1-17.2-7.5-18.9-16.9C85.1 77 89.9 67.9 98.1 64c1.5-0.7 3.1-1.3 4.6-2h61z" fill="#030000" /><path d="M583.8 936.7c-2.8-15-9.3-20.3-24.7-20.3H152.4c-25.2 0-41.5-16.1-41.5-41.1v-333c0-21.2 12.7-36.8 32.7-40.3 2.6-0.5 5.4-0.4 8.1-0.4h82.4c15.9 0 22-4.9 25.3-20.3h61.9c2 0 4-0.3 6-0.5 1.8 1.2 1.8 3.2 2.3 4.9 2.7 8.8 9.1 13.8 18.3 14.2 2.4 0.1 4.7 0 7.1 0h501.8c3.5 0 7.1-0.4 10.6 0.8 3.3 1.8 5 5 6.5 8.2 3.6 7.4 5.4 15.3 5.4 23.6 0 117.8 0.1 235.5-0.1 353.3 0 20.6-9.9 35.8-27.3 46.3-3.5 2.1-7.1 3.9-11.4 3.7-2.2-0.5-2.5-2.5-3.2-4.2-3.3-8.5-9.5-13.3-18.5-13.3-36.6-0.2-73.2-0.2-109.7 0-10.5 0.1-17.4 6.6-19 16.8-0.2 1.6-0.1 3.5-1.9 4.5-0.7-3.3-3.4-2.6-5.6-2.6-33-0.3-65.9-0.3-98.8-0.3z" fill="#68CAFE" /><path d="M867.6 501.5c-2-0.1-4.1-0.1-6.1-0.1H350.6c-8.6 0-15.6-2.3-20.4-9.8-2.2-3.4-2.9-7.2-3-11.1 1.5-12.8 9.2-19.8 21.9-19.8 176.9 0 353.8-0.1 530.7 0 43.9 0 79.1 35.2 79.2 79.1 0.1 112.7 0.1 225.4 0 338.1 0 42.5-34 77.8-75.6 79.1-14.3 0.4-22.1-6.1-24.1-20.3-1.5-2.1-0.9-4.2-0.2-6.3 3.1-9.2 10.6-14.9 21.1-15.5 8.7-0.5 16.6-3 23.3-8.8 8.9-7.7 13.3-17.3 13.3-29 0-112.1 0.1-224.3 0-336.4 0-21.6-16.1-37.4-37.7-37.7-3.9-0.1-7.9 0.6-11.5-1.5z" fill="" /><path d="M510 203.4H109.4c-11.7 0-19.3-5.1-22.1-14.8-3.5-12.3 5.2-24.9 18-25.8 1.3-0.1 2.7-0.1 4.1-0.1h801.3c11.7 0 19.3 5.1 22.1 14.8 3.6 12.3-5.2 24.9-18 25.8-2 0.1-4.1 0.1-6.1 0.1H510z" fill="#030000" /><path d="M510 262.4h400.6c11.7 0 19.4 5.2 22.1 14.8 3.5 12.4-5.1 24.8-18 25.8-1.5 0.1-3 0.1-4.6 0.1H109.9c-12.2 0-19.8-5-22.6-14.8-3.5-12.4 5.2-24.8 18-25.8 2-0.1 4.1-0.1 6.1-0.1H510z" fill="#EC8B1C" /><path d="M509.5 402.7H108.8c-11.5 0-19.1-5.5-21.7-15.4-3.2-12.3 5.4-24.3 18.1-25.3 1.3-0.1 2.7-0.1 4.1-0.1h801.3c11.9 0 19.6 5.3 22.2 15.4 3.2 12.5-5.6 24.6-18.6 25.3-1.9 0.1-3.7 0-5.6 0-133 0.1-266.1 0.1-399.1 0.1z" fill="#FEDD5D" /><path d="M867.6 501.5c6.8-0.1 13.5-0.7 20.2 0.7 17.1 3.6 29.8 18.6 30.5 36 0 1.2 0.1 2.4 0.1 3.6v333.9c0 19.1-10.4 33.6-27.5 38.8-2.9 0.9-5.9 1.4-9 1.6-13.9 0.8-20.7 6.8-22.7 20.4H840c-0.5-0.6-0.6-1.3-0.1-1.9 17.4-3.5 33.4-20.5 36.7-38.7 0.7-4 1-8 1-12.1V533.6c0.1-11.7-2.9-22.5-10-32.1z" fill="#1C8EF0" /><path d="M839.9 934.7c0 0.6 0.1 1.3 0.1 1.9-3 15.1-9.3 20.3-24.6 20.3H709.9c-11.9 0-19.3-6.1-21.7-17.7 0-15.1 7.9-22.9 23.2-22.9H815c14.9 0 20.8 4.4 24.9 18.4z" fill="" /><path d="M560.5 623.3c25.8 2.2 46.8 25.1 43.2 55.5-0.9 7.7-2.9 15-7.2 21.4-1.6 2.3-0.3 3.7 0.7 5.4 10.7 18.4 10.1 47.2-9.4 64.1-9 7.8-19.4 12.1-31 12.2-31 0.4-62 0.2-93 0.1-12.9-0.1-20.5-10.6-18.9-26.4 3.2 6.2 8.2 6.4 13.7 6.3 29.3-0.1 58.6 0.1 87.9-0.2 16.6-0.2 31.2-11.3 35.5-26.9 4-14.6 2.2-28.3-8.5-39.8-2.4-2.6-1.3-3.7 0.4-5.7 14.1-17.2 13.1-41.7-2.2-56.1-4.7-4.4-10.2-7.2-16.3-8.9 1.2-2.6 3.3-1.1 5.1-1zM755.1 622.7c9.5-0.8 17.7 0.3 23.2 8.4 4.5 6.6 5.2 13.6 1.4 20.6-3.6 6.8-9.2 10.7-17.2 10.7h-84.3c-2.2 0-4.4 0.1-6.6 0.4-6.8 0.8-9.3 3.1-9.3 10-0.2 20.3-0.1 40.6 0 61 0 4 2.3 6.5 7 8.4-4.2 0-7.1 0.4-10-0.1-11.1-1.6-17.1-8.5-17.3-20.2-0.2-19.5-0.2-39 0-58.4 0.2-13.6 7.7-20.7 21.4-20.8h86.9c5.1 0 8.9-1.7 10.8-6.7 1.9-5.1-0.2-8.8-4.2-11.9-0.4-0.3-0.8-0.6-1.8-1.4zM266.4 755.8c6.8 7.7 14.3 8 18.3 1.6 1.3-2.2 1.2-4.5 1.2-6.9 0-14.4 0.1-28.8-0.1-43.2-0.1-3.8 1.2-4.9 4.9-4.8 30.3 0.1 60.6 0.1 90.9 0 3.5 0 4.9 0.9 4.6 4.6-0.3 3.2-0.3 6.5 0 9.6 0.5 4.4-1 5.8-5.6 5.7-22.7-0.2-45.4-0.1-68.1-0.1-6.5 0-6.5 0-6.5 6.8v32c0 12.3-8.3 20.8-19.8 21.1-10.1 0.3-21.2-9.1-20-21.5 0.3-1.4 0.2-2.7 0.2-4.9z" fill="#FEFEFE" /><path d="M382.5 623.3c24.1 1.8 43.3 22.4 43.4 47.3 0.2 30.1 0.1 60.3 0 90.4 0 12.5-8.4 21.1-20.4 21.1-11.7-0.1-19.5-8.6-19.4-21.2 0-1.1 0.1-2.3 0.2-4 2.7 1.5 4 4.1 6.7 4.8 7 1.7 12.6-2.8 12.6-10.5 0.1-16.8 0-33.5 0-50.3v-37.6c0-19.8-9.5-32.8-28.4-39 1.5-2.6 3.5-1.1 5.3-1zM623 733c3.3 9.4 8.2 17.4 16.9 22.8 5.9 3.6 12.3 5.9 19.1 6 31 0.2 62 0.1 93 0.2 4.8 0 7.7-2.4 9.2-6.6 1.8-5.2-0.6-9.2-5.1-12.6 8.8-1.5 16.1 0 21.5 6.9 5 6.4 5.9 13.6 2.5 21-3.6 7.6-9.8 11.4-18.3 11.4-30.3 0-60.6 0.1-91 0-27.5-0.2-49.4-22.6-47.8-49.1zM155.6 750.5v-90.4c0-1.5-0.2-3.1 0.1-4.6 1-4.3 3.7-6.8 8.2-6.7 4.3 0.1 6.9 2.6 7.7 6.7 0.3 1.5 0.1 3 0.1 4.6V842c0 1.5 0.2 3.1-0.1 4.6-0.9 4.3-3.7 6.8-8.2 6.7-4.3-0.1-6.9-2.6-7.7-6.7-0.3-1.6-0.2-3.4-0.2-5.1 0.1-30.4 0.1-60.7 0.1-91zM563.5 667c-3.7-4.7-8.8-4.7-13.8-4.7-19.8-0.1-39.7 0.1-59.5-0.1-4.5 0-6.5 0.9-6.1 5.9 0.3 4.5 2 10.4-0.7 13.3-3 3.2-9 0.5-13.6 1.1s-6.1-1-5.9-5.8c0.4-10 0.2-20 0.1-30 0-3.1 0.9-4.1 4-4.1 25.9 0.1 51.9-0.1 77.8 0.2 12.6 0.1 20.5 10.8 17.7 24.2zM563.8 727.5c-3.4-4.8-7.7-5.2-12.2-5.2-20.6 0-41.3 0.1-61.9-0.1-4.6-0.1-5.9 1.4-5.6 5.8 0.2 4.5 2 10.4-0.7 13.3-3 3.2-9 0.5-13.6 1.1s-6.1-1-5.9-5.8c0.4-9.6 0.3-19.3 0-28.9-0.1-3.8 0.8-5.3 5-5.3 24.7 0.2 49.4 0 74.1 0.1 15.1 0.1 22.5 8.6 20.8 25z" fill="#FEFEFE" /><path d="M385.4 667.2c-2.3-3.9-6.2-4.7-10.1-4.7-19.8-0.2-39.6-0.7-59.4 0.2-7.1 0.4-9.2 3.1-9.7 10.2-0.6 9.5-0.6 9.5-10.2 9.5-10.1 0-10.1 0-10.1-10.1 0-4.9-0.2-9.8 0.7-14.7 1.7-8.4 8.3-14.8 16.9-14.9 21.7-0.2 43.3-0.2 65 0 10.3 0.1 17.1 7.8 17.7 19.1 0.1 1.7 0.1 3.4 0.1 5.1-0.1 0.7-0.5 0.8-0.9 0.3zM171.9 579.7c0 6.1 0.1 12.2 0 18.3s-3 9.4-8.2 9.3c-5-0.1-8-3.3-8-9.1-0.1-12.7-0.1-25.4 0-38.1 0-5.6 3.4-9 8.2-8.9s7.9 3.5 8 9.2v19.3z" fill="#FEFEFE" /><path d="M382.5 623.3c-1.7 0.5-3.7-0.6-5.1 1-2.1-0.4-4.1-0.8-6.2-1.3 3.9-0.4 7.7-1.5 11.3 0.3zM560.5 623.3c-1.7 0.5-3.7-0.6-5.1 1-2.1-0.4-4.1-0.8-6.2-1.3 3.8-0.4 7.7-1.5 11.3 0.3z" fill="#D6EFFE" /><path d="M385.4 667.2c0.3-0.1 0.6-0.1 1-0.2v4.3c-1.6-1.3-0.7-2.8-1-4.1z" fill="#8ED5FE" /></svg>