<?xml version="1.0" standalone="no"?>
<!DOCTYPE svg PUBLIC "-//W3C//DTD SVG 1.1//EN" "http://www.w3.org/Graphics/SVG/1.1/DTD/svg11.dtd">
<svg class="icon" style="width: 1em; height: 1em;vertical-align: middle;fill: currentColor;overflow: hidden;" viewBox="0 0 1024 1024" version="1.1" xmlns="http://www.w3.org/2000/svg"><path d="M663.1 208.5c7.8-10.7 16.9-12.7 28.2-6 91.8 54.3 149.8 133.5 173.5 237.6 3.9 17 6.3 34.3 6.9 51.7 0.1 3.9 1.6 4.4 5 4.4 20.5-0.1 41.1-0.1 61.7-0.1 13.4 0 18.1 3 23.1 14.9v8.4c-3 6.3-6.8 11.7-14.2 13.5-2.2 0.5-4.3 0.5-6.5 0.5-21.5 0-42.9 0.1-64.4-0.1-3.6 0-4.3 1.1-4.5 4.4-2.2 38.6-10.8 75.8-25.2 111.7-5.1 12.6-13.1 16.6-26.2 13-2.7 0.4-4.4-1.4-6-3-6.4-6.6-7.8-14.2-4.3-22.8 3.8-9.5 7.4-19.2 10.3-29 7.1-23.7 11.3-47.7 12.9-72.4 0.6-8.7 0.9-17.4 0.7-26.1-0.6-29.1-4.9-57.6-13.1-85.5-5.2-17.5-11.8-34.5-19.8-50.8-12.1-24.5-27.1-47.2-45.1-67.8-24.6-28.1-52.9-51.7-85.5-70.1-8.2-4.7-11.1-11.7-10.1-20.8 0.1-2.2 0.5-4.3 2.6-5.6zM515.7 64.5c12 5 14.9 9.7 14.9 23.1 0 20.7 0.1 41.4-0.1 62.1-0.1 4.6 0.9 6.2 5.9 6.4 19.9 0.8 39.5 4.3 59 8.4 11.9 2.5 19.4 10.3 17.3 24.2-0.3 6.6-6.7 13.1-14.2 14.3-5 0.8-9.8-0.2-14.7-1.3-2.9-0.7-5.7-1.5-8.6-1.6-24.6-5.3-49.6-7.2-74.7-6.1-42.9 1.9-84 11.5-123.1 29.8-21.1 9.9-40.8 22-59.4 35.9-8.5 6.4-16.6 6.7-24.6 1.4-1.7-1.1-3.3-2.4-3.5-4.6-6.7-11.2-5-20.1 5.5-28 49.7-37.5 105.4-60.9 167.2-69.7 8.9-1.3 17.9-2.5 26.9-2.7 3.5-0.1 3.9-1.5 3.9-4.5-0.1-21.3-0.1-42.7-0.1-64 0-13.4 3-18.1 14.9-23.1h7.5z" fill="#030000" /><path d="M289.9 256.4c8.6 8.6 17.9 9.4 27.4 2.2 47-35.7 99.8-57.1 158.3-64 32.5-3.8 64.9-2.7 97.1 3.5 0.9 0.2 1.8 0.5 2.7 0.8 15.4 4.7 29.4 12.6 43.2 20.6C640.3 232 660 247 678.4 264c44 40.8 74.9 89.9 93.4 146.8 7.4 22.9 12.1 46.3 14.4 70.3 1.5 15.7 2.3 31.4 1.6 47-1.9 42-10.7 82.6-27.4 121.3-14.5 33.7-33.8 64.4-58.2 91.9-28.3 31.9-61.3 57.8-99.2 77.3-9 4.6-18.1 9-27.4 13.1-8.4 3.1-17.3 3.6-26.1 4.6-14.5 1.6-29.1 2.5-43.7 2-28.9-0.9-57.2-5-85-13.3-38-11.4-72.7-29.1-104.2-53.1-8-6.1-16.1-7.9-24.7-1.1-0.9 0.7-1.8 1.2-3 0.9-23.6-20.6-44.1-43.8-61-70.2-0.3-1.5 0.8-2.2 1.6-3.2 6.6-7.4 7.4-14.5 2.5-23-10.8-18.7-19.5-38.3-26.2-58.7-8.8-26.4-13.8-53.5-15.6-81.3-2.7-41.4 2.4-81.6 15.1-120.9 9.1-28.3 22.1-54.8 38.6-79.5 1.8-2.7 3.8-5.4 5.2-8.3 3-5.9 2.6-11.7-0.7-17.3-1.1-1.8-3-3.3-3-5.7 9.8-13.3 21.1-25.2 33-36.6 3.8-3.4 7.7-7 11.5-10.6z" fill="#68CAFE" /><path d="M575.4 830.7c9.1-4.4 18.2-8.6 27.2-13.2 23.6-12.1 45.3-27 65.4-44.3 38.3-32.8 67.6-72.3 88.4-118 12.4-27.2 20.9-55.7 25.6-85.3 3.7-22.9 5.4-46 4.3-69.1-1.3-28.3-5.8-56-13.9-83.2-10.7-35.8-26.7-68.9-48.2-99.3-27.9-39.5-62.7-71.6-104.1-96.5-14.4-8.6-29.6-15.6-44.8-22.8 3.9-0.1 7.6 1.2 11.4 2.1 13.5 2.9 20.1-0.1 25.9-12.3 17.3 5.2 34 12 50.4 19.8-4.5 12.1-1.4 19.9 10.3 26.8C752.4 282.2 804 349.8 826.1 439c16.4 66.4 11.3 131.8-13.9 195.5-2.9 7.4-4.1 14.3 0.5 21.3 2 3 4.8 4.8 7.7 6.7-22.6 46.7-54.1 86.2-94.5 118.7-1.6 0.3-2.6-0.9-3.7-1.7-7.9-5.7-14.8-5.8-22.8-0.2-11 7.7-22.4 14.6-34.2 21-20.2 11-41.4 19.3-63.5 25.7-6.7 2-13.5 3.6-20.4 5.1-2 0.4-4 1.1-5.9-0.4z" fill="#1C8EF0" /><path d="M575.4 830.7c15-2.1 29.3-6.6 43.6-11.5 27.9-9.6 53.9-23 78.1-39.9 11.1-7.8 18.9-7.3 28.7 1.9 6.4 12.5 4.4 20.7-7.2 28.8-51.6 35.7-108.6 56.9-171.2 62.8-4.3 0.4-8.7 0.9-13 0.9-3.1 0-3.8 1.2-3.8 4.2 0.1 22.4 0.1 44.8 0 67.2-0.1 13.3-12.4 22.3-24.7 18.1-7.7-2.6-12.6-9.6-12.6-18.3-0.1-22.3-0.1-44.5 0.1-66.8 0-3.4-0.8-4.4-4.3-4.6-73-4.9-138.5-29.9-196.5-74.4-9-6.9-10.1-16.2-3.8-27.3 9.9-8.6 17.9-8.9 28.3-1 48.5 36.8 103 58.5 163.7 64.6 30.8 3.1 61.5 1.8 91.9-4 1-0.1 1.9-0.5 2.7-0.7zM245.4 303.8c8.9 9.7 9.4 17.4 2 28.4-40.2 59-59 124.2-56.5 195.4 1.9 51.8 15.7 100.5 41.3 145.6 2.6 4.5 4.7 9.1 4.1 14.5-0.7 6-4 10.3-8.5 13.9-13 5.4-21 2.6-28-9.6-25.1-44.4-40.2-92-44.9-142.8-0.4-3.9-0.9-7.8-0.9-11.6 0-3.2-1-4.1-4.3-4.1-23 0.1-46.1 0.2-69.1 0-13.3-0.1-22.2-12.5-18-24.8 2.6-7.6 9.6-12.5 18.3-12.5 22.7 0 45.5-0.1 68.2 0.1 3.5 0 4.7-0.7 4.9-4.5 4.1-65.9 25.1-126 62.2-180.5 8.3-12.1 16.3-14.1 29.2-7.5zM704.4 514.3c0 106.1-86 192.1-192.1 192-106 0-192-86.1-191.9-192.2 0.1-106 86.3-192 192.3-191.8 105.9 0.2 191.7 86.1 191.7 192z" fill="#030000" /><path d="M509.1 806.2c-28.8-2.3-57.1-8.4-84.6-18-47.4-16.5-89-42.1-123.1-79.2-22.1-24.1-39.2-51.4-51.8-81.5-3-7.1 0.7-12.9 7.4-11.9 3.6 0.5 5.1 3.2 6.4 6.1 7.1 16.8 15.6 32.9 25.9 48 23.2 34.1 53 60.9 88.7 81.2 35.3 20 73.2 32.3 113.2 38.4 6.3 1 12.6 1.5 19 2 6.3 0.4 9.6 3.1 9.4 7.9-0.4 4.8-3.8 7.2-10.5 7zM231.4 538c-3.5-0.3-6.7-3.5-7.1-7.6-2.8-34.3-0.2-68 11.9-100.6 2-5.5 5.8-7.8 10.2-6.2 4.4 1.6 5.9 5.9 3.9 11.2-6.5 17.3-9.7 35.2-11.2 53.6-1.1 13.5-0.7 27 0.2 40.5 0.2 5.7-3.3 9.4-7.9 9.1z" fill="#FEFEFE" /><path d="M591.4 646.8c-18.5 11.9-39 18.7-60.7 21-52.6 5.4-97.8-10.8-132.9-50.2-39-43.7-50.2-95.1-32.1-150.8 18-55.2 56.9-89.9 113.6-103.2 38.5-9.1 75.3-2.8 109.8 16.7 0.8 0.5 1.5 1 2.3 1.6 82.4 66.8 82.6 197.9 0 264.9z" fill="#FEDD5D" /><path d="M591.4 646.8c1.2-3 4.2-4.1 6.3-6.1 28.3-27.4 46.5-60.3 52.3-99.2 7.5-50.1-4.5-95.5-36.1-135.5-6.1-7.7-12.5-15.1-20.2-21.2-1-0.8-2-1.5-2.3-2.9 15.1 8.2 27.8 19.4 38.7 32.4 25.7 30.5 38.6 66 36.6 105.8-2.6 54.1-27.5 95.9-72.9 125.5-0.7 0.5-1.6 0.8-2.4 1.2z" fill="#EC8B1C" /><path d="M556.8 394c0.1 6.2-4.3 9.6-9.9 8.2-13.2-3.1-26.5-5.2-40.1-5.2-36-0.1-64.2 14.6-84.6 44.2-0.8 1.2-1.5 2.3-2.4 3.5-3.4 4.5-7 5.6-10.7 3.1-4.1-2.7-4.8-6.6-1.7-11.4 8.6-13.3 19-24.9 32.1-34.1 24.3-17.1 51.4-22.3 80.6-19.7 10.2 0.9 20.3 2.7 30.3 4.9 3.8 1.1 6 3.5 6.4 6.5zM380.3 519.3c1.1-12.4 3-25.4 6.9-38.1 1.6-5.3 5.3-7.7 9.6-6.5 4 1.2 6.1 5.2 4.8 10.3-2 7.7-3.8 15.4-4.9 23.2-0.6 4.1-1.1 8.3-1.4 12.5-0.4 6.8-2.9 10.1-7.9 9.9-4.9-0.2-7.3-3.7-7.1-11.3z" fill="#FEFEFE" /></svg>