<?xml version="1.0" standalone="no"?>
<!DOCTYPE svg PUBLIC "-//W3C//DTD SVG 1.1//EN" "http://www.w3.org/Graphics/SVG/1.1/DTD/svg11.dtd">
<svg class="icon" style="width: 1em; height: 1em;vertical-align: middle;fill: currentColor;overflow: hidden;" viewBox="0 0 1024 1024" version="1.1" xmlns="http://www.w3.org/2000/svg"><path d="M326.6 811.3c-6.5-2.4-11.8-6.2-13.9-13.2-3.6-12.1 5.1-23.9 17.9-24 20.9-0.2 41.9 0 62.8 0 10.5 0 21.1-0.1 31.6 0 2.9 0 5.1 0.1 3.2-3.8-0.2-0.4-0.2-0.9-0.3-1.4-1.2-7.7-1.2-7.7-8.8-7.7-90.6 0-181.1 0-271.7 0.1-8.7 0-16.6-1.8-22.9-8.1-5.5-5.5-8.3-12.2-8.3-20v-40.9c0-14.8 9-25.9 23.5-28.4 3.1-0.6 3.5-1.7 3.5-4.3-0.1-14.9-0.1-29.8 0-44.7 0-17.6 9.9-27.6 27.6-27.8 0.9 0 1.9-0.1 2.8-0.2 2.1-1.4 4.4-1.3 6.7-1.3 16.2 0 32.5 0.1 48.7-0.1 5.1 0 9.4 1.3 12.5 5.6 1.5 2.1 3.6 2.8 6 2.8 1.8 0 3.7 0 5.3 1.2 0.4 0.6 0.4 1.1-0.1 1.6-0.5 0.4-1.1 0.8-1.7 0.7-5.1-0.2-8.7 1.8-11.6 6.1-2.2 3.3-6.3 3.6-10.1 3.6h-53.5c-1.7 0-3.4-0.1-5.1 0.1-5.3 0.4-7.4 2.2-7.4 7.5-0.2 22.5-0.2 45 0 67.4 0 5.6 2 7.3 7.8 7.6 2 0.1 4 0 6 0h286c10.8 0 10.9 0.1 10.9 10.9v7.9c0.2 9 4.7 13.7 13.9 13.7 13 0.1 26 0 39.1 0 2.8 0 5.6 0.1 8.4-0.1 6.8-0.7 10.7-4.8 11-11.5 0.2-5-0.1-9.9 0.2-14.9 0.2-4.6 1.4-5.6 6-5.9 2.2-0.1 4.3-0.1 6.5-0.1h283.2c11.6 0 12.2-0.6 12.2-12v-59.5c0-9.7-1.3-11.1-11-11.1H674.7c-3.1 0-6.2 0.2-9.2-0.9-4.8-1.8-6.9-5.3-6-9.9 1.6-7.1 4.4-9.3 11.6-9.3h177.2c15.6 0 26.2 10.7 26.2 26.3 0 15.5 0.1 31 0 46.5 0 2.3 0.3 3.3 3 3.8 15.1 2.7 24 13.6 24 29v39.5c-0.1 17.2-11.5 28.9-28.8 29-25.6 0.2-51.2 0-76.7 0-66.2 0-132.4 0-198.6-0.1-3.6 0-5.4 0.5-5.2 4.6 0.1 2.7-0.7 5.4-1.1 8.1 2.9 0.1 5.9 0.2 8.8 0.2h222.8c12.8 0 21.5 8.8 20.2 20.6-1 8.9-6.8 13.8-14.8 16.6-167.2 0.2-334.4 0.2-501.5 0.2z" fill="#030000" /><path d="M208.4 811.3l-4.2-1.8c-7.5-3.5-11.9-11.9-10.5-19.9 1.6-8.6 8.7-15.3 17.3-15.4 18.1-0.2 36.2-0.2 54.3 0 8.6 0.1 15.7 6.9 17.3 15.4 1.4 8-2.9 16.3-10.5 19.9l-4.2 1.8h-59.5zM894.1 811.3c-0.7-1.4-2.4-1.2-3.5-1.8-7.7-3.8-11.9-12.1-10.3-20.4 1.6-8.2 8.8-14.8 17.3-14.9 15.3-0.2 30.7-0.2 46 0 8.6 0.1 15.8 6.8 17.3 15.4 1.5 8.2-3.1 16.6-10.9 20.1-1.2 0.6-2.5 1.1-3.8 1.6h-52.1zM61.4 788c1.4-0.9 1.3-2.7 2.1-4 3.7-6.4 9.2-9.9 16.6-10 11-0.1 22-0.1 32.9 0 10.5 0 18.1 6.2 19.7 15.9 1.5 8.9-3.9 17.2-13.5 20.5-0.4 0.1-0.7 0.5-1.1 0.7H76.2c-8.4-1-13.3-5.7-14.9-14 0.1-2.9 0.1-6 0.1-9.1z" fill="#030000" /><path d="M61.4 797.3c3 6.8 7.6 11.8 14.9 14-4.3 0-8.7-0.1-13 0.1-1.6 0.1-2-0.3-1.9-1.9 0.1-4.1 0-8.1 0-12.2z" fill="#FCFCFC" /><path d="M659.5 596.4c1.6 7.1 4.3 9.3 11.6 9.3H846c8.4 0 10 1.6 10 10v66.5c0 7.2-1.9 9.1-9 9.1H555.4c-7.2 0-7.2 0-7.2 7.4 0 3.9 0.1 7.8 0 11.6-0.2 8.2-5.3 13.4-13.4 13.4-16.3 0.1-32.6 0.1-48.8 0-7.9 0-13.1-5.3-13.3-13.1-0.1-5.4-0.1-10.9 0-16.3 0.1-2.4-0.6-3.5-3.1-3.1-1.1 0.1-2.2 0-3.3 0H171.9c-8.4 0-10-1.5-10-10v-67c0-6.5 2.1-8.6 8.6-8.7H231c5.9 0 8.4-1.6 10.4-7.2 0.7-2 1.7-2.2 3.3-2.1 2.8 0 5.6-0.1 8.4-0.1 1.9-1.1 3.2-0.3 4.4 1.1 2.2 5.3 6.1 7.1 11.8 7 16.7-0.2 33.4-0.3 50.2 0 7.6 0.2 14.2-0.6 17.6-8.6 6.2-1.4 12.4-1.5 18.6 0 3.8 8.1 10.9 8.5 18.7 8.4 78.4-0.2 156.7-0.1 235.1-0.1 2.2 0 4.3 0 6.5-0.1 3.8-0.2 6.9-1.6 8.6-5.3 0.5-1 1-1.9 2-2.5 10.9 0.4 21.9 0.4 32.9 0.4z" fill="#FEDD5D" /><path d="M355.5 596.4H337c-1-0.5-1.6-1.5-2-2.5-1.9-4-5.2-5.4-9.4-5.4-19.1 0-38.3 0-57.4-0.1-5.4 0-8.6 2.8-10.9 7.1-1.3 0.7-2.7 0.4-4.1 0-2-0.1-4-0.3-6-0.3-3-0.1-5.4-0.3-7-3.8-1.6-3.7-5.5-4.5-9.5-4.5-19 0-38-0.1-57-0.1 9.9-26.7 19.7-53.4 29.6-80.1 22.2-59.9 44.5-119.7 66.7-179.6 0.4-1 0.7-2 1-3.1 5.7-1.9 11.4-0.1 17 0.7 26.8 3.9 50 15.8 70.8 32.7 28.8 23.5 50 53.2 68.1 85.2 17.3 30.5 31.3 62.6 42.9 95.7 4.7 13.5 9.1 27 13.1 40.7 2.6 9 2.4 9.2-6.8 9.2H398c-9.6 0-19.2 0.2-28.8-0.1-5.5-0.1-9.8 1-12 6.6-0.3 0.9-1 1.4-1.7 1.7z" fill="#1C8EF0" /><path d="M430.1 414.1c40.9-35.8 81.8-71.7 122.7-107.5 31.5-27.6 63-55.1 94.4-82.6 1.9-1.7 4.3-3.2 5.3-5.7 2.4 0 2 2.1 2.3 3.3 6.4 23.2 8 46.9 6.3 70.9-1.9 26-7.5 51.2-15.6 75.8-8.9 27-20.3 52.9-33.8 78-9.5 17.6-19.6 34.8-30.5 51.6-17.4 26.8-36.5 52.4-56.8 77-2.8 3.3-5.7 6.6-8.4 9.9-2.8 3.3-7.2 4.5-11.3 3.2-2.5-0.8-3.1-2.8-3.7-4.9-3.9-13.4-7.9-26.8-12.3-40-11.2-33.3-24.7-65.6-41-96.6-4.9-9.3-10.2-18.4-15.7-27.4-1.2-1.6-2.9-2.9-1.9-5z" fill="#69CAFE" /><path d="M430.1 414.1c32.9 52.8 55.3 110.1 72.2 169.7 0.4 1.4 0.2 3.5 2.4 3.3 3.3-0.3 6.8 1.2 9.8-2.4 11.5-13.8 23-27.6 33.8-42 33.8-45.1 63.4-92.7 85-144.9 13-31.3 22.5-63.5 26-97.3 2.9-27.8 1.6-55.3-6.8-82.2-0.2-1-0.5-2.1-0.7-3.2-1.3-5.4 1.2-10.2 6.2-11.8 4.9-1.5 9.9 1.1 11.6 6.6 3.1 9.6 5.3 19.4 6.8 29.3 7.5 48.1-0.8 94.4-16.2 139.8-18.1 53.3-45.6 101.7-77.4 147.8-13.7 19.9-28.5 39-43.9 57.7-0.6 0.7-1.1 1.3-2.2 2.7h78.7c6.8 0 9.8 2.5 11.1 9.3-1.3 6.8-4.2 9.3-11 9.3H366.7c-6.7 0-9.1-2.1-11.2-9.3 2.3-7.6 4.5-9.3 12.7-9.3H483.8c-4.7-17.2-10-33.9-15.9-50.3-16.3-45.3-36.1-88.9-64.2-128.4-18.5-26-40-49-67.8-65.3-18.9-11.1-39.2-17.4-61.2-18.5-1.2-0.1-2.4-0.4-3.7-0.5-5.1-3.3-6.9-7-5.5-11.5s5.2-6.8 11-6.5c33.2 1.8 62.4 14.1 88.5 34.2 23.7 18.2 42.7 40.7 59.4 65.3l5.7 8.4z" fill="#030000" /><path d="M293.3 742.7H147.7c-10.2 0-12.8-2.7-12.9-13v-37.2c0-4.4 1.5-7.8 5.7-9.8 1.8-0.9 2.6-0.8 2.8 1.6 1.6 17.4 10.7 25.6 28.3 25.6 92.4 0 184.8 0 277.2-0.1 3.6 0 5.1 0.4 5.5 4.8 1.6 16 14.8 27.7 30.9 27.8 17.1 0.1 34.1 0.2 51.2 0 15.4-0.2 28.9-12.5 30-27.6 0.3-4.3 1.7-4.9 5.5-4.9 85.6 0.1 171.1 0.1 256.7 0.1 7 0 14 0.1 20.9 0 13.8-0.2 24.4-10.4 25.1-24.2 0.1-1.1-0.7-2.8 0.6-3.3 1.3-0.6 2.6 0.5 3.8 1.3 2.7 1.9 4 4.6 4 8 0 13.8 0.1 27.6 0 41.4 0 6-3.6 9.4-9.6 9.6-1.5 0.1-3.1 0-4.6 0-96.4 0-192.9 0-289.3-0.1-4.4 0-6 1-5.6 5.6 0.4 4.8 0.2 9.6 0.1 14.4-0.3 7.9-4.1 11.5-11.9 11.5H457.9c-7.6 0-11.4-3.5-11.7-11.1-0.2-5.1-0.3-10.2 0-15.3 0.2-3.8-0.9-5-4.9-5-27.7 0.2-55.5 0.1-83.2 0.1-21.7-0.2-43.2-0.2-64.8-0.2z" fill="#EC8B1C" /><path d="M253 595.6c1.2-0.2 2.4-0.3 3.5-0.5 0.8 0.8 0.7 1.6 0.1 2.4-0.8-1.5-2.4-1-3.6-1.3 0.1-0.2 0.1-0.4 0-0.6z" fill="#060F1A" /><path d="M256.7 597.5c0-0.8 0-1.6-0.1-2.4 1.3-5.3 4-8 9.2-8 20.5-0.1 40.9-0.1 61.4 0 5.6 0 8.3 2.8 9.7 9.3-1.6 7.1-4.3 9.3-11.5 9.3h-58.5c-6.2 0-9.2-2.4-10.2-8.2z" fill="#030000" /><path d="M389.2 420.7c4.1 0.2 6.2 2.6 8.2 5.3 14.9 19.9 27.4 41.2 37.9 63.7 4.8 10.2 9.1 20.7 13 31.3 2 5.5 0.5 9.8-4.1 11.6-4.5 1.8-8.6-0.5-10.7-6-12.3-33.1-28.4-64.2-49.8-92.4-2.1-2.8-3-5.8-1.2-9.1 1.5-2.9 4-4.3 6.7-4.4zM358.4 387.3c0 3.2-1.4 5.6-4.3 7.1-3.3 1.7-6.3 0.8-9-1.4-7.1-5.9-14.5-11.6-22.4-16.4-2.6-1.6-5.4-3-8-4.6-3.9-2.5-5-6.8-2.9-10.5 2.1-3.8 6.3-5.3 10.3-3.3 12.6 6.2 23.6 14.6 34.2 23.7 1.6 1.4 2.2 3.3 2.1 5.4zM641.9 276.3c-2 20.3-5.7 40.4-10.6 60.2-4 16.1-8.7 31.9-14.5 47.4-2.2 5.9-6.1 8.3-10.9 6.6-4.5-1.6-6.2-6.2-4-12.1 10.4-27.9 17.3-56.7 22-86 0.9-5.6 1.5-11.3 2.1-17 0.6-5.2 3.7-8.5 8.2-8.3 4.6 0.1 7.8 4 7.7 9.2zM553.6 489.4c-6.5 0-10.3-6.7-7-12 2.2-3.5 5.1-6.6 7.7-9.9 8.8-11.6 16.7-23.8 23.9-36.5 2.9-5.2 7.2-6.8 11.5-4.4 4.2 2.4 5.2 6.9 2.4 12.1-9.1 16.6-19.6 32.2-31.8 46.7-2.1 2.2-4.2 3.8-6.7 4z" fill="#FEFEFE" /></svg>